{
	"asset":{
		"generator":"Khronos glTF Blender I/O v4.5.51",
		"version":"2.0"
	},
	"extensionsUsed":[
		"KHR_materials_emissive_strength",
		"KHR_materials_specular",
		"KHR_materials_ior"
	],
	"scene":0,
	"scenes":[
		{
			"name":"Scene",
			"nodes":[
				55
			]
		}
	],
	"nodes":[
		{
			"name":"magazine",
			"translation":[
				0.10385730117559433,
				0,
				0.04912326857447624
			]
		},
		{
			"name":"charging_handle",
			"translation":[
				0.012357300147414207,
				0,
				0.11122327297925949
			]
		},
		{
			"name":"bolt_carrier",
			"translation":[
				0.08685729652643204,
				0,
				0.09172327071428299
			]
		},
		{
			"name":"dust_cover",
			"translation":[
				0.11535730212926865,
				-0.017999999225139618,
				0.07822327315807343
			]
		},
		{
			"name":"trigger",
			"translation":[
				0.054857298731803894,
				0,
				0.05072326958179474
			]
		},
		{
			"name":"selector",
			"translation":[
				0.04085730016231537,
				0,
				0.058723270893096924
			]
		},
		{
			"name":"bolt_catch",
			"translation":[
				0.07185730338096619,
				0.013000000268220901,
				0.06722327321767807
			]
		},
		{
			"name":"mag_release",
			"translation":[
				0.10385730117559433,
				-0.016499999910593033,
				0.04912326857447624
			]
		},
		{
			"name":"rear_sight",
			"translation":[
				0.08385729789733887,
				0,
				0.13692326843738556
			]
		},
		{
			"name":"front_sight",
			"translation":[
				0.5008572936058044,
				0,
				0.13692326843738556
			]
		},
		{
			"name":"socket_muzzle",
			"translation":[
				0.5758572816848755,
				0,
				0.09172327071428299
			]
		},
		{
			"name":"socket_ads",
			"translation":[
				0.017857300117611885,
				0,
				0.1617232710123062
			]
		},
		{
			"name":"socket_support_hand",
			"translation":[
				0.33685728907585144,
				0,
				0.06472326815128326
			]
		},
		{
			"name":"socket_firing_hand"
		},
		{
			"name":"socket_eject",
			"translation":[
				0.11535730212926865,
				-0.015000000596046448,
				0.09172327071428299
			]
		},
		{
			"name":"socket_mag",
			"translation":[
				0.12535730004310608,
				0,
				0.0037232704926282167
			]
		},
		{
			"children":[
				0,
				1,
				2,
				3,
				4,
				5,
				6,
				7,
				8,
				9,
				10,
				11,
				12,
				13,
				14,
				15
			],
			"name":"root",
			"rotation":[
				-0.7071067690849304,
				0,
				0,
				0.7071067690849304
			]
		},
		{
			"mesh":0,
			"name":"Barrel_LOD2",
			"skin":0
		},
		{
			"mesh":1,
			"name":"BarrelNut_LOD2",
			"skin":0
		},
		{
			"mesh":2,
			"name":"BoltCarrier_LOD2",
			"skin":0
		},
		{
			"mesh":3,
			"name":"BoltCatch_LOD2",
			"skin":0
		},
		{
			"mesh":4,
			"name":"BufferTube_LOD2",
			"skin":0
		},
		{
			"mesh":5,
			"name":"ButtPad_LOD2",
			"skin":0
		},
		{
			"mesh":6,
			"name":"CastleNut_LOD2",
			"skin":0
		},
		{
			"mesh":7,
			"name":"ChargingHandle_LOD2",
			"skin":0
		},
		{
			"mesh":8,
			"name":"DustCover_LOD2",
			"skin":0
		},
		{
			"mesh":9,
			"name":"DustCoverRod_LOD2",
			"skin":0
		},
		{
			"mesh":10,
			"name":"EndPlate_LOD2",
			"skin":0
		},
		{
			"mesh":11,
			"name":"ForwardAssist_LOD2",
			"skin":0
		},
		{
			"mesh":12,
			"name":"FrontSightBase_LOD2",
			"skin":0
		},
		{
			"mesh":13,
			"name":"FrontSightBolt_LOD2",
			"skin":0
		},
		{
			"mesh":14,
			"name":"FrontSightLeaf_LOD2",
			"skin":0
		},
		{
			"mesh":15,
			"name":"GasBlock_LOD2",
			"skin":0
		},
		{
			"mesh":16,
			"name":"GasTube_LOD2",
			"skin":0
		},
		{
			"mesh":17,
			"name":"Handguard_LOD2",
			"skin":0
		},
		{
			"mesh":18,
			"name":"HandguardScrews_LOD2",
			"skin":0
		},
		{
			"mesh":19,
			"name":"LowerReceiver_LOD2",
			"skin":0
		},
		{
			"mesh":20,
			"name":"Magazine_LOD2",
			"skin":0
		},
		{
			"mesh":21,
			"name":"MagRelease_LOD2",
			"skin":0
		},
		{
			"mesh":22,
			"name":"MagRounds_LOD2",
			"skin":0
		},
		{
			"mesh":23,
			"name":"MuzzleDevice_LOD2",
			"skin":0
		},
		{
			"mesh":24,
			"name":"Optic_LOD2",
			"skin":0
		},
		{
			"mesh":25,
			"name":"OpticBolt_LOD2",
			"skin":0
		},
		{
			"mesh":26,
			"name":"OpticLensFront_LOD2",
			"skin":0
		},
		{
			"mesh":27,
			"name":"OpticLensRear_LOD2",
			"skin":0
		},
		{
			"mesh":28,
			"name":"OpticReticle_LOD2",
			"skin":0
		},
		{
			"mesh":29,
			"name":"Pins_LOD2",
			"skin":0
		},
		{
			"mesh":30,
			"name":"PistolGrip_LOD2",
			"skin":0
		},
		{
			"mesh":31,
			"name":"RearSightBase_LOD2",
			"skin":0
		},
		{
			"mesh":32,
			"name":"RearSightBolt_LOD2",
			"skin":0
		},
		{
			"mesh":33,
			"name":"RearSightLeaf_LOD2",
			"skin":0
		},
		{
			"mesh":34,
			"name":"Selector_LOD2",
			"skin":0
		},
		{
			"mesh":35,
			"name":"Stock_LOD2",
			"skin":0
		},
		{
			"mesh":36,
			"name":"Trigger_LOD2",
			"skin":0
		},
		{
			"mesh":37,
			"name":"UpperReceiver_LOD2",
			"skin":0
		},
		{
			"children":[
				17,
				18,
				19,
				20,
				21,
				22,
				23,
				24,
				25,
				26,
				27,
				28,
				29,
				30,
				31,
				32,
				33,
				34,
				35,
				36,
				37,
				38,
				39,
				40,
				41,
				42,
				43,
				44,
				45,
				46,
				47,
				48,
				49,
				50,
				51,
				52,
				53,
				54,
				16
			],
			"name":"SK_IV7"
		}
	],
	"materials":[
		{
			"doubleSided":true,
			"name":"M_IV7_Body",
			"normalTexture":{
				"index":0
			},
			"occlusionTexture":{
				"index":1
			},
			"pbrMetallicRoughness":{
				"baseColorTexture":{
					"index":2
				},
				"metallicRoughnessTexture":{
					"index":1
				}
			}
		},
		{
			"doubleSided":true,
			"name":"M_IV7_Furniture",
			"normalTexture":{
				"index":3
			},
			"occlusionTexture":{
				"index":4
			},
			"pbrMetallicRoughness":{
				"baseColorTexture":{
					"index":5
				},
				"metallicRoughnessTexture":{
					"index":4
				}
			}
		},
		{
			"alphaMode":"BLEND",
			"doubleSided":true,
			"extensions":{
				"KHR_materials_specular":{
					"specularColorFactor":[
						0.7700000035762784,
						1.0919999413490302,
						1.399999976158142
					]
				},
				"KHR_materials_ior":{
					"ior":1.5199999809265137
				}
			},
			"name":"M_IV7_Glass",
			"pbrMetallicRoughness":{
				"baseColorFactor":[
					0.024000000208616257,
					0.029999999329447746,
					0.035999998450279236,
					0.05000000074505806
				],
				"metallicFactor":0,
				"roughnessFactor":0.029999999329447746
			}
		},
		{
			"doubleSided":true,
			"emissiveFactor":[
				1,
				0.019999999552965164,
				0.009999999776482582
			],
			"extensions":{
				"KHR_materials_emissive_strength":{
					"emissiveStrength":8
				}
			},
			"name":"M_IV7_Reticle",
			"pbrMetallicRoughness":{
				"baseColorFactor":[
					1,
					0.019999999552965164,
					0.009999999776482582,
					1
				],
				"metallicFactor":0,
				"roughnessFactor":0.4000000059604645
			}
		},
		{
			"doubleSided":true,
			"name":"M_IV7_ReticleMask",
			"pbrMetallicRoughness":{
				"baseColorFactor":[
					0.009999999776482582,
					0.009999999776482582,
					0.009999999776482582,
					1
				],
				"metallicFactor":0,
				"roughnessFactor":0.5
			}
		}
	],
	"meshes":[
		{
			"name":"Barrel.004",
			"primitives":[
				{
					"attributes":{
						"POSITION":0,
						"NORMAL":1,
						"TEXCOORD_0":2,
						"TANGENT":3,
						"JOINTS_0":4,
						"WEIGHTS_0":5
					},
					"indices":6,
					"material":0
				}
			]
		},
		{
			"name":"BarrelNut.004",
			"primitives":[
				{
					"attributes":{
						"POSITION":8,
						"NORMAL":9,
						"TEXCOORD_0":10,
						"TANGENT":11,
						"JOINTS_0":12,
						"WEIGHTS_0":13
					},
					"indices":14,
					"material":0
				}
			]
		},
		{
			"name":"BoltCarrier.004",
			"primitives":[
				{
					"attributes":{
						"POSITION":15,
						"NORMAL":16,
						"TEXCOORD_0":17,
						"TANGENT":18,
						"JOINTS_0":19,
						"WEIGHTS_0":20
					},
					"indices":21,
					"material":0
				}
			]
		},
		{
			"name":"BoltCatch.004",
			"primitives":[
				{
					"attributes":{
						"POSITION":22,
						"NORMAL":23,
						"TEXCOORD_0":24,
						"TANGENT":25,
						"JOINTS_0":26,
						"WEIGHTS_0":27
					},
					"indices":28,
					"material":0
				}
			]
		},
		{
			"name":"BufferTube.004",
			"primitives":[
				{
					"attributes":{
						"POSITION":29,
						"NORMAL":30,
						"TEXCOORD_0":31,
						"TANGENT":32,
						"JOINTS_0":33,
						"WEIGHTS_0":34
					},
					"indices":35,
					"material":0
				}
			]
		},
		{
			"name":"ButtPad.004",
			"primitives":[
				{
					"attributes":{
						"POSITION":36,
						"NORMAL":37,
						"TEXCOORD_0":38,
						"TANGENT":39,
						"JOINTS_0":40,
						"WEIGHTS_0":41
					},
					"indices":42,
					"material":1
				}
			]
		},
		{
			"name":"CastleNut.004",
			"primitives":[
				{
					"attributes":{
						"POSITION":43,
						"NORMAL":44,
						"TEXCOORD_0":45,
						"TANGENT":46,
						"JOINTS_0":47,
						"WEIGHTS_0":48
					},
					"indices":49,
					"material":0
				}
			]
		},
		{
			"name":"ChargingHandle.003",
			"primitives":[
				{
					"attributes":{
						"POSITION":50,
						"NORMAL":51,
						"TEXCOORD_0":52,
						"TANGENT":53,
						"JOINTS_0":54,
						"WEIGHTS_0":55
					},
					"indices":56,
					"material":0
				}
			]
		},
		{
			"name":"DustCover.004",
			"primitives":[
				{
					"attributes":{
						"POSITION":57,
						"NORMAL":58,
						"TEXCOORD_0":59,
						"TANGENT":60,
						"JOINTS_0":61,
						"WEIGHTS_0":62
					},
					"indices":63,
					"material":0
				}
			]
		},
		{
			"name":"DustCoverRod.004",
			"primitives":[
				{
					"attributes":{
						"POSITION":64,
						"NORMAL":65,
						"TEXCOORD_0":66,
						"TANGENT":67,
						"JOINTS_0":68,
						"WEIGHTS_0":69
					},
					"indices":70,
					"material":0
				}
			]
		},
		{
			"name":"EndPlate.004",
			"primitives":[
				{
					"attributes":{
						"POSITION":71,
						"NORMAL":72,
						"TEXCOORD_0":73,
						"TANGENT":74,
						"JOINTS_0":75,
						"WEIGHTS_0":76
					},
					"indices":77,
					"material":0
				}
			]
		},
		{
			"name":"ForwardAssist.004",
			"primitives":[
				{
					"attributes":{
						"POSITION":78,
						"NORMAL":79,
						"TEXCOORD_0":80,
						"TANGENT":81,
						"JOINTS_0":82,
						"WEIGHTS_0":83
					},
					"indices":84,
					"material":0
				}
			]
		},
		{
			"name":"FrontSightBase.004",
			"primitives":[
				{
					"attributes":{
						"POSITION":85,
						"NORMAL":86,
						"TEXCOORD_0":87,
						"TANGENT":88,
						"JOINTS_0":89,
						"WEIGHTS_0":90
					},
					"indices":91,
					"material":0
				}
			]
		},
		{
			"name":"FrontSightBolt.004",
			"primitives":[
				{
					"attributes":{
						"POSITION":92,
						"NORMAL":93,
						"TEXCOORD_0":94,
						"TANGENT":95,
						"JOINTS_0":96,
						"WEIGHTS_0":97
					},
					"indices":98,
					"material":0
				}
			]
		},
		{
			"name":"FrontSightLeaf.004",
			"primitives":[
				{
					"attributes":{
						"POSITION":99,
						"NORMAL":100,
						"TEXCOORD_0":101,
						"TANGENT":102,
						"JOINTS_0":103,
						"WEIGHTS_0":104
					},
					"indices":105,
					"material":0
				}
			]
		},
		{
			"name":"GasBlock.004",
			"primitives":[
				{
					"attributes":{
						"POSITION":106,
						"NORMAL":107,
						"TEXCOORD_0":108,
						"TANGENT":109,
						"JOINTS_0":110,
						"WEIGHTS_0":111
					},
					"indices":112,
					"material":0
				}
			]
		},
		{
			"name":"GasTube.004",
			"primitives":[
				{
					"attributes":{
						"POSITION":113,
						"NORMAL":114,
						"TEXCOORD_0":115,
						"TANGENT":116,
						"JOINTS_0":117,
						"WEIGHTS_0":118
					},
					"indices":119,
					"material":0
				}
			]
		},
		{
			"name":"Handguard.004",
			"primitives":[
				{
					"attributes":{
						"POSITION":120,
						"NORMAL":121,
						"TEXCOORD_0":122,
						"TANGENT":123,
						"JOINTS_0":124,
						"WEIGHTS_0":125
					},
					"indices":126,
					"material":0
				}
			]
		},
		{
			"name":"HandguardScrews.004",
			"primitives":[
				{
					"attributes":{
						"POSITION":127,
						"NORMAL":128,
						"TEXCOORD_0":129,
						"TANGENT":130,
						"JOINTS_0":131,
						"WEIGHTS_0":132
					},
					"indices":133,
					"material":0
				}
			]
		},
		{
			"name":"LowerReceiver.004",
			"primitives":[
				{
					"attributes":{
						"POSITION":134,
						"NORMAL":135,
						"TEXCOORD_0":136,
						"TANGENT":137,
						"JOINTS_0":138,
						"WEIGHTS_0":139
					},
					"indices":140,
					"material":0
				}
			]
		},
		{
			"name":"Magazine.004",
			"primitives":[
				{
					"attributes":{
						"POSITION":141,
						"NORMAL":142,
						"TEXCOORD_0":143,
						"TANGENT":144,
						"JOINTS_0":145,
						"WEIGHTS_0":146
					},
					"indices":147,
					"material":1
				}
			]
		},
		{
			"name":"MagRelease.004",
			"primitives":[
				{
					"attributes":{
						"POSITION":148,
						"NORMAL":149,
						"TEXCOORD_0":150,
						"TANGENT":151,
						"JOINTS_0":152,
						"WEIGHTS_0":153
					},
					"indices":154,
					"material":0
				}
			]
		},
		{
			"name":"MagRounds.004",
			"primitives":[
				{
					"attributes":{
						"POSITION":155,
						"NORMAL":156,
						"TEXCOORD_0":157,
						"TANGENT":158,
						"JOINTS_0":159,
						"WEIGHTS_0":160
					},
					"indices":161,
					"material":1
				}
			]
		},
		{
			"name":"MuzzleDevice.004",
			"primitives":[
				{
					"attributes":{
						"POSITION":162,
						"NORMAL":163,
						"TEXCOORD_0":164,
						"TANGENT":165,
						"JOINTS_0":166,
						"WEIGHTS_0":167
					},
					"indices":168,
					"material":0
				}
			]
		},
		{
			"name":"Optic.004",
			"primitives":[
				{
					"attributes":{
						"POSITION":169,
						"NORMAL":170,
						"TEXCOORD_0":171,
						"TANGENT":172,
						"JOINTS_0":173,
						"WEIGHTS_0":174
					},
					"indices":175,
					"material":0
				}
			]
		},
		{
			"name":"OpticBolt.004",
			"primitives":[
				{
					"attributes":{
						"POSITION":176,
						"NORMAL":177,
						"TEXCOORD_0":178,
						"TANGENT":179,
						"JOINTS_0":180,
						"WEIGHTS_0":181
					},
					"indices":182,
					"material":0
				}
			]
		},
		{
			"name":"OpticLensFront.004",
			"primitives":[
				{
					"attributes":{
						"POSITION":183,
						"NORMAL":184,
						"TEXCOORD_0":185,
						"TANGENT":186,
						"JOINTS_0":187,
						"WEIGHTS_0":188
					},
					"indices":189,
					"material":2
				}
			]
		},
		{
			"name":"OpticLensRear.004",
			"primitives":[
				{
					"attributes":{
						"POSITION":190,
						"NORMAL":191,
						"TEXCOORD_0":192,
						"TANGENT":193,
						"JOINTS_0":194,
						"WEIGHTS_0":195
					},
					"indices":196,
					"material":2
				}
			]
		},
		{
			"name":"OpticReticle.004",
			"primitives":[
				{
					"attributes":{
						"POSITION":197,
						"NORMAL":198,
						"TEXCOORD_0":199,
						"TANGENT":200,
						"JOINTS_0":201,
						"WEIGHTS_0":202
					},
					"indices":203,
					"material":3
				},
				{
					"attributes":{
						"POSITION":204,
						"NORMAL":205,
						"TEXCOORD_0":206,
						"TANGENT":207,
						"JOINTS_0":208,
						"WEIGHTS_0":209
					},
					"indices":210,
					"material":4
				}
			]
		},
		{
			"name":"Pins.004",
			"primitives":[
				{
					"attributes":{
						"POSITION":211,
						"NORMAL":212,
						"TEXCOORD_0":213,
						"TANGENT":214,
						"JOINTS_0":215,
						"WEIGHTS_0":216
					},
					"indices":217,
					"material":0
				}
			]
		},
		{
			"name":"PistolGrip.004",
			"primitives":[
				{
					"attributes":{
						"POSITION":218,
						"NORMAL":219,
						"TEXCOORD_0":220,
						"TANGENT":221,
						"JOINTS_0":222,
						"WEIGHTS_0":223
					},
					"indices":224,
					"material":1
				}
			]
		},
		{
			"name":"RearSightBase.004",
			"primitives":[
				{
					"attributes":{
						"POSITION":225,
						"NORMAL":226,
						"TEXCOORD_0":227,
						"TANGENT":228,
						"JOINTS_0":229,
						"WEIGHTS_0":230
					},
					"indices":231,
					"material":0
				}
			]
		},
		{
			"name":"RearSightBolt.004",
			"primitives":[
				{
					"attributes":{
						"POSITION":232,
						"NORMAL":233,
						"TEXCOORD_0":234,
						"TANGENT":235,
						"JOINTS_0":236,
						"WEIGHTS_0":237
					},
					"indices":238,
					"material":0
				}
			]
		},
		{
			"name":"RearSightLeaf.004",
			"primitives":[
				{
					"attributes":{
						"POSITION":239,
						"NORMAL":240,
						"TEXCOORD_0":241,
						"TANGENT":242,
						"JOINTS_0":243,
						"WEIGHTS_0":244
					},
					"indices":245,
					"material":0
				}
			]
		},
		{
			"name":"Selector.004",
			"primitives":[
				{
					"attributes":{
						"POSITION":246,
						"NORMAL":247,
						"TEXCOORD_0":248,
						"TANGENT":249,
						"JOINTS_0":250,
						"WEIGHTS_0":251
					},
					"indices":252,
					"material":0
				}
			]
		},
		{
			"name":"Stock.004",
			"primitives":[
				{
					"attributes":{
						"POSITION":253,
						"NORMAL":254,
						"TEXCOORD_0":255,
						"TANGENT":256,
						"JOINTS_0":257,
						"WEIGHTS_0":258
					},
					"indices":259,
					"material":1
				}
			]
		},
		{
			"name":"Trigger.004",
			"primitives":[
				{
					"attributes":{
						"POSITION":260,
						"NORMAL":261,
						"TEXCOORD_0":262,
						"TANGENT":263,
						"JOINTS_0":264,
						"WEIGHTS_0":265
					},
					"indices":266,
					"material":0
				}
			]
		},
		{
			"name":"UpperReceiver.004",
			"primitives":[
				{
					"attributes":{
						"POSITION":267,
						"NORMAL":268,
						"TEXCOORD_0":269,
						"TANGENT":270,
						"JOINTS_0":271,
						"WEIGHTS_0":272
					},
					"indices":273,
					"material":0
				}
			]
		}
	],
	"textures":[
		{
			"sampler":0,
			"source":0
		},
		{
			"sampler":0,
			"source":1
		},
		{
			"sampler":0,
			"source":2
		},
		{
			"sampler":0,
			"source":3
		},
		{
			"sampler":0,
			"source":4
		},
		{
			"sampler":0,
			"source":5
		}
	],
	"images":[
		{
			"mimeType":"image/png",
			"name":"T_IV7_Body_Normal",
			"uri":"textures/T_IV7_Body_Normal.png"
		},
		{
			"mimeType":"image/png",
			"name":"T_IV7_Body_ORM",
			"uri":"textures/T_IV7_Body_ORM.png"
		},
		{
			"mimeType":"image/png",
			"name":"T_IV7_Body_BaseColor",
			"uri":"textures/T_IV7_Body_BaseColor.png"
		},
		{
			"mimeType":"image/png",
			"name":"T_IV7_Furniture_Normal",
			"uri":"textures/T_IV7_Furniture_Normal.png"
		},
		{
			"mimeType":"image/png",
			"name":"T_IV7_Furniture_ORM",
			"uri":"textures/T_IV7_Furniture_ORM.png"
		},
		{
			"mimeType":"image/png",
			"name":"T_IV7_Furniture_BaseColor",
			"uri":"textures/T_IV7_Furniture_BaseColor.png"
		}
	],
	"skins":[
		{
			"inverseBindMatrices":7,
			"joints":[
				16,
				0,
				1,
				2,
				3,
				4,
				5,
				6,
				7,
				8,
				9,
				10,
				11,
				12,
				13,
				14,
				15
			],
			"name":"SK_IV7"
		}
	],
	"accessors":[
		{
			"bufferView":0,
			"componentType":5126,
			"count":305,
			"max":[
				0.5348414778709412,
				0.1040845438838005,
				0.012425722554326057
			],
			"min":[
				0.1488909125328064,
				0.07938950508832932,
				-0.012472671456634998
			],
			"type":"VEC3"
		},
		{
			"bufferView":1,
			"componentType":5126,
			"count":305,
			"type":"VEC3"
		},
		{
			"bufferView":2,
			"componentType":5126,
			"count":305,
			"type":"VEC2"
		},
		{
			"bufferView":3,
			"componentType":5126,
			"count":305,
			"type":"VEC4"
		},
		{
			"bufferView":4,
			"componentType":5121,
			"count":305,
			"type":"VEC4"
		},
		{
			"bufferView":5,
			"componentType":5126,
			"count":305,
			"type":"VEC4"
		},
		{
			"bufferView":6,
			"componentType":5123,
			"count":882,
			"type":"SCALAR"
		},
		{
			"bufferView":7,
			"componentType":5126,
			"count":17,
			"type":"MAT4"
		},
		{
			"bufferView":8,
			"componentType":5126,
			"count":377,
			"max":[
				0.22284361720085144,
				0.10869765281677246,
				0.017141705378890038
			],
			"min":[
				0.19686706364154816,
				0.0745815634727478,
				-0.017141705378890038
			],
			"type":"VEC3"
		},
		{
			"bufferView":9,
			"componentType":5126,
			"count":377,
			"type":"VEC3"
		},
		{
			"bufferView":10,
			"componentType":5126,
			"count":377,
			"type":"VEC2"
		},
		{
			"bufferView":11,
			"componentType":5126,
			"count":377,
			"type":"VEC4"
		},
		{
			"bufferView":12,
			"componentType":5121,
			"count":377,
			"type":"VEC4"
		},
		{
			"bufferView":13,
			"componentType":5126,
			"count":377,
			"type":"VEC4"
		},
		{
			"bufferView":14,
			"componentType":5123,
			"count":888,
			"type":"SCALAR"
		},
		{
			"bufferView":15,
			"componentType":5126,
			"count":477,
			"max":[
				0.1483723223209381,
				0.10319302976131439,
				0.011594929732382298
			],
			"min":[
				0.023866333067417145,
				0.08025351166725159,
				-0.011557115241885185
			],
			"type":"VEC3"
		},
		{
			"bufferView":16,
			"componentType":5126,
			"count":477,
			"type":"VEC3"
		},
		{
			"bufferView":17,
			"componentType":5126,
			"count":477,
			"type":"VEC2"
		},
		{
			"bufferView":18,
			"componentType":5126,
			"count":477,
			"type":"VEC4"
		},
		{
			"bufferView":19,
			"componentType":5121,
			"count":477,
			"type":"VEC4"
		},
		{
			"bufferView":20,
			"componentType":5126,
			"count":477,
			"type":"VEC4"
		},
		{
			"bufferView":21,
			"componentType":5123,
			"count":954,
			"type":"SCALAR"
		},
		{
			"bufferView":22,
			"componentType":5126,
			"count":279,
			"max":[
				0.08675763010978699,
				0.06911157816648483,
				-0.012048342265188694
			],
			"min":[
				0.06794363260269165,
				0.054885201156139374,
				-0.016200488433241844
			],
			"type":"VEC3"
		},
		{
			"bufferView":23,
			"componentType":5126,
			"count":279,
			"type":"VEC3"
		},
		{
			"bufferView":24,
			"componentType":5126,
			"count":279,
			"type":"VEC2"
		},
		{
			"bufferView":25,
			"componentType":5126,
			"count":279,
			"type":"VEC4"
		},
		{
			"bufferView":26,
			"componentType":5121,
			"count":279,
			"type":"VEC4"
		},
		{
			"bufferView":27,
			"componentType":5126,
			"count":279,
			"type":"VEC4"
		},
		{
			"bufferView":28,
			"componentType":5123,
			"count":504,
			"type":"SCALAR"
		},
		{
			"bufferView":29,
			"componentType":5126,
			"count":671,
			"max":[
				0.004356913734227419,
				0.1062026098370552,
				0.014505011029541492
			],
			"min":[
				-0.19312919676303864,
				0.07422521710395813,
				-0.014505011029541492
			],
			"type":"VEC3"
		},
		{
			"bufferView":30,
			"componentType":5126,
			"count":671,
			"type":"VEC3"
		},
		{
			"bufferView":31,
			"componentType":5126,
			"count":671,
			"type":"VEC2"
		},
		{
			"bufferView":32,
			"componentType":5126,
			"count":671,
			"type":"VEC4"
		},
		{
			"bufferView":33,
			"componentType":5121,
			"count":671,
			"type":"VEC4"
		},
		{
			"bufferView":34,
			"componentType":5126,
			"count":671,
			"type":"VEC4"
		},
		{
			"bufferView":35,
			"componentType":5123,
			"count":1668,
			"type":"SCALAR"
		},
		{
			"bufferView":36,
			"componentType":5126,
			"count":107,
			"max":[
				-0.266193151473999,
				0.12374650686979294,
				0.021810654550790787
			],
			"min":[
				-0.2839498519897461,
				-0.002299958374351263,
				-0.021836446598172188
			],
			"type":"VEC3"
		},
		{
			"bufferView":37,
			"componentType":5126,
			"count":107,
			"type":"VEC3"
		},
		{
			"bufferView":38,
			"componentType":5126,
			"count":107,
			"type":"VEC2"
		},
		{
			"bufferView":39,
			"componentType":5126,
			"count":107,
			"type":"VEC4"
		},
		{
			"bufferView":40,
			"componentType":5121,
			"count":107,
			"type":"VEC4"
		},
		{
			"bufferView":41,
			"componentType":5126,
			"count":107,
			"type":"VEC4"
		},
		{
			"bufferView":42,
			"componentType":5123,
			"count":348,
			"type":"SCALAR"
		},
		{
			"bufferView":43,
			"componentType":5126,
			"count":264,
			"max":[
				-0.0009658951894380152,
				0.10789412260055542,
				0.016157886013388634
			],
			"min":[
				-0.008615296334028244,
				0.07556029409170151,
				-0.016170956194400787
			],
			"type":"VEC3"
		},
		{
			"bufferView":44,
			"componentType":5126,
			"count":264,
			"type":"VEC3"
		},
		{
			"bufferView":45,
			"componentType":5126,
			"count":264,
			"type":"VEC2"
		},
		{
			"bufferView":46,
			"componentType":5126,
			"count":264,
			"type":"VEC4"
		},
		{
			"bufferView":47,
			"componentType":5121,
			"count":264,
			"type":"VEC4"
		},
		{
			"bufferView":48,
			"componentType":5126,
			"count":264,
			"type":"VEC4"
		},
		{
			"bufferView":49,
			"componentType":5123,
			"count":720,
			"type":"SCALAR"
		},
		{
			"bufferView":50,
			"componentType":5126,
			"count":418,
			"max":[
				0.1437247395515442,
				0.11499672383069992,
				0.024122973904013634
			],
			"min":[
				0.003090212121605873,
				0.10805859416723251,
				-0.024122973904013634
			],
			"type":"VEC3"
		},
		{
			"bufferView":51,
			"componentType":5126,
			"count":418,
			"type":"VEC3"
		},
		{
			"bufferView":52,
			"componentType":5126,
			"count":418,
			"type":"VEC2"
		},
		{
			"bufferView":53,
			"componentType":5126,
			"count":418,
			"type":"VEC4"
		},
		{
			"bufferView":54,
			"componentType":5121,
			"count":418,
			"type":"VEC4"
		},
		{
			"bufferView":55,
			"componentType":5126,
			"count":418,
			"type":"VEC4"
		},
		{
			"bufferView":56,
			"componentType":5123,
			"count":984,
			"type":"SCALAR"
		},
		{
			"bufferView":57,
			"componentType":5126,
			"count":118,
			"max":[
				0.14784842729568481,
				0.08028626441955566,
				0.022381717339158058
			],
			"min":[
				0.08286865055561066,
				0.053895726799964905,
				0.015968387946486473
			],
			"type":"VEC3"
		},
		{
			"bufferView":58,
			"componentType":5126,
			"count":118,
			"type":"VEC3"
		},
		{
			"bufferView":59,
			"componentType":5126,
			"count":118,
			"type":"VEC2"
		},
		{
			"bufferView":60,
			"componentType":5126,
			"count":118,
			"type":"VEC4"
		},
		{
			"bufferView":61,
			"componentType":5121,
			"count":118,
			"type":"VEC4"
		},
		{
			"bufferView":62,
			"componentType":5126,
			"count":118,
			"type":"VEC4"
		},
		{
			"bufferView":63,
			"componentType":5123,
			"count":258,
			"type":"SCALAR"
		},
		{
			"bufferView":64,
			"componentType":5126,
			"count":24,
			"max":[
				0.15435729920864105,
				0.07918798923492432,
				0.01900423876941204
			],
			"min":[
				0.07635730504989624,
				0.07725855708122253,
				0.017035288736224174
			],
			"type":"VEC3"
		},
		{
			"bufferView":65,
			"componentType":5126,
			"count":24,
			"type":"VEC3"
		},
		{
			"bufferView":66,
			"componentType":5126,
			"count":24,
			"type":"VEC2"
		},
		{
			"bufferView":67,
			"componentType":5126,
			"count":24,
			"type":"VEC4"
		},
		{
			"bufferView":68,
			"componentType":5121,
			"count":24,
			"type":"VEC4"
		},
		{
			"bufferView":69,
			"componentType":5126,
			"count":24,
			"type":"VEC4"
		},
		{
			"bufferView":70,
			"componentType":5123,
			"count":36,
			"type":"SCALAR"
		},
		{
			"bufferView":71,
			"componentType":5126,
			"count":246,
			"max":[
				0.0018533366965129972,
				0.10719750076532364,
				0.016380634158849716
			],
			"min":[
				-0.0009394469088874757,
				0.07524466514587402,
				-0.02754475548863411
			],
			"type":"VEC3"
		},
		{
			"bufferView":72,
			"componentType":5126,
			"count":246,
			"type":"VEC3"
		},
		{
			"bufferView":73,
			"componentType":5126,
			"count":246,
			"type":"VEC2"
		},
		{
			"bufferView":74,
			"componentType":5126,
			"count":246,
			"type":"VEC4"
		},
		{
			"bufferView":75,
			"componentType":5121,
			"count":246,
			"type":"VEC4"
		},
		{
			"bufferView":76,
			"componentType":5126,
			"count":246,
			"type":"VEC4"
		},
		{
			"bufferView":77,
			"componentType":5123,
			"count":648,
			"type":"SCALAR"
		},
		{
			"bufferView":78,
			"componentType":5126,
			"count":179,
			"max":[
				0.02985730767250061,
				0.0990075096487999,
				0.016870182007551193
			],
			"min":[
				0.02235729992389679,
				0.08968690037727356,
				0.009699935093522072
			],
			"type":"VEC3"
		},
		{
			"bufferView":79,
			"componentType":5126,
			"count":179,
			"type":"VEC3"
		},
		{
			"bufferView":80,
			"componentType":5126,
			"count":179,
			"type":"VEC2"
		},
		{
			"bufferView":81,
			"componentType":5126,
			"count":179,
			"type":"VEC4"
		},
		{
			"bufferView":82,
			"componentType":5121,
			"count":179,
			"type":"VEC4"
		},
		{
			"bufferView":83,
			"componentType":5126,
			"count":179,
			"type":"VEC4"
		},
		{
			"bufferView":84,
			"componentType":5123,
			"count":354,
			"type":"SCALAR"
		},
		{
			"bufferView":85,
			"componentType":5126,
			"count":435,
			"max":[
				0.510857343673706,
				0.13990381360054016,
				0.01297305803745985
			],
			"min":[
				0.48885732889175415,
				0.11673542857170105,
				-0.012999972328543663
			],
			"type":"VEC3"
		},
		{
			"bufferView":86,
			"componentType":5126,
			"count":435,
			"type":"VEC3"
		},
		{
			"bufferView":87,
			"componentType":5126,
			"count":435,
			"type":"VEC2"
		},
		{
			"bufferView":88,
			"componentType":5126,
			"count":435,
			"type":"VEC4"
		},
		{
			"bufferView":89,
			"componentType":5121,
			"count":435,
			"type":"VEC4"
		},
		{
			"bufferView":90,
			"componentType":5126,
			"count":435,
			"type":"VEC4"
		},
		{
			"bufferView":91,
			"componentType":5123,
			"count":1098,
			"type":"SCALAR"
		},
		{
			"bufferView":92,
			"componentType":5126,
			"count":80,
			"max":[
				0.5086942315101624,
				0.12269213050603867,
				0.013086802326142788
			],
			"min":[
				0.5027632713317871,
				0.1167609915137291,
				-0.013761738315224648
			],
			"type":"VEC3"
		},
		{
			"bufferView":93,
			"componentType":5126,
			"count":80,
			"type":"VEC3"
		},
		{
			"bufferView":94,
			"componentType":5126,
			"count":80,
			"type":"VEC2"
		},
		{
			"bufferView":95,
			"componentType":5126,
			"count":80,
			"type":"VEC4"
		},
		{
			"bufferView":96,
			"componentType":5121,
			"count":80,
			"type":"VEC4"
		},
		{
			"bufferView":97,
			"componentType":5126,
			"count":80,
			"type":"VEC4"
		},
		{
			"bufferView":98,
			"componentType":5123,
			"count":150,
			"type":"SCALAR"
		},
		{
			"bufferView":99,
			"componentType":5126,
			"count":303,
			"max":[
				0.5023581385612488,
				0.1653299629688263,
				0.010460419580340385
			],
			"min":[
				0.4993564188480377,
				0.13564853370189667,
				-0.01046042051166296
			],
			"type":"VEC3"
		},
		{
			"bufferView":100,
			"componentType":5126,
			"count":303,
			"type":"VEC3"
		},
		{
			"bufferView":101,
			"componentType":5126,
			"count":303,
			"type":"VEC2"
		},
		{
			"bufferView":102,
			"componentType":5126,
			"count":303,
			"type":"VEC4"
		},
		{
			"bufferView":103,
			"componentType":5121,
			"count":303,
			"type":"VEC4"
		},
		{
			"bufferView":104,
			"componentType":5126,
			"count":303,
			"type":"VEC4"
		},
		{
			"bufferView":105,
			"componentType":5123,
			"count":792,
			"type":"SCALAR"
		},
		{
			"bufferView":106,
			"componentType":5126,
			"count":354,
			"max":[
				0.3838573396205902,
				0.10965679585933685,
				0.011479679495096207
			],
			"min":[
				0.3528572916984558,
				0.08026368916034698,
				-0.011479614302515984
			],
			"type":"VEC3"
		},
		{
			"bufferView":107,
			"componentType":5126,
			"count":354,
			"type":"VEC3"
		},
		{
			"bufferView":108,
			"componentType":5126,
			"count":354,
			"type":"VEC2"
		},
		{
			"bufferView":109,
			"componentType":5126,
			"count":354,
			"type":"VEC4"
		},
		{
			"bufferView":110,
			"componentType":5121,
			"count":354,
			"type":"VEC4"
		},
		{
			"bufferView":111,
			"componentType":5126,
			"count":354,
			"type":"VEC4"
		},
		{
			"bufferView":112,
			"componentType":5123,
			"count":942,
			"type":"SCALAR"
		},
		{
			"bufferView":113,
			"componentType":5126,
			"count":24,
			"max":[
				0.3608573377132416,
				0.1078043133020401,
				0.002572613302618265
			],
			"min":[
				0.19735729694366455,
				0.1028580516576767,
				-0.002581037813797593
			],
			"type":"VEC3"
		},
		{
			"bufferView":114,
			"componentType":5126,
			"count":24,
			"type":"VEC3"
		},
		{
			"bufferView":115,
			"componentType":5126,
			"count":24,
			"type":"VEC2"
		},
		{
			"bufferView":116,
			"componentType":5126,
			"count":24,
			"type":"VEC4"
		},
		{
			"bufferView":117,
			"componentType":5121,
			"count":24,
			"type":"VEC4"
		},
		{
			"bufferView":118,
			"componentType":5126,
			"count":24,
			"type":"VEC4"
		},
		{
			"bufferView":119,
			"componentType":5123,
			"count":36,
			"type":"SCALAR"
		},
		{
			"bufferView":120,
			"componentType":5126,
			"count":2320,
			"max":[
				0.5287097692489624,
				0.12159460783004761,
				0.02499507926404476
			],
			"min":[
				0.19900642335414886,
				0.06477975100278854,
				-0.024914540350437164
			],
			"type":"VEC3"
		},
		{
			"bufferView":121,
			"componentType":5126,
			"count":2320,
			"type":"VEC3"
		},
		{
			"bufferView":122,
			"componentType":5126,
			"count":2320,
			"type":"VEC2"
		},
		{
			"bufferView":123,
			"componentType":5126,
			"count":2320,
			"type":"VEC4"
		},
		{
			"bufferView":124,
			"componentType":5121,
			"count":2320,
			"type":"VEC4"
		},
		{
			"bufferView":125,
			"componentType":5126,
			"count":2320,
			"type":"VEC4"
		},
		{
			"bufferView":126,
			"componentType":5123,
			"count":4770,
			"type":"SCALAR"
		},
		{
			"bufferView":127,
			"componentType":5126,
			"count":224,
			"max":[
				0.2202761322259903,
				0.0689026489853859,
				0.009957527741789818
			],
			"min":[
				0.20440541207790375,
				0.06497363746166229,
				0.005042470525950193
			],
			"type":"VEC3"
		},
		{
			"bufferView":128,
			"componentType":5126,
			"count":224,
			"type":"VEC3"
		},
		{
			"bufferView":129,
			"componentType":5126,
			"count":224,
			"type":"VEC2"
		},
		{
			"bufferView":130,
			"componentType":5126,
			"count":224,
			"type":"VEC4"
		},
		{
			"bufferView":131,
			"componentType":5121,
			"count":224,
			"type":"VEC4"
		},
		{
			"bufferView":132,
			"componentType":5126,
			"count":224,
			"type":"VEC4"
		},
		{
			"bufferView":133,
			"componentType":5123,
			"count":456,
			"type":"SCALAR"
		},
		{
			"bufferView":134,
			"componentType":5126,
			"count":1627,
			"max":[
				0.18982988595962524,
				0.1071949452161789,
				0.019788453355431557
			],
			"min":[
				-0.01182668749243021,
				0.003734145313501358,
				-0.01837988756597042
			],
			"type":"VEC3"
		},
		{
			"bufferView":135,
			"componentType":5126,
			"count":1627,
			"type":"VEC3"
		},
		{
			"bufferView":136,
			"componentType":5126,
			"count":1627,
			"type":"VEC2"
		},
		{
			"bufferView":137,
			"componentType":5126,
			"count":1627,
			"type":"VEC4"
		},
		{
			"bufferView":138,
			"componentType":5121,
			"count":1627,
			"type":"VEC4"
		},
		{
			"bufferView":139,
			"componentType":5126,
			"count":1627,
			"type":"VEC4"
		},
		{
			"bufferView":140,
			"componentType":5123,
			"count":3714,
			"type":"SCALAR"
		},
		{
			"bufferView":141,
			"componentType":5126,
			"count":578,
			"max":[
				0.18072518706321716,
				0.07836538553237915,
				0.01375243254005909
			],
			"min":[
				0.09064121544361115,
				-0.12074324488639832,
				-0.01364242471754551
			],
			"type":"VEC3"
		},
		{
			"bufferView":142,
			"componentType":5126,
			"count":578,
			"type":"VEC3"
		},
		{
			"bufferView":143,
			"componentType":5126,
			"count":578,
			"type":"VEC2"
		},
		{
			"bufferView":144,
			"componentType":5126,
			"count":578,
			"type":"VEC4"
		},
		{
			"bufferView":145,
			"componentType":5121,
			"count":578,
			"type":"VEC4"
		},
		{
			"bufferView":146,
			"componentType":5126,
			"count":578,
			"type":"VEC4"
		},
		{
			"bufferView":147,
			"componentType":5123,
			"count":1794,
			"type":"SCALAR"
		},
		{
			"bufferView":148,
			"componentType":5126,
			"count":43,
			"max":[
				0.10737475752830505,
				0.052797820419073105,
				0.019571295008063316
			],
			"min":[
				0.10016234219074249,
				0.04544893652200699,
				0.01460238080471754
			],
			"type":"VEC3"
		},
		{
			"bufferView":149,
			"componentType":5126,
			"count":43,
			"type":"VEC3"
		},
		{
			"bufferView":150,
			"componentType":5126,
			"count":43,
			"type":"VEC2"
		},
		{
			"bufferView":151,
			"componentType":5126,
			"count":43,
			"type":"VEC4"
		},
		{
			"bufferView":152,
			"componentType":5121,
			"count":43,
			"type":"VEC4"
		},
		{
			"bufferView":153,
			"componentType":5126,
			"count":43,
			"type":"VEC4"
		},
		{
			"bufferView":154,
			"componentType":5123,
			"count":84,
			"type":"SCALAR"
		},
		{
			"bufferView":155,
			"componentType":5126,
			"count":327,
			"max":[
				0.1523328572511673,
				0.07954766601324081,
				0.009794572368264198
			],
			"min":[
				0.09538000077009201,
				0.06142967566847801,
				-0.004895608872175217
			],
			"type":"VEC3"
		},
		{
			"bufferView":156,
			"componentType":5126,
			"count":327,
			"type":"VEC3"
		},
		{
			"bufferView":157,
			"componentType":5126,
			"count":327,
			"type":"VEC2"
		},
		{
			"bufferView":158,
			"componentType":5126,
			"count":327,
			"type":"VEC4"
		},
		{
			"bufferView":159,
			"componentType":5121,
			"count":327,
			"type":"VEC4"
		},
		{
			"bufferView":160,
			"componentType":5126,
			"count":327,
			"type":"VEC4"
		},
		{
			"bufferView":161,
			"componentType":5123,
			"count":672,
			"type":"SCALAR"
		},
		{
			"bufferView":162,
			"componentType":5126,
			"count":445,
			"max":[
				0.575835645198822,
				0.10276829451322556,
				0.011143353767693043
			],
			"min":[
				0.5208585858345032,
				0.0806782990694046,
				-0.01099985372275114
			],
			"type":"VEC3"
		},
		{
			"bufferView":163,
			"componentType":5126,
			"count":445,
			"type":"VEC3"
		},
		{
			"bufferView":164,
			"componentType":5126,
			"count":445,
			"type":"VEC2"
		},
		{
			"bufferView":165,
			"componentType":5126,
			"count":445,
			"type":"VEC4"
		},
		{
			"bufferView":166,
			"componentType":5121,
			"count":445,
			"type":"VEC4"
		},
		{
			"bufferView":167,
			"componentType":5126,
			"count":445,
			"type":"VEC4"
		},
		{
			"bufferView":168,
			"componentType":5123,
			"count":1158,
			"type":"SCALAR"
		},
		{
			"bufferView":169,
			"componentType":5126,
			"count":2279,
			"max":[
				0.16283908486366272,
				0.1883232593536377,
				0.026599999517202377
			],
			"min":[
				0.09386970847845078,
				0.11474668979644775,
				-0.021577512845396996
			],
			"type":"VEC3"
		},
		{
			"bufferView":170,
			"componentType":5126,
			"count":2279,
			"type":"VEC3"
		},
		{
			"bufferView":171,
			"componentType":5126,
			"count":2279,
			"type":"VEC2"
		},
		{
			"bufferView":172,
			"componentType":5126,
			"count":2279,
			"type":"VEC4"
		},
		{
			"bufferView":173,
			"componentType":5121,
			"count":2279,
			"type":"VEC4"
		},
		{
			"bufferView":174,
			"componentType":5126,
			"count":2279,
			"type":"VEC4"
		},
		{
			"bufferView":175,
			"componentType":5123,
			"count":5190,
			"type":"SCALAR"
		},
		{
			"bufferView":176,
			"componentType":5126,
			"count":82,
			"max":[
				0.1339513510465622,
				0.12269213795661926,
				0.012683479115366936
			],
			"min":[
				0.12788844108581543,
				0.11663177609443665,
				-0.013761737383902073
			],
			"type":"VEC3"
		},
		{
			"bufferView":177,
			"componentType":5126,
			"count":82,
			"type":"VEC3"
		},
		{
			"bufferView":178,
			"componentType":5126,
			"count":82,
			"type":"VEC2"
		},
		{
			"bufferView":179,
			"componentType":5126,
			"count":82,
			"type":"VEC4"
		},
		{
			"bufferView":180,
			"componentType":5121,
			"count":82,
			"type":"VEC4"
		},
		{
			"bufferView":181,
			"componentType":5126,
			"count":82,
			"type":"VEC4"
		},
		{
			"bufferView":182,
			"componentType":5123,
			"count":150,
			"type":"SCALAR"
		},
		{
			"bufferView":183,
			"componentType":5126,
			"count":90,
			"max":[
				0.1575251668691635,
				0.17459918558597565,
				0.012824717909097672
			],
			"min":[
				0.15559884905815125,
				0.14892643690109253,
				-0.012808991596102715
			],
			"type":"VEC3"
		},
		{
			"bufferView":184,
			"componentType":5126,
			"count":90,
			"type":"VEC3"
		},
		{
			"bufferView":185,
			"componentType":5126,
			"count":90,
			"type":"VEC2"
		},
		{
			"bufferView":186,
			"componentType":5126,
			"count":90,
			"type":"VEC4"
		},
		{
			"bufferView":187,
			"componentType":5121,
			"count":90,
			"type":"VEC4"
		},
		{
			"bufferView":188,
			"componentType":5126,
			"count":90,
			"type":"VEC4"
		},
		{
			"bufferView":189,
			"componentType":5123,
			"count":228,
			"type":"SCALAR"
		},
		{
			"bufferView":190,
			"componentType":5126,
			"count":88,
			"max":[
				0.1000290960073471,
				0.17468112707138062,
				0.012881207279860973
			],
			"min":[
				0.09788341820240021,
				0.14889614284038544,
				-0.01291374210268259
			],
			"type":"VEC3"
		},
		{
			"bufferView":191,
			"componentType":5126,
			"count":88,
			"type":"VEC3"
		},
		{
			"bufferView":192,
			"componentType":5126,
			"count":88,
			"type":"VEC2"
		},
		{
			"bufferView":193,
			"componentType":5126,
			"count":88,
			"type":"VEC4"
		},
		{
			"bufferView":194,
			"componentType":5121,
			"count":88,
			"type":"VEC4"
		},
		{
			"bufferView":195,
			"componentType":5126,
			"count":88,
			"type":"VEC4"
		},
		{
			"bufferView":196,
			"componentType":5123,
			"count":228,
			"type":"SCALAR"
		},
		{
			"bufferView":197,
			"componentType":5126,
			"count":6,
			"max":[
				0.15554530918598175,
				0.1618785858154297,
				0.0001450451381970197
			],
			"min":[
				0.15550529956817627,
				0.16156601905822754,
				-0.0001466032990720123
			],
			"type":"VEC3"
		},
		{
			"bufferView":198,
			"componentType":5126,
			"count":6,
			"type":"VEC3"
		},
		{
			"bufferView":199,
			"componentType":5126,
			"count":6,
			"type":"VEC2"
		},
		{
			"bufferView":200,
			"componentType":5126,
			"count":6,
			"type":"VEC4"
		},
		{
			"bufferView":201,
			"componentType":5121,
			"count":6,
			"type":"VEC4"
		},
		{
			"bufferView":202,
			"componentType":5126,
			"count":6,
			"type":"VEC4"
		},
		{
			"bufferView":203,
			"componentType":5123,
			"count":12,
			"type":"SCALAR"
		},
		{
			"bufferView":204,
			"componentType":5126,
			"count":20,
			"max":[
				0.15555530786514282,
				0.1618785858154297,
				0.00014660415763501078
			],
			"min":[
				0.15550529956817627,
				0.16156601905822754,
				-0.00016078334010671824
			],
			"type":"VEC3"
		},
		{
			"bufferView":205,
			"componentType":5126,
			"count":20,
			"type":"VEC3"
		},
		{
			"bufferView":206,
			"componentType":5126,
			"count":20,
			"type":"VEC2"
		},
		{
			"bufferView":207,
			"componentType":5126,
			"count":20,
			"type":"VEC4"
		},
		{
			"bufferView":208,
			"componentType":5121,
			"count":20,
			"type":"VEC4"
		},
		{
			"bufferView":209,
			"componentType":5126,
			"count":20,
			"type":"VEC4"
		},
		{
			"bufferView":210,
			"componentType":5123,
			"count":24,
			"type":"SCALAR"
		},
		{
			"bufferView":211,
			"componentType":5126,
			"count":222,
			"max":[
				0.18299347162246704,
				0.06982685625553131,
				0.01311029028147459
			],
			"min":[
				0.007679298985749483,
				0.043331414461135864,
				-0.014781355857849121
			],
			"type":"VEC3"
		},
		{
			"bufferView":212,
			"componentType":5126,
			"count":222,
			"type":"VEC3"
		},
		{
			"bufferView":213,
			"componentType":5126,
			"count":222,
			"type":"VEC2"
		},
		{
			"bufferView":214,
			"componentType":5126,
			"count":222,
			"type":"VEC4"
		},
		{
			"bufferView":215,
			"componentType":5121,
			"count":222,
			"type":"VEC4"
		},
		{
			"bufferView":216,
			"componentType":5126,
			"count":222,
			"type":"VEC4"
		},
		{
			"bufferView":217,
			"componentType":5123,
			"count":456,
			"type":"SCALAR"
		},
		{
			"bufferView":218,
			"componentType":5126,
			"count":299,
			"max":[
				0.040648382157087326,
				0.041691798716783524,
				0.016182655468583107
			],
			"min":[
				-0.04906188324093819,
				-0.060224127024412155,
				-0.016182655468583107
			],
			"type":"VEC3"
		},
		{
			"bufferView":219,
			"componentType":5126,
			"count":299,
			"type":"VEC3"
		},
		{
			"bufferView":220,
			"componentType":5126,
			"count":299,
			"type":"VEC2"
		},
		{
			"bufferView":221,
			"componentType":5126,
			"count":299,
			"type":"VEC4"
		},
		{
			"bufferView":222,
			"componentType":5121,
			"count":299,
			"type":"VEC4"
		},
		{
			"bufferView":223,
			"componentType":5126,
			"count":299,
			"type":"VEC4"
		},
		{
			"bufferView":224,
			"componentType":5123,
			"count":1248,
			"type":"SCALAR"
		},
		{
			"bufferView":225,
			"componentType":5126,
			"count":530,
			"max":[
				0.09385719895362854,
				0.13990524411201477,
				0.017595091834664345
			],
			"min":[
				0.07085730135440826,
				0.11673542112112045,
				-0.012968108057975769
			],
			"type":"VEC3"
		},
		{
			"bufferView":226,
			"componentType":5126,
			"count":530,
			"type":"VEC3"
		},
		{
			"bufferView":227,
			"componentType":5126,
			"count":530,
			"type":"VEC2"
		},
		{
			"bufferView":228,
			"componentType":5126,
			"count":530,
			"type":"VEC4"
		},
		{
			"bufferView":229,
			"componentType":5121,
			"count":530,
			"type":"VEC4"
		},
		{
			"bufferView":230,
			"componentType":5126,
			"count":530,
			"type":"VEC4"
		},
		{
			"bufferView":231,
			"componentType":5123,
			"count":1404,
			"type":"SCALAR"
		},
		{
			"bufferView":232,
			"componentType":5126,
			"count":88,
			"max":[
				0.08382128924131393,
				0.12266620993614197,
				0.01268348004668951
			],
			"min":[
				0.07791437208652496,
				0.11675717681646347,
				-0.013761736452579498
			],
			"type":"VEC3"
		},
		{
			"bufferView":233,
			"componentType":5126,
			"count":88,
			"type":"VEC3"
		},
		{
			"bufferView":234,
			"componentType":5126,
			"count":88,
			"type":"VEC2"
		},
		{
			"bufferView":235,
			"componentType":5126,
			"count":88,
			"type":"VEC4"
		},
		{
			"bufferView":236,
			"componentType":5121,
			"count":88,
			"type":"VEC4"
		},
		{
			"bufferView":237,
			"componentType":5126,
			"count":88,
			"type":"VEC4"
		},
		{
			"bufferView":238,
			"componentType":5123,
			"count":150,
			"type":"SCALAR"
		},
		{
			"bufferView":239,
			"componentType":5126,
			"count":576,
			"max":[
				0.08536040037870407,
				0.1678699553012848,
				0.011159165762364864
			],
			"min":[
				0.0823541134595871,
				0.13565975427627563,
				-0.011131059378385544
			],
			"type":"VEC3"
		},
		{
			"bufferView":240,
			"componentType":5126,
			"count":576,
			"type":"VEC3"
		},
		{
			"bufferView":241,
			"componentType":5126,
			"count":576,
			"type":"VEC2"
		},
		{
			"bufferView":242,
			"componentType":5126,
			"count":576,
			"type":"VEC4"
		},
		{
			"bufferView":243,
			"componentType":5121,
			"count":576,
			"type":"VEC4"
		},
		{
			"bufferView":244,
			"componentType":5126,
			"count":576,
			"type":"VEC4"
		},
		{
			"bufferView":245,
			"componentType":5123,
			"count":1320,
			"type":"SCALAR"
		},
		{
			"bufferView":246,
			"componentType":5126,
			"count":232,
			"max":[
				0.05384857580065727,
				0.06415051221847534,
				0.01378705259412527
			],
			"min":[
				0.035390786826610565,
				0.0532960370182991,
				-0.017454247921705246
			],
			"type":"VEC3"
		},
		{
			"bufferView":247,
			"componentType":5126,
			"count":232,
			"type":"VEC3"
		},
		{
			"bufferView":248,
			"componentType":5126,
			"count":232,
			"type":"VEC2"
		},
		{
			"bufferView":249,
			"componentType":5126,
			"count":232,
			"type":"VEC4"
		},
		{
			"bufferView":250,
			"componentType":5121,
			"count":232,
			"type":"VEC4"
		},
		{
			"bufferView":251,
			"componentType":5126,
			"count":232,
			"type":"VEC4"
		},
		{
			"bufferView":252,
			"componentType":5123,
			"count":390,
			"type":"SCALAR"
		},
		{
			"bufferView":253,
			"componentType":5126,
			"count":391,
			"max":[
				-0.10766998678445816,
				0.12250635027885437,
				0.021125853061676025
			],
			"min":[
				-0.2661275565624237,
				-0.0010408124653622508,
				-0.021112384274601936
			],
			"type":"VEC3"
		},
		{
			"bufferView":254,
			"componentType":5126,
			"count":391,
			"type":"VEC3"
		},
		{
			"bufferView":255,
			"componentType":5126,
			"count":391,
			"type":"VEC2"
		},
		{
			"bufferView":256,
			"componentType":5126,
			"count":391,
			"type":"VEC4"
		},
		{
			"bufferView":257,
			"componentType":5121,
			"count":391,
			"type":"VEC4"
		},
		{
			"bufferView":258,
			"componentType":5126,
			"count":391,
			"type":"VEC4"
		},
		{
			"bufferView":259,
			"componentType":5123,
			"count":1158,
			"type":"SCALAR"
		},
		{
			"bufferView":260,
			"componentType":5126,
			"count":195,
			"max":[
				0.0623655840754509,
				0.05490121990442276,
				0.0035007987171411514
			],
			"min":[
				0.0506872683763504,
				0.024518074467778206,
				-0.0035057649947702885
			],
			"type":"VEC3"
		},
		{
			"bufferView":261,
			"componentType":5126,
			"count":195,
			"type":"VEC3"
		},
		{
			"bufferView":262,
			"componentType":5126,
			"count":195,
			"type":"VEC2"
		},
		{
			"bufferView":263,
			"componentType":5126,
			"count":195,
			"type":"VEC4"
		},
		{
			"bufferView":264,
			"componentType":5121,
			"count":195,
			"type":"VEC4"
		},
		{
			"bufferView":265,
			"componentType":5126,
			"count":195,
			"type":"VEC4"
		},
		{
			"bufferView":266,
			"componentType":5123,
			"count":504,
			"type":"SCALAR"
		},
		{
			"bufferView":267,
			"componentType":5126,
			"count":1359,
			"max":[
				0.19685719907283783,
				0.12161368876695633,
				0.022179273888468742
			],
			"min":[
				0.021857306361198425,
				0.07279668748378754,
				-0.014918836764991283
			],
			"type":"VEC3"
		},
		{
			"bufferView":268,
			"componentType":5126,
			"count":1359,
			"type":"VEC3"
		},
		{
			"bufferView":269,
			"componentType":5126,
			"count":1359,
			"type":"VEC2"
		},
		{
			"bufferView":270,
			"componentType":5126,
			"count":1359,
			"type":"VEC4"
		},
		{
			"bufferView":271,
			"componentType":5121,
			"count":1359,
			"type":"VEC4"
		},
		{
			"bufferView":272,
			"componentType":5126,
			"count":1359,
			"type":"VEC4"
		},
		{
			"bufferView":273,
			"componentType":5123,
			"count":3084,
			"type":"SCALAR"
		}
	],
	"bufferViews":[
		{
			"buffer":0,
			"byteLength":3660,
			"byteOffset":0,
			"target":34962
		},
		{
			"buffer":0,
			"byteLength":3660,
			"byteOffset":3660,
			"target":34962
		},
		{
			"buffer":0,
			"byteLength":2440,
			"byteOffset":7320,
			"target":34962
		},
		{
			"buffer":0,
			"byteLength":4880,
			"byteOffset":9760,
			"target":34962
		},
		{
			"buffer":0,
			"byteLength":1220,
			"byteOffset":14640,
			"target":34962
		},
		{
			"buffer":0,
			"byteLength":4880,
			"byteOffset":15860,
			"target":34962
		},
		{
			"buffer":0,
			"byteLength":1764,
			"byteOffset":20740,
			"target":34963
		},
		{
			"buffer":0,
			"byteLength":1088,
			"byteOffset":22504
		},
		{
			"buffer":0,
			"byteLength":4524,
			"byteOffset":23592,
			"target":34962
		},
		{
			"buffer":0,
			"byteLength":4524,
			"byteOffset":28116,
			"target":34962
		},
		{
			"buffer":0,
			"byteLength":3016,
			"byteOffset":32640,
			"target":34962
		},
		{
			"buffer":0,
			"byteLength":6032,
			"byteOffset":35656,
			"target":34962
		},
		{
			"buffer":0,
			"byteLength":1508,
			"byteOffset":41688,
			"target":34962
		},
		{
			"buffer":0,
			"byteLength":6032,
			"byteOffset":43196,
			"target":34962
		},
		{
			"buffer":0,
			"byteLength":1776,
			"byteOffset":49228,
			"target":34963
		},
		{
			"buffer":0,
			"byteLength":5724,
			"byteOffset":51004,
			"target":34962
		},
		{
			"buffer":0,
			"byteLength":5724,
			"byteOffset":56728,
			"target":34962
		},
		{
			"buffer":0,
			"byteLength":3816,
			"byteOffset":62452,
			"target":34962
		},
		{
			"buffer":0,
			"byteLength":7632,
			"byteOffset":66268,
			"target":34962
		},
		{
			"buffer":0,
			"byteLength":1908,
			"byteOffset":73900,
			"target":34962
		},
		{
			"buffer":0,
			"byteLength":7632,
			"byteOffset":75808,
			"target":34962
		},
		{
			"buffer":0,
			"byteLength":1908,
			"byteOffset":83440,
			"target":34963
		},
		{
			"buffer":0,
			"byteLength":3348,
			"byteOffset":85348,
			"target":34962
		},
		{
			"buffer":0,
			"byteLength":3348,
			"byteOffset":88696,
			"target":34962
		},
		{
			"buffer":0,
			"byteLength":2232,
			"byteOffset":92044,
			"target":34962
		},
		{
			"buffer":0,
			"byteLength":4464,
			"byteOffset":94276,
			"target":34962
		},
		{
			"buffer":0,
			"byteLength":1116,
			"byteOffset":98740,
			"target":34962
		},
		{
			"buffer":0,
			"byteLength":4464,
			"byteOffset":99856,
			"target":34962
		},
		{
			"buffer":0,
			"byteLength":1008,
			"byteOffset":104320,
			"target":34963
		},
		{
			"buffer":0,
			"byteLength":8052,
			"byteOffset":105328,
			"target":34962
		},
		{
			"buffer":0,
			"byteLength":8052,
			"byteOffset":113380,
			"target":34962
		},
		{
			"buffer":0,
			"byteLength":5368,
			"byteOffset":121432,
			"target":34962
		},
		{
			"buffer":0,
			"byteLength":10736,
			"byteOffset":126800,
			"target":34962
		},
		{
			"buffer":0,
			"byteLength":2684,
			"byteOffset":137536,
			"target":34962
		},
		{
			"buffer":0,
			"byteLength":10736,
			"byteOffset":140220,
			"target":34962
		},
		{
			"buffer":0,
			"byteLength":3336,
			"byteOffset":150956,
			"target":34963
		},
		{
			"buffer":0,
			"byteLength":1284,
			"byteOffset":154292,
			"target":34962
		},
		{
			"buffer":0,
			"byteLength":1284,
			"byteOffset":155576,
			"target":34962
		},
		{
			"buffer":0,
			"byteLength":856,
			"byteOffset":156860,
			"target":34962
		},
		{
			"buffer":0,
			"byteLength":1712,
			"byteOffset":157716,
			"target":34962
		},
		{
			"buffer":0,
			"byteLength":428,
			"byteOffset":159428,
			"target":34962
		},
		{
			"buffer":0,
			"byteLength":1712,
			"byteOffset":159856,
			"target":34962
		},
		{
			"buffer":0,
			"byteLength":696,
			"byteOffset":161568,
			"target":34963
		},
		{
			"buffer":0,
			"byteLength":3168,
			"byteOffset":162264,
			"target":34962
		},
		{
			"buffer":0,
			"byteLength":3168,
			"byteOffset":165432,
			"target":34962
		},
		{
			"buffer":0,
			"byteLength":2112,
			"byteOffset":168600,
			"target":34962
		},
		{
			"buffer":0,
			"byteLength":4224,
			"byteOffset":170712,
			"target":34962
		},
		{
			"buffer":0,
			"byteLength":1056,
			"byteOffset":174936,
			"target":34962
		},
		{
			"buffer":0,
			"byteLength":4224,
			"byteOffset":175992,
			"target":34962
		},
		{
			"buffer":0,
			"byteLength":1440,
			"byteOffset":180216,
			"target":34963
		},
		{
			"buffer":0,
			"byteLength":5016,
			"byteOffset":181656,
			"target":34962
		},
		{
			"buffer":0,
			"byteLength":5016,
			"byteOffset":186672,
			"target":34962
		},
		{
			"buffer":0,
			"byteLength":3344,
			"byteOffset":191688,
			"target":34962
		},
		{
			"buffer":0,
			"byteLength":6688,
			"byteOffset":195032,
			"target":34962
		},
		{
			"buffer":0,
			"byteLength":1672,
			"byteOffset":201720,
			"target":34962
		},
		{
			"buffer":0,
			"byteLength":6688,
			"byteOffset":203392,
			"target":34962
		},
		{
			"buffer":0,
			"byteLength":1968,
			"byteOffset":210080,
			"target":34963
		},
		{
			"buffer":0,
			"byteLength":1416,
			"byteOffset":212048,
			"target":34962
		},
		{
			"buffer":0,
			"byteLength":1416,
			"byteOffset":213464,
			"target":34962
		},
		{
			"buffer":0,
			"byteLength":944,
			"byteOffset":214880,
			"target":34962
		},
		{
			"buffer":0,
			"byteLength":1888,
			"byteOffset":215824,
			"target":34962
		},
		{
			"buffer":0,
			"byteLength":472,
			"byteOffset":217712,
			"target":34962
		},
		{
			"buffer":0,
			"byteLength":1888,
			"byteOffset":218184,
			"target":34962
		},
		{
			"buffer":0,
			"byteLength":516,
			"byteOffset":220072,
			"target":34963
		},
		{
			"buffer":0,
			"byteLength":288,
			"byteOffset":220588,
			"target":34962
		},
		{
			"buffer":0,
			"byteLength":288,
			"byteOffset":220876,
			"target":34962
		},
		{
			"buffer":0,
			"byteLength":192,
			"byteOffset":221164,
			"target":34962
		},
		{
			"buffer":0,
			"byteLength":384,
			"byteOffset":221356,
			"target":34962
		},
		{
			"buffer":0,
			"byteLength":96,
			"byteOffset":221740,
			"target":34962
		},
		{
			"buffer":0,
			"byteLength":384,
			"byteOffset":221836,
			"target":34962
		},
		{
			"buffer":0,
			"byteLength":72,
			"byteOffset":222220,
			"target":34963
		},
		{
			"buffer":0,
			"byteLength":2952,
			"byteOffset":222292,
			"target":34962
		},
		{
			"buffer":0,
			"byteLength":2952,
			"byteOffset":225244,
			"target":34962
		},
		{
			"buffer":0,
			"byteLength":1968,
			"byteOffset":228196,
			"target":34962
		},
		{
			"buffer":0,
			"byteLength":3936,
			"byteOffset":230164,
			"target":34962
		},
		{
			"buffer":0,
			"byteLength":984,
			"byteOffset":234100,
			"target":34962
		},
		{
			"buffer":0,
			"byteLength":3936,
			"byteOffset":235084,
			"target":34962
		},
		{
			"buffer":0,
			"byteLength":1296,
			"byteOffset":239020,
			"target":34963
		},
		{
			"buffer":0,
			"byteLength":2148,
			"byteOffset":240316,
			"target":34962
		},
		{
			"buffer":0,
			"byteLength":2148,
			"byteOffset":242464,
			"target":34962
		},
		{
			"buffer":0,
			"byteLength":1432,
			"byteOffset":244612,
			"target":34962
		},
		{
			"buffer":0,
			"byteLength":2864,
			"byteOffset":246044,
			"target":34962
		},
		{
			"buffer":0,
			"byteLength":716,
			"byteOffset":248908,
			"target":34962
		},
		{
			"buffer":0,
			"byteLength":2864,
			"byteOffset":249624,
			"target":34962
		},
		{
			"buffer":0,
			"byteLength":708,
			"byteOffset":252488,
			"target":34963
		},
		{
			"buffer":0,
			"byteLength":5220,
			"byteOffset":253196,
			"target":34962
		},
		{
			"buffer":0,
			"byteLength":5220,
			"byteOffset":258416,
			"target":34962
		},
		{
			"buffer":0,
			"byteLength":3480,
			"byteOffset":263636,
			"target":34962
		},
		{
			"buffer":0,
			"byteLength":6960,
			"byteOffset":267116,
			"target":34962
		},
		{
			"buffer":0,
			"byteLength":1740,
			"byteOffset":274076,
			"target":34962
		},
		{
			"buffer":0,
			"byteLength":6960,
			"byteOffset":275816,
			"target":34962
		},
		{
			"buffer":0,
			"byteLength":2196,
			"byteOffset":282776,
			"target":34963
		},
		{
			"buffer":0,
			"byteLength":960,
			"byteOffset":284972,
			"target":34962
		},
		{
			"buffer":0,
			"byteLength":960,
			"byteOffset":285932,
			"target":34962
		},
		{
			"buffer":0,
			"byteLength":640,
			"byteOffset":286892,
			"target":34962
		},
		{
			"buffer":0,
			"byteLength":1280,
			"byteOffset":287532,
			"target":34962
		},
		{
			"buffer":0,
			"byteLength":320,
			"byteOffset":288812,
			"target":34962
		},
		{
			"buffer":0,
			"byteLength":1280,
			"byteOffset":289132,
			"target":34962
		},
		{
			"buffer":0,
			"byteLength":300,
			"byteOffset":290412,
			"target":34963
		},
		{
			"buffer":0,
			"byteLength":3636,
			"byteOffset":290712,
			"target":34962
		},
		{
			"buffer":0,
			"byteLength":3636,
			"byteOffset":294348,
			"target":34962
		},
		{
			"buffer":0,
			"byteLength":2424,
			"byteOffset":297984,
			"target":34962
		},
		{
			"buffer":0,
			"byteLength":4848,
			"byteOffset":300408,
			"target":34962
		},
		{
			"buffer":0,
			"byteLength":1212,
			"byteOffset":305256,
			"target":34962
		},
		{
			"buffer":0,
			"byteLength":4848,
			"byteOffset":306468,
			"target":34962
		},
		{
			"buffer":0,
			"byteLength":1584,
			"byteOffset":311316,
			"target":34963
		},
		{
			"buffer":0,
			"byteLength":4248,
			"byteOffset":312900,
			"target":34962
		},
		{
			"buffer":0,
			"byteLength":4248,
			"byteOffset":317148,
			"target":34962
		},
		{
			"buffer":0,
			"byteLength":2832,
			"byteOffset":321396,
			"target":34962
		},
		{
			"buffer":0,
			"byteLength":5664,
			"byteOffset":324228,
			"target":34962
		},
		{
			"buffer":0,
			"byteLength":1416,
			"byteOffset":329892,
			"target":34962
		},
		{
			"buffer":0,
			"byteLength":5664,
			"byteOffset":331308,
			"target":34962
		},
		{
			"buffer":0,
			"byteLength":1884,
			"byteOffset":336972,
			"target":34963
		},
		{
			"buffer":0,
			"byteLength":288,
			"byteOffset":338856,
			"target":34962
		},
		{
			"buffer":0,
			"byteLength":288,
			"byteOffset":339144,
			"target":34962
		},
		{
			"buffer":0,
			"byteLength":192,
			"byteOffset":339432,
			"target":34962
		},
		{
			"buffer":0,
			"byteLength":384,
			"byteOffset":339624,
			"target":34962
		},
		{
			"buffer":0,
			"byteLength":96,
			"byteOffset":340008,
			"target":34962
		},
		{
			"buffer":0,
			"byteLength":384,
			"byteOffset":340104,
			"target":34962
		},
		{
			"buffer":0,
			"byteLength":72,
			"byteOffset":340488,
			"target":34963
		},
		{
			"buffer":0,
			"byteLength":27840,
			"byteOffset":340560,
			"target":34962
		},
		{
			"buffer":0,
			"byteLength":27840,
			"byteOffset":368400,
			"target":34962
		},
		{
			"buffer":0,
			"byteLength":18560,
			"byteOffset":396240,
			"target":34962
		},
		{
			"buffer":0,
			"byteLength":37120,
			"byteOffset":414800,
			"target":34962
		},
		{
			"buffer":0,
			"byteLength":9280,
			"byteOffset":451920,
			"target":34962
		},
		{
			"buffer":0,
			"byteLength":37120,
			"byteOffset":461200,
			"target":34962
		},
		{
			"buffer":0,
			"byteLength":9540,
			"byteOffset":498320,
			"target":34963
		},
		{
			"buffer":0,
			"byteLength":2688,
			"byteOffset":507860,
			"target":34962
		},
		{
			"buffer":0,
			"byteLength":2688,
			"byteOffset":510548,
			"target":34962
		},
		{
			"buffer":0,
			"byteLength":1792,
			"byteOffset":513236,
			"target":34962
		},
		{
			"buffer":0,
			"byteLength":3584,
			"byteOffset":515028,
			"target":34962
		},
		{
			"buffer":0,
			"byteLength":896,
			"byteOffset":518612,
			"target":34962
		},
		{
			"buffer":0,
			"byteLength":3584,
			"byteOffset":519508,
			"target":34962
		},
		{
			"buffer":0,
			"byteLength":912,
			"byteOffset":523092,
			"target":34963
		},
		{
			"buffer":0,
			"byteLength":19524,
			"byteOffset":524004,
			"target":34962
		},
		{
			"buffer":0,
			"byteLength":19524,
			"byteOffset":543528,
			"target":34962
		},
		{
			"buffer":0,
			"byteLength":13016,
			"byteOffset":563052,
			"target":34962
		},
		{
			"buffer":0,
			"byteLength":26032,
			"byteOffset":576068,
			"target":34962
		},
		{
			"buffer":0,
			"byteLength":6508,
			"byteOffset":602100,
			"target":34962
		},
		{
			"buffer":0,
			"byteLength":26032,
			"byteOffset":608608,
			"target":34962
		},
		{
			"buffer":0,
			"byteLength":7428,
			"byteOffset":634640,
			"target":34963
		},
		{
			"buffer":0,
			"byteLength":6936,
			"byteOffset":642068,
			"target":34962
		},
		{
			"buffer":0,
			"byteLength":6936,
			"byteOffset":649004,
			"target":34962
		},
		{
			"buffer":0,
			"byteLength":4624,
			"byteOffset":655940,
			"target":34962
		},
		{
			"buffer":0,
			"byteLength":9248,
			"byteOffset":660564,
			"target":34962
		},
		{
			"buffer":0,
			"byteLength":2312,
			"byteOffset":669812,
			"target":34962
		},
		{
			"buffer":0,
			"byteLength":9248,
			"byteOffset":672124,
			"target":34962
		},
		{
			"buffer":0,
			"byteLength":3588,
			"byteOffset":681372,
			"target":34963
		},
		{
			"buffer":0,
			"byteLength":516,
			"byteOffset":684960,
			"target":34962
		},
		{
			"buffer":0,
			"byteLength":516,
			"byteOffset":685476,
			"target":34962
		},
		{
			"buffer":0,
			"byteLength":344,
			"byteOffset":685992,
			"target":34962
		},
		{
			"buffer":0,
			"byteLength":688,
			"byteOffset":686336,
			"target":34962
		},
		{
			"buffer":0,
			"byteLength":172,
			"byteOffset":687024,
			"target":34962
		},
		{
			"buffer":0,
			"byteLength":688,
			"byteOffset":687196,
			"target":34962
		},
		{
			"buffer":0,
			"byteLength":168,
			"byteOffset":687884,
			"target":34963
		},
		{
			"buffer":0,
			"byteLength":3924,
			"byteOffset":688052,
			"target":34962
		},
		{
			"buffer":0,
			"byteLength":3924,
			"byteOffset":691976,
			"target":34962
		},
		{
			"buffer":0,
			"byteLength":2616,
			"byteOffset":695900,
			"target":34962
		},
		{
			"buffer":0,
			"byteLength":5232,
			"byteOffset":698516,
			"target":34962
		},
		{
			"buffer":0,
			"byteLength":1308,
			"byteOffset":703748,
			"target":34962
		},
		{
			"buffer":0,
			"byteLength":5232,
			"byteOffset":705056,
			"target":34962
		},
		{
			"buffer":0,
			"byteLength":1344,
			"byteOffset":710288,
			"target":34963
		},
		{
			"buffer":0,
			"byteLength":5340,
			"byteOffset":711632,
			"target":34962
		},
		{
			"buffer":0,
			"byteLength":5340,
			"byteOffset":716972,
			"target":34962
		},
		{
			"buffer":0,
			"byteLength":3560,
			"byteOffset":722312,
			"target":34962
		},
		{
			"buffer":0,
			"byteLength":7120,
			"byteOffset":725872,
			"target":34962
		},
		{
			"buffer":0,
			"byteLength":1780,
			"byteOffset":732992,
			"target":34962
		},
		{
			"buffer":0,
			"byteLength":7120,
			"byteOffset":734772,
			"target":34962
		},
		{
			"buffer":0,
			"byteLength":2316,
			"byteOffset":741892,
			"target":34963
		},
		{
			"buffer":0,
			"byteLength":27348,
			"byteOffset":744208,
			"target":34962
		},
		{
			"buffer":0,
			"byteLength":27348,
			"byteOffset":771556,
			"target":34962
		},
		{
			"buffer":0,
			"byteLength":18232,
			"byteOffset":798904,
			"target":34962
		},
		{
			"buffer":0,
			"byteLength":36464,
			"byteOffset":817136,
			"target":34962
		},
		{
			"buffer":0,
			"byteLength":9116,
			"byteOffset":853600,
			"target":34962
		},
		{
			"buffer":0,
			"byteLength":36464,
			"byteOffset":862716,
			"target":34962
		},
		{
			"buffer":0,
			"byteLength":10380,
			"byteOffset":899180,
			"target":34963
		},
		{
			"buffer":0,
			"byteLength":984,
			"byteOffset":909560,
			"target":34962
		},
		{
			"buffer":0,
			"byteLength":984,
			"byteOffset":910544,
			"target":34962
		},
		{
			"buffer":0,
			"byteLength":656,
			"byteOffset":911528,
			"target":34962
		},
		{
			"buffer":0,
			"byteLength":1312,
			"byteOffset":912184,
			"target":34962
		},
		{
			"buffer":0,
			"byteLength":328,
			"byteOffset":913496,
			"target":34962
		},
		{
			"buffer":0,
			"byteLength":1312,
			"byteOffset":913824,
			"target":34962
		},
		{
			"buffer":0,
			"byteLength":300,
			"byteOffset":915136,
			"target":34963
		},
		{
			"buffer":0,
			"byteLength":1080,
			"byteOffset":915436,
			"target":34962
		},
		{
			"buffer":0,
			"byteLength":1080,
			"byteOffset":916516,
			"target":34962
		},
		{
			"buffer":0,
			"byteLength":720,
			"byteOffset":917596,
			"target":34962
		},
		{
			"buffer":0,
			"byteLength":1440,
			"byteOffset":918316,
			"target":34962
		},
		{
			"buffer":0,
			"byteLength":360,
			"byteOffset":919756,
			"target":34962
		},
		{
			"buffer":0,
			"byteLength":1440,
			"byteOffset":920116,
			"target":34962
		},
		{
			"buffer":0,
			"byteLength":456,
			"byteOffset":921556,
			"target":34963
		},
		{
			"buffer":0,
			"byteLength":1056,
			"byteOffset":922012,
			"target":34962
		},
		{
			"buffer":0,
			"byteLength":1056,
			"byteOffset":923068,
			"target":34962
		},
		{
			"buffer":0,
			"byteLength":704,
			"byteOffset":924124,
			"target":34962
		},
		{
			"buffer":0,
			"byteLength":1408,
			"byteOffset":924828,
			"target":34962
		},
		{
			"buffer":0,
			"byteLength":352,
			"byteOffset":926236,
			"target":34962
		},
		{
			"buffer":0,
			"byteLength":1408,
			"byteOffset":926588,
			"target":34962
		},
		{
			"buffer":0,
			"byteLength":456,
			"byteOffset":927996,
			"target":34963
		},
		{
			"buffer":0,
			"byteLength":72,
			"byteOffset":928452,
			"target":34962
		},
		{
			"buffer":0,
			"byteLength":72,
			"byteOffset":928524,
			"target":34962
		},
		{
			"buffer":0,
			"byteLength":48,
			"byteOffset":928596,
			"target":34962
		},
		{
			"buffer":0,
			"byteLength":96,
			"byteOffset":928644,
			"target":34962
		},
		{
			"buffer":0,
			"byteLength":24,
			"byteOffset":928740,
			"target":34962
		},
		{
			"buffer":0,
			"byteLength":96,
			"byteOffset":928764,
			"target":34962
		},
		{
			"buffer":0,
			"byteLength":24,
			"byteOffset":928860,
			"target":34963
		},
		{
			"buffer":0,
			"byteLength":240,
			"byteOffset":928884,
			"target":34962
		},
		{
			"buffer":0,
			"byteLength":240,
			"byteOffset":929124,
			"target":34962
		},
		{
			"buffer":0,
			"byteLength":160,
			"byteOffset":929364,
			"target":34962
		},
		{
			"buffer":0,
			"byteLength":320,
			"byteOffset":929524,
			"target":34962
		},
		{
			"buffer":0,
			"byteLength":80,
			"byteOffset":929844,
			"target":34962
		},
		{
			"buffer":0,
			"byteLength":320,
			"byteOffset":929924,
			"target":34962
		},
		{
			"buffer":0,
			"byteLength":48,
			"byteOffset":930244,
			"target":34963
		},
		{
			"buffer":0,
			"byteLength":2664,
			"byteOffset":930292,
			"target":34962
		},
		{
			"buffer":0,
			"byteLength":2664,
			"byteOffset":932956,
			"target":34962
		},
		{
			"buffer":0,
			"byteLength":1776,
			"byteOffset":935620,
			"target":34962
		},
		{
			"buffer":0,
			"byteLength":3552,
			"byteOffset":937396,
			"target":34962
		},
		{
			"buffer":0,
			"byteLength":888,
			"byteOffset":940948,
			"target":34962
		},
		{
			"buffer":0,
			"byteLength":3552,
			"byteOffset":941836,
			"target":34962
		},
		{
			"buffer":0,
			"byteLength":912,
			"byteOffset":945388,
			"target":34963
		},
		{
			"buffer":0,
			"byteLength":3588,
			"byteOffset":946300,
			"target":34962
		},
		{
			"buffer":0,
			"byteLength":3588,
			"byteOffset":949888,
			"target":34962
		},
		{
			"buffer":0,
			"byteLength":2392,
			"byteOffset":953476,
			"target":34962
		},
		{
			"buffer":0,
			"byteLength":4784,
			"byteOffset":955868,
			"target":34962
		},
		{
			"buffer":0,
			"byteLength":1196,
			"byteOffset":960652,
			"target":34962
		},
		{
			"buffer":0,
			"byteLength":4784,
			"byteOffset":961848,
			"target":34962
		},
		{
			"buffer":0,
			"byteLength":2496,
			"byteOffset":966632,
			"target":34963
		},
		{
			"buffer":0,
			"byteLength":6360,
			"byteOffset":969128,
			"target":34962
		},
		{
			"buffer":0,
			"byteLength":6360,
			"byteOffset":975488,
			"target":34962
		},
		{
			"buffer":0,
			"byteLength":4240,
			"byteOffset":981848,
			"target":34962
		},
		{
			"buffer":0,
			"byteLength":8480,
			"byteOffset":986088,
			"target":34962
		},
		{
			"buffer":0,
			"byteLength":2120,
			"byteOffset":994568,
			"target":34962
		},
		{
			"buffer":0,
			"byteLength":8480,
			"byteOffset":996688,
			"target":34962
		},
		{
			"buffer":0,
			"byteLength":2808,
			"byteOffset":1005168,
			"target":34963
		},
		{
			"buffer":0,
			"byteLength":1056,
			"byteOffset":1007976,
			"target":34962
		},
		{
			"buffer":0,
			"byteLength":1056,
			"byteOffset":1009032,
			"target":34962
		},
		{
			"buffer":0,
			"byteLength":704,
			"byteOffset":1010088,
			"target":34962
		},
		{
			"buffer":0,
			"byteLength":1408,
			"byteOffset":1010792,
			"target":34962
		},
		{
			"buffer":0,
			"byteLength":352,
			"byteOffset":1012200,
			"target":34962
		},
		{
			"buffer":0,
			"byteLength":1408,
			"byteOffset":1012552,
			"target":34962
		},
		{
			"buffer":0,
			"byteLength":300,
			"byteOffset":1013960,
			"target":34963
		},
		{
			"buffer":0,
			"byteLength":6912,
			"byteOffset":1014260,
			"target":34962
		},
		{
			"buffer":0,
			"byteLength":6912,
			"byteOffset":1021172,
			"target":34962
		},
		{
			"buffer":0,
			"byteLength":4608,
			"byteOffset":1028084,
			"target":34962
		},
		{
			"buffer":0,
			"byteLength":9216,
			"byteOffset":1032692,
			"target":34962
		},
		{
			"buffer":0,
			"byteLength":2304,
			"byteOffset":1041908,
			"target":34962
		},
		{
			"buffer":0,
			"byteLength":9216,
			"byteOffset":1044212,
			"target":34962
		},
		{
			"buffer":0,
			"byteLength":2640,
			"byteOffset":1053428,
			"target":34963
		},
		{
			"buffer":0,
			"byteLength":2784,
			"byteOffset":1056068,
			"target":34962
		},
		{
			"buffer":0,
			"byteLength":2784,
			"byteOffset":1058852,
			"target":34962
		},
		{
			"buffer":0,
			"byteLength":1856,
			"byteOffset":1061636,
			"target":34962
		},
		{
			"buffer":0,
			"byteLength":3712,
			"byteOffset":1063492,
			"target":34962
		},
		{
			"buffer":0,
			"byteLength":928,
			"byteOffset":1067204,
			"target":34962
		},
		{
			"buffer":0,
			"byteLength":3712,
			"byteOffset":1068132,
			"target":34962
		},
		{
			"buffer":0,
			"byteLength":780,
			"byteOffset":1071844,
			"target":34963
		},
		{
			"buffer":0,
			"byteLength":4692,
			"byteOffset":1072624,
			"target":34962
		},
		{
			"buffer":0,
			"byteLength":4692,
			"byteOffset":1077316,
			"target":34962
		},
		{
			"buffer":0,
			"byteLength":3128,
			"byteOffset":1082008,
			"target":34962
		},
		{
			"buffer":0,
			"byteLength":6256,
			"byteOffset":1085136,
			"target":34962
		},
		{
			"buffer":0,
			"byteLength":1564,
			"byteOffset":1091392,
			"target":34962
		},
		{
			"buffer":0,
			"byteLength":6256,
			"byteOffset":1092956,
			"target":34962
		},
		{
			"buffer":0,
			"byteLength":2316,
			"byteOffset":1099212,
			"target":34963
		},
		{
			"buffer":0,
			"byteLength":2340,
			"byteOffset":1101528,
			"target":34962
		},
		{
			"buffer":0,
			"byteLength":2340,
			"byteOffset":1103868,
			"target":34962
		},
		{
			"buffer":0,
			"byteLength":1560,
			"byteOffset":1106208,
			"target":34962
		},
		{
			"buffer":0,
			"byteLength":3120,
			"byteOffset":1107768,
			"target":34962
		},
		{
			"buffer":0,
			"byteLength":780,
			"byteOffset":1110888,
			"target":34962
		},
		{
			"buffer":0,
			"byteLength":3120,
			"byteOffset":1111668,
			"target":34962
		},
		{
			"buffer":0,
			"byteLength":1008,
			"byteOffset":1114788,
			"target":34963
		},
		{
			"buffer":0,
			"byteLength":16308,
			"byteOffset":1115796,
			"target":34962
		},
		{
			"buffer":0,
			"byteLength":16308,
			"byteOffset":1132104,
			"target":34962
		},
		{
			"buffer":0,
			"byteLength":10872,
			"byteOffset":1148412,
			"target":34962
		},
		{
			"buffer":0,
			"byteLength":21744,
			"byteOffset":1159284,
			"target":34962
		},
		{
			"buffer":0,
			"byteLength":5436,
			"byteOffset":1181028,
			"target":34962
		},
		{
			"buffer":0,
			"byteLength":21744,
			"byteOffset":1186464,
			"target":34962
		},
		{
			"buffer":0,
			"byteLength":6168,
			"byteOffset":1208208,
			"target":34963
		}
	],
	"samplers":[
		{
			"magFilter":9729,
			"minFilter":9987
		}
	],
	"buffers":[
		{
			"byteLength":1214376,
			"uri":"IV7_Carbine_LOD2.bin"
		}
	]
}
