{
	"asset":{
		"generator":"Khronos glTF Blender I/O v4.5.51",
		"version":"2.0"
	},
	"extensionsUsed":[
		"KHR_materials_emissive_strength",
		"KHR_materials_specular",
		"KHR_materials_ior"
	],
	"scene":0,
	"scenes":[
		{
			"name":"Scene",
			"nodes":[
				55
			]
		}
	],
	"nodes":[
		{
			"name":"magazine",
			"translation":[
				0.10385730117559433,
				0,
				0.04912326857447624
			]
		},
		{
			"name":"charging_handle",
			"translation":[
				0.012357300147414207,
				0,
				0.11122327297925949
			]
		},
		{
			"name":"bolt_carrier",
			"translation":[
				0.08685729652643204,
				0,
				0.09172327071428299
			]
		},
		{
			"name":"dust_cover",
			"translation":[
				0.11535730212926865,
				-0.017999999225139618,
				0.07822327315807343
			]
		},
		{
			"name":"trigger",
			"translation":[
				0.054857298731803894,
				0,
				0.05072326958179474
			]
		},
		{
			"name":"selector",
			"translation":[
				0.04085730016231537,
				0,
				0.058723270893096924
			]
		},
		{
			"name":"bolt_catch",
			"translation":[
				0.07185730338096619,
				0.013000000268220901,
				0.06722327321767807
			]
		},
		{
			"name":"mag_release",
			"translation":[
				0.10385730117559433,
				-0.016499999910593033,
				0.04912326857447624
			]
		},
		{
			"name":"rear_sight",
			"translation":[
				0.08385729789733887,
				0,
				0.13692326843738556
			]
		},
		{
			"name":"front_sight",
			"translation":[
				0.5008572936058044,
				0,
				0.13692326843738556
			]
		},
		{
			"name":"socket_muzzle",
			"translation":[
				0.5758572816848755,
				0,
				0.09172327071428299
			]
		},
		{
			"name":"socket_ads",
			"translation":[
				0.017857300117611885,
				0,
				0.1617232710123062
			]
		},
		{
			"name":"socket_support_hand",
			"translation":[
				0.33685728907585144,
				0,
				0.06472326815128326
			]
		},
		{
			"name":"socket_firing_hand"
		},
		{
			"name":"socket_eject",
			"translation":[
				0.11535730212926865,
				-0.015000000596046448,
				0.09172327071428299
			]
		},
		{
			"name":"socket_mag",
			"translation":[
				0.12535730004310608,
				0,
				0.0037232704926282167
			]
		},
		{
			"children":[
				0,
				1,
				2,
				3,
				4,
				5,
				6,
				7,
				8,
				9,
				10,
				11,
				12,
				13,
				14,
				15
			],
			"name":"root",
			"rotation":[
				-0.7071067690849304,
				0,
				0,
				0.7071067690849304
			]
		},
		{
			"mesh":0,
			"name":"Barrel_LOD1",
			"skin":0
		},
		{
			"mesh":1,
			"name":"BarrelNut_LOD1",
			"skin":0
		},
		{
			"mesh":2,
			"name":"BoltCarrier_LOD1",
			"skin":0
		},
		{
			"mesh":3,
			"name":"BoltCatch_LOD1",
			"skin":0
		},
		{
			"mesh":4,
			"name":"BufferTube_LOD1",
			"skin":0
		},
		{
			"mesh":5,
			"name":"ButtPad_LOD1",
			"skin":0
		},
		{
			"mesh":6,
			"name":"CastleNut_LOD1",
			"skin":0
		},
		{
			"mesh":7,
			"name":"ChargingHandle_LOD1",
			"skin":0
		},
		{
			"mesh":8,
			"name":"DustCover_LOD1",
			"skin":0
		},
		{
			"mesh":9,
			"name":"DustCoverRod_LOD1",
			"skin":0
		},
		{
			"mesh":10,
			"name":"EndPlate_LOD1",
			"skin":0
		},
		{
			"mesh":11,
			"name":"ForwardAssist_LOD1",
			"skin":0
		},
		{
			"mesh":12,
			"name":"FrontSightBase_LOD1",
			"skin":0
		},
		{
			"mesh":13,
			"name":"FrontSightBolt_LOD1",
			"skin":0
		},
		{
			"mesh":14,
			"name":"FrontSightLeaf_LOD1",
			"skin":0
		},
		{
			"mesh":15,
			"name":"GasBlock_LOD1",
			"skin":0
		},
		{
			"mesh":16,
			"name":"GasTube_LOD1",
			"skin":0
		},
		{
			"mesh":17,
			"name":"Handguard_LOD1",
			"skin":0
		},
		{
			"mesh":18,
			"name":"HandguardScrews_LOD1",
			"skin":0
		},
		{
			"mesh":19,
			"name":"LowerReceiver_LOD1",
			"skin":0
		},
		{
			"mesh":20,
			"name":"Magazine_LOD1",
			"skin":0
		},
		{
			"mesh":21,
			"name":"MagRelease_LOD1",
			"skin":0
		},
		{
			"mesh":22,
			"name":"MagRounds_LOD1",
			"skin":0
		},
		{
			"mesh":23,
			"name":"MuzzleDevice_LOD1",
			"skin":0
		},
		{
			"mesh":24,
			"name":"Optic_LOD1",
			"skin":0
		},
		{
			"mesh":25,
			"name":"OpticBolt_LOD1",
			"skin":0
		},
		{
			"mesh":26,
			"name":"OpticLensFront_LOD1",
			"skin":0
		},
		{
			"mesh":27,
			"name":"OpticLensRear_LOD1",
			"skin":0
		},
		{
			"mesh":28,
			"name":"OpticReticle_LOD1",
			"skin":0
		},
		{
			"mesh":29,
			"name":"Pins_LOD1",
			"skin":0
		},
		{
			"mesh":30,
			"name":"PistolGrip_LOD1",
			"skin":0
		},
		{
			"mesh":31,
			"name":"RearSightBase_LOD1",
			"skin":0
		},
		{
			"mesh":32,
			"name":"RearSightBolt_LOD1",
			"skin":0
		},
		{
			"mesh":33,
			"name":"RearSightLeaf_LOD1",
			"skin":0
		},
		{
			"mesh":34,
			"name":"Selector_LOD1",
			"skin":0
		},
		{
			"mesh":35,
			"name":"Stock_LOD1",
			"skin":0
		},
		{
			"mesh":36,
			"name":"Trigger_LOD1",
			"skin":0
		},
		{
			"mesh":37,
			"name":"UpperReceiver_LOD1",
			"skin":0
		},
		{
			"children":[
				17,
				18,
				19,
				20,
				21,
				22,
				23,
				24,
				25,
				26,
				27,
				28,
				29,
				30,
				31,
				32,
				33,
				34,
				35,
				36,
				37,
				38,
				39,
				40,
				41,
				42,
				43,
				44,
				45,
				46,
				47,
				48,
				49,
				50,
				51,
				52,
				53,
				54,
				16
			],
			"name":"SK_IV7"
		}
	],
	"materials":[
		{
			"doubleSided":true,
			"name":"M_IV7_Body",
			"normalTexture":{
				"index":0
			},
			"occlusionTexture":{
				"index":1
			},
			"pbrMetallicRoughness":{
				"baseColorTexture":{
					"index":2
				},
				"metallicRoughnessTexture":{
					"index":1
				}
			}
		},
		{
			"doubleSided":true,
			"name":"M_IV7_Furniture",
			"normalTexture":{
				"index":3
			},
			"occlusionTexture":{
				"index":4
			},
			"pbrMetallicRoughness":{
				"baseColorTexture":{
					"index":5
				},
				"metallicRoughnessTexture":{
					"index":4
				}
			}
		},
		{
			"alphaMode":"BLEND",
			"doubleSided":true,
			"extensions":{
				"KHR_materials_specular":{
					"specularColorFactor":[
						0.7700000035762784,
						1.0919999413490302,
						1.399999976158142
					]
				},
				"KHR_materials_ior":{
					"ior":1.5199999809265137
				}
			},
			"name":"M_IV7_Glass",
			"pbrMetallicRoughness":{
				"baseColorFactor":[
					0.024000000208616257,
					0.029999999329447746,
					0.035999998450279236,
					0.05000000074505806
				],
				"metallicFactor":0,
				"roughnessFactor":0.029999999329447746
			}
		},
		{
			"doubleSided":true,
			"emissiveFactor":[
				1,
				0.019999999552965164,
				0.009999999776482582
			],
			"extensions":{
				"KHR_materials_emissive_strength":{
					"emissiveStrength":8
				}
			},
			"name":"M_IV7_Reticle",
			"pbrMetallicRoughness":{
				"baseColorFactor":[
					1,
					0.019999999552965164,
					0.009999999776482582,
					1
				],
				"metallicFactor":0,
				"roughnessFactor":0.4000000059604645
			}
		},
		{
			"doubleSided":true,
			"name":"M_IV7_ReticleMask",
			"pbrMetallicRoughness":{
				"baseColorFactor":[
					0.009999999776482582,
					0.009999999776482582,
					0.009999999776482582,
					1
				],
				"metallicFactor":0,
				"roughnessFactor":0.5
			}
		}
	],
	"meshes":[
		{
			"name":"Barrel.003",
			"primitives":[
				{
					"attributes":{
						"POSITION":0,
						"NORMAL":1,
						"TEXCOORD_0":2,
						"TANGENT":3,
						"JOINTS_0":4,
						"WEIGHTS_0":5
					},
					"indices":6,
					"material":0
				}
			]
		},
		{
			"name":"BarrelNut.003",
			"primitives":[
				{
					"attributes":{
						"POSITION":8,
						"NORMAL":9,
						"TEXCOORD_0":10,
						"TANGENT":11,
						"JOINTS_0":12,
						"WEIGHTS_0":13
					},
					"indices":14,
					"material":0
				}
			]
		},
		{
			"name":"BoltCarrier.002",
			"primitives":[
				{
					"attributes":{
						"POSITION":15,
						"NORMAL":16,
						"TEXCOORD_0":17,
						"TANGENT":18,
						"JOINTS_0":19,
						"WEIGHTS_0":20
					},
					"indices":21,
					"material":0
				}
			]
		},
		{
			"name":"BoltCatch.002",
			"primitives":[
				{
					"attributes":{
						"POSITION":22,
						"NORMAL":23,
						"TEXCOORD_0":24,
						"TANGENT":25,
						"JOINTS_0":26,
						"WEIGHTS_0":27
					},
					"indices":28,
					"material":0
				}
			]
		},
		{
			"name":"BufferTube.003",
			"primitives":[
				{
					"attributes":{
						"POSITION":29,
						"NORMAL":30,
						"TEXCOORD_0":31,
						"TANGENT":32,
						"JOINTS_0":33,
						"WEIGHTS_0":34
					},
					"indices":35,
					"material":0
				}
			]
		},
		{
			"name":"ButtPad.003",
			"primitives":[
				{
					"attributes":{
						"POSITION":36,
						"NORMAL":37,
						"TEXCOORD_0":38,
						"TANGENT":39,
						"JOINTS_0":40,
						"WEIGHTS_0":41
					},
					"indices":42,
					"material":1
				}
			]
		},
		{
			"name":"CastleNut.003",
			"primitives":[
				{
					"attributes":{
						"POSITION":43,
						"NORMAL":44,
						"TEXCOORD_0":45,
						"TANGENT":46,
						"JOINTS_0":47,
						"WEIGHTS_0":48
					},
					"indices":49,
					"material":0
				}
			]
		},
		{
			"name":"ChargingHandle.002",
			"primitives":[
				{
					"attributes":{
						"POSITION":50,
						"NORMAL":51,
						"TEXCOORD_0":52,
						"TANGENT":53,
						"JOINTS_0":54,
						"WEIGHTS_0":55
					},
					"indices":56,
					"material":0
				}
			]
		},
		{
			"name":"DustCover.003",
			"primitives":[
				{
					"attributes":{
						"POSITION":57,
						"NORMAL":58,
						"TEXCOORD_0":59,
						"TANGENT":60,
						"JOINTS_0":61,
						"WEIGHTS_0":62
					},
					"indices":63,
					"material":0
				}
			]
		},
		{
			"name":"DustCoverRod.003",
			"primitives":[
				{
					"attributes":{
						"POSITION":64,
						"NORMAL":65,
						"TEXCOORD_0":66,
						"TANGENT":67,
						"JOINTS_0":68,
						"WEIGHTS_0":69
					},
					"indices":70,
					"material":0
				}
			]
		},
		{
			"name":"EndPlate.003",
			"primitives":[
				{
					"attributes":{
						"POSITION":71,
						"NORMAL":72,
						"TEXCOORD_0":73,
						"TANGENT":74,
						"JOINTS_0":75,
						"WEIGHTS_0":76
					},
					"indices":77,
					"material":0
				}
			]
		},
		{
			"name":"ForwardAssist.002",
			"primitives":[
				{
					"attributes":{
						"POSITION":78,
						"NORMAL":79,
						"TEXCOORD_0":80,
						"TANGENT":81,
						"JOINTS_0":82,
						"WEIGHTS_0":83
					},
					"indices":84,
					"material":0
				}
			]
		},
		{
			"name":"FrontSightBase.003",
			"primitives":[
				{
					"attributes":{
						"POSITION":85,
						"NORMAL":86,
						"TEXCOORD_0":87,
						"TANGENT":88,
						"JOINTS_0":89,
						"WEIGHTS_0":90
					},
					"indices":91,
					"material":0
				}
			]
		},
		{
			"name":"FrontSightBolt.003",
			"primitives":[
				{
					"attributes":{
						"POSITION":92,
						"NORMAL":93,
						"TEXCOORD_0":94,
						"TANGENT":95,
						"JOINTS_0":96,
						"WEIGHTS_0":97
					},
					"indices":98,
					"material":0
				}
			]
		},
		{
			"name":"FrontSightLeaf.003",
			"primitives":[
				{
					"attributes":{
						"POSITION":99,
						"NORMAL":100,
						"TEXCOORD_0":101,
						"TANGENT":102,
						"JOINTS_0":103,
						"WEIGHTS_0":104
					},
					"indices":105,
					"material":0
				}
			]
		},
		{
			"name":"GasBlock.003",
			"primitives":[
				{
					"attributes":{
						"POSITION":106,
						"NORMAL":107,
						"TEXCOORD_0":108,
						"TANGENT":109,
						"JOINTS_0":110,
						"WEIGHTS_0":111
					},
					"indices":112,
					"material":0
				}
			]
		},
		{
			"name":"GasTube.003",
			"primitives":[
				{
					"attributes":{
						"POSITION":113,
						"NORMAL":114,
						"TEXCOORD_0":115,
						"TANGENT":116,
						"JOINTS_0":117,
						"WEIGHTS_0":118
					},
					"indices":119,
					"material":0
				}
			]
		},
		{
			"name":"Handguard.002",
			"primitives":[
				{
					"attributes":{
						"POSITION":120,
						"NORMAL":121,
						"TEXCOORD_0":122,
						"TANGENT":123,
						"JOINTS_0":124,
						"WEIGHTS_0":125
					},
					"indices":126,
					"material":0
				}
			]
		},
		{
			"name":"HandguardScrews.003",
			"primitives":[
				{
					"attributes":{
						"POSITION":127,
						"NORMAL":128,
						"TEXCOORD_0":129,
						"TANGENT":130,
						"JOINTS_0":131,
						"WEIGHTS_0":132
					},
					"indices":133,
					"material":0
				}
			]
		},
		{
			"name":"LowerReceiver.003",
			"primitives":[
				{
					"attributes":{
						"POSITION":134,
						"NORMAL":135,
						"TEXCOORD_0":136,
						"TANGENT":137,
						"JOINTS_0":138,
						"WEIGHTS_0":139
					},
					"indices":140,
					"material":0
				}
			]
		},
		{
			"name":"Magazine.002",
			"primitives":[
				{
					"attributes":{
						"POSITION":141,
						"NORMAL":142,
						"TEXCOORD_0":143,
						"TANGENT":144,
						"JOINTS_0":145,
						"WEIGHTS_0":146
					},
					"indices":147,
					"material":1
				}
			]
		},
		{
			"name":"MagRelease.003",
			"primitives":[
				{
					"attributes":{
						"POSITION":148,
						"NORMAL":149,
						"TEXCOORD_0":150,
						"TANGENT":151,
						"JOINTS_0":152,
						"WEIGHTS_0":153
					},
					"indices":154,
					"material":0
				}
			]
		},
		{
			"name":"MagRounds.003",
			"primitives":[
				{
					"attributes":{
						"POSITION":155,
						"NORMAL":156,
						"TEXCOORD_0":157,
						"TANGENT":158,
						"JOINTS_0":159,
						"WEIGHTS_0":160
					},
					"indices":161,
					"material":1
				}
			]
		},
		{
			"name":"MuzzleDevice.003",
			"primitives":[
				{
					"attributes":{
						"POSITION":162,
						"NORMAL":163,
						"TEXCOORD_0":164,
						"TANGENT":165,
						"JOINTS_0":166,
						"WEIGHTS_0":167
					},
					"indices":168,
					"material":0
				}
			]
		},
		{
			"name":"Optic.003",
			"primitives":[
				{
					"attributes":{
						"POSITION":169,
						"NORMAL":170,
						"TEXCOORD_0":171,
						"TANGENT":172,
						"JOINTS_0":173,
						"WEIGHTS_0":174
					},
					"indices":175,
					"material":0
				}
			]
		},
		{
			"name":"OpticBolt.003",
			"primitives":[
				{
					"attributes":{
						"POSITION":176,
						"NORMAL":177,
						"TEXCOORD_0":178,
						"TANGENT":179,
						"JOINTS_0":180,
						"WEIGHTS_0":181
					},
					"indices":182,
					"material":0
				}
			]
		},
		{
			"name":"OpticLensFront.003",
			"primitives":[
				{
					"attributes":{
						"POSITION":183,
						"NORMAL":184,
						"TEXCOORD_0":185,
						"TANGENT":186,
						"JOINTS_0":187,
						"WEIGHTS_0":188
					},
					"indices":189,
					"material":2
				}
			]
		},
		{
			"name":"OpticLensRear.003",
			"primitives":[
				{
					"attributes":{
						"POSITION":190,
						"NORMAL":191,
						"TEXCOORD_0":192,
						"TANGENT":193,
						"JOINTS_0":194,
						"WEIGHTS_0":195
					},
					"indices":196,
					"material":2
				}
			]
		},
		{
			"name":"OpticReticle.003",
			"primitives":[
				{
					"attributes":{
						"POSITION":197,
						"NORMAL":198,
						"TEXCOORD_0":199,
						"TANGENT":200,
						"JOINTS_0":201,
						"WEIGHTS_0":202
					},
					"indices":203,
					"material":3
				},
				{
					"attributes":{
						"POSITION":204,
						"NORMAL":205,
						"TEXCOORD_0":206,
						"TANGENT":207,
						"JOINTS_0":208,
						"WEIGHTS_0":209
					},
					"indices":210,
					"material":4
				}
			]
		},
		{
			"name":"Pins.003",
			"primitives":[
				{
					"attributes":{
						"POSITION":211,
						"NORMAL":212,
						"TEXCOORD_0":213,
						"TANGENT":214,
						"JOINTS_0":215,
						"WEIGHTS_0":216
					},
					"indices":217,
					"material":0
				}
			]
		},
		{
			"name":"PistolGrip.003",
			"primitives":[
				{
					"attributes":{
						"POSITION":218,
						"NORMAL":219,
						"TEXCOORD_0":220,
						"TANGENT":221,
						"JOINTS_0":222,
						"WEIGHTS_0":223
					},
					"indices":224,
					"material":1
				}
			]
		},
		{
			"name":"RearSightBase.003",
			"primitives":[
				{
					"attributes":{
						"POSITION":225,
						"NORMAL":226,
						"TEXCOORD_0":227,
						"TANGENT":228,
						"JOINTS_0":229,
						"WEIGHTS_0":230
					},
					"indices":231,
					"material":0
				}
			]
		},
		{
			"name":"RearSightBolt.003",
			"primitives":[
				{
					"attributes":{
						"POSITION":232,
						"NORMAL":233,
						"TEXCOORD_0":234,
						"TANGENT":235,
						"JOINTS_0":236,
						"WEIGHTS_0":237
					},
					"indices":238,
					"material":0
				}
			]
		},
		{
			"name":"RearSightLeaf.003",
			"primitives":[
				{
					"attributes":{
						"POSITION":239,
						"NORMAL":240,
						"TEXCOORD_0":241,
						"TANGENT":242,
						"JOINTS_0":243,
						"WEIGHTS_0":244
					},
					"indices":245,
					"material":0
				}
			]
		},
		{
			"name":"Selector.003",
			"primitives":[
				{
					"attributes":{
						"POSITION":246,
						"NORMAL":247,
						"TEXCOORD_0":248,
						"TANGENT":249,
						"JOINTS_0":250,
						"WEIGHTS_0":251
					},
					"indices":252,
					"material":0
				}
			]
		},
		{
			"name":"Stock.003",
			"primitives":[
				{
					"attributes":{
						"POSITION":253,
						"NORMAL":254,
						"TEXCOORD_0":255,
						"TANGENT":256,
						"JOINTS_0":257,
						"WEIGHTS_0":258
					},
					"indices":259,
					"material":1
				}
			]
		},
		{
			"name":"Trigger.003",
			"primitives":[
				{
					"attributes":{
						"POSITION":260,
						"NORMAL":261,
						"TEXCOORD_0":262,
						"TANGENT":263,
						"JOINTS_0":264,
						"WEIGHTS_0":265
					},
					"indices":266,
					"material":0
				}
			]
		},
		{
			"name":"UpperReceiver.002",
			"primitives":[
				{
					"attributes":{
						"POSITION":267,
						"NORMAL":268,
						"TEXCOORD_0":269,
						"TANGENT":270,
						"JOINTS_0":271,
						"WEIGHTS_0":272
					},
					"indices":273,
					"material":0
				}
			]
		}
	],
	"textures":[
		{
			"sampler":0,
			"source":0
		},
		{
			"sampler":0,
			"source":1
		},
		{
			"sampler":0,
			"source":2
		},
		{
			"sampler":0,
			"source":3
		},
		{
			"sampler":0,
			"source":4
		},
		{
			"sampler":0,
			"source":5
		}
	],
	"images":[
		{
			"mimeType":"image/png",
			"name":"T_IV7_Body_Normal",
			"uri":"textures/T_IV7_Body_Normal.png"
		},
		{
			"mimeType":"image/png",
			"name":"T_IV7_Body_ORM",
			"uri":"textures/T_IV7_Body_ORM.png"
		},
		{
			"mimeType":"image/png",
			"name":"T_IV7_Body_BaseColor",
			"uri":"textures/T_IV7_Body_BaseColor.png"
		},
		{
			"mimeType":"image/png",
			"name":"T_IV7_Furniture_Normal",
			"uri":"textures/T_IV7_Furniture_Normal.png"
		},
		{
			"mimeType":"image/png",
			"name":"T_IV7_Furniture_ORM",
			"uri":"textures/T_IV7_Furniture_ORM.png"
		},
		{
			"mimeType":"image/png",
			"name":"T_IV7_Furniture_BaseColor",
			"uri":"textures/T_IV7_Furniture_BaseColor.png"
		}
	],
	"skins":[
		{
			"inverseBindMatrices":7,
			"joints":[
				16,
				0,
				1,
				2,
				3,
				4,
				5,
				6,
				7,
				8,
				9,
				10,
				11,
				12,
				13,
				14,
				15
			],
			"name":"SK_IV7"
		}
	],
	"accessors":[
		{
			"bufferView":0,
			"componentType":5126,
			"count":672,
			"max":[
				0.5348592400550842,
				0.10422326624393463,
				0.01249999925494194
			],
			"min":[
				0.14885631203651428,
				0.07922327518463135,
				-0.01249999925494194
			],
			"type":"VEC3"
		},
		{
			"bufferView":1,
			"componentType":5126,
			"count":672,
			"type":"VEC3"
		},
		{
			"bufferView":2,
			"componentType":5126,
			"count":672,
			"type":"VEC2"
		},
		{
			"bufferView":3,
			"componentType":5126,
			"count":672,
			"type":"VEC4"
		},
		{
			"bufferView":4,
			"componentType":5121,
			"count":672,
			"type":"VEC4"
		},
		{
			"bufferView":5,
			"componentType":5126,
			"count":672,
			"type":"VEC4"
		},
		{
			"bufferView":6,
			"componentType":5123,
			"count":2208,
			"type":"SCALAR"
		},
		{
			"bufferView":7,
			"componentType":5126,
			"count":17,
			"type":"MAT4"
		},
		{
			"bufferView":8,
			"componentType":5126,
			"count":837,
			"max":[
				0.2228572964668274,
				0.10860491544008255,
				0.01715354062616825
			],
			"min":[
				0.1968573033809662,
				0.07456973195075989,
				-0.01715354062616825
			],
			"type":"VEC3"
		},
		{
			"bufferView":9,
			"componentType":5126,
			"count":837,
			"type":"VEC3"
		},
		{
			"bufferView":10,
			"componentType":5126,
			"count":837,
			"type":"VEC2"
		},
		{
			"bufferView":11,
			"componentType":5126,
			"count":837,
			"type":"VEC4"
		},
		{
			"bufferView":12,
			"componentType":5121,
			"count":837,
			"type":"VEC4"
		},
		{
			"bufferView":13,
			"componentType":5126,
			"count":837,
			"type":"VEC4"
		},
		{
			"bufferView":14,
			"componentType":5123,
			"count":2226,
			"type":"SCALAR"
		},
		{
			"bufferView":15,
			"componentType":5126,
			"count":786,
			"max":[
				0.14835849404335022,
				0.10318470001220703,
				0.0115194758400321
			],
			"min":[
				0.02385661005973816,
				0.08026184141635895,
				-0.011465375311672688
			],
			"type":"VEC3"
		},
		{
			"bufferView":16,
			"componentType":5126,
			"count":786,
			"type":"VEC3"
		},
		{
			"bufferView":17,
			"componentType":5126,
			"count":786,
			"type":"VEC2"
		},
		{
			"bufferView":18,
			"componentType":5126,
			"count":786,
			"type":"VEC4"
		},
		{
			"bufferView":19,
			"componentType":5121,
			"count":786,
			"type":"VEC4"
		},
		{
			"bufferView":20,
			"componentType":5126,
			"count":786,
			"type":"VEC4"
		},
		{
			"bufferView":21,
			"componentType":5123,
			"count":2394,
			"type":"SCALAR"
		},
		{
			"bufferView":22,
			"componentType":5126,
			"count":481,
			"max":[
				0.08682642132043839,
				0.06917768716812134,
				-0.012025488540530205
			],
			"min":[
				0.06785731017589569,
				0.05472327023744583,
				-0.016201622784137726
			],
			"type":"VEC3"
		},
		{
			"bufferView":23,
			"componentType":5126,
			"count":481,
			"type":"VEC3"
		},
		{
			"bufferView":24,
			"componentType":5126,
			"count":481,
			"type":"VEC2"
		},
		{
			"bufferView":25,
			"componentType":5126,
			"count":481,
			"type":"VEC4"
		},
		{
			"bufferView":26,
			"componentType":5121,
			"count":481,
			"type":"VEC4"
		},
		{
			"bufferView":27,
			"componentType":5126,
			"count":481,
			"type":"VEC4"
		},
		{
			"bufferView":28,
			"componentType":5123,
			"count":1260,
			"type":"SCALAR"
		},
		{
			"bufferView":29,
			"componentType":5126,
			"count":1199,
			"max":[
				0.004357488360255957,
				0.10622327029705048,
				0.014500000514090061
			],
			"min":[
				-0.1931433081626892,
				0.07422327250242233,
				-0.014500000514090061
			],
			"type":"VEC3"
		},
		{
			"bufferView":30,
			"componentType":5126,
			"count":1199,
			"type":"VEC3"
		},
		{
			"bufferView":31,
			"componentType":5126,
			"count":1199,
			"type":"VEC2"
		},
		{
			"bufferView":32,
			"componentType":5126,
			"count":1199,
			"type":"VEC4"
		},
		{
			"bufferView":33,
			"componentType":5121,
			"count":1199,
			"type":"VEC4"
		},
		{
			"bufferView":34,
			"componentType":5126,
			"count":1199,
			"type":"VEC4"
		},
		{
			"bufferView":35,
			"componentType":5123,
			"count":4170,
			"type":"SCALAR"
		},
		{
			"bufferView":36,
			"componentType":5126,
			"count":216,
			"max":[
				-0.2661423683166504,
				0.12392327189445496,
				0.02199999988079071
			],
			"min":[
				-0.28411349654197693,
				-0.002476729452610016,
				-0.02199999988079071
			],
			"type":"VEC3"
		},
		{
			"bufferView":37,
			"componentType":5126,
			"count":216,
			"type":"VEC3"
		},
		{
			"bufferView":38,
			"componentType":5126,
			"count":216,
			"type":"VEC2"
		},
		{
			"bufferView":39,
			"componentType":5126,
			"count":216,
			"type":"VEC4"
		},
		{
			"bufferView":40,
			"componentType":5121,
			"count":216,
			"type":"VEC4"
		},
		{
			"bufferView":41,
			"componentType":5126,
			"count":216,
			"type":"VEC4"
		},
		{
			"bufferView":42,
			"componentType":5123,
			"count":870,
			"type":"SCALAR"
		},
		{
			"bufferView":43,
			"componentType":5126,
			"count":617,
			"max":[
				-0.0009425442549400032,
				0.10788488388061523,
				0.01616554707288742
			],
			"min":[
				-0.008642828091979027,
				0.07556165754795074,
				-0.01616554707288742
			],
			"type":"VEC3"
		},
		{
			"bufferView":44,
			"componentType":5126,
			"count":617,
			"type":"VEC3"
		},
		{
			"bufferView":45,
			"componentType":5126,
			"count":617,
			"type":"VEC2"
		},
		{
			"bufferView":46,
			"componentType":5126,
			"count":617,
			"type":"VEC4"
		},
		{
			"bufferView":47,
			"componentType":5121,
			"count":617,
			"type":"VEC4"
		},
		{
			"bufferView":48,
			"componentType":5126,
			"count":617,
			"type":"VEC4"
		},
		{
			"bufferView":49,
			"componentType":5123,
			"count":1812,
			"type":"SCALAR"
		},
		{
			"bufferView":50,
			"componentType":5126,
			"count":816,
			"max":[
				0.14385069906711578,
				0.11502450704574585,
				0.0240695308893919
			],
			"min":[
				0.003090212121605873,
				0.10801953077316284,
				-0.0240695308893919
			],
			"type":"VEC3"
		},
		{
			"bufferView":51,
			"componentType":5126,
			"count":816,
			"type":"VEC3"
		},
		{
			"bufferView":52,
			"componentType":5126,
			"count":816,
			"type":"VEC2"
		},
		{
			"bufferView":53,
			"componentType":5126,
			"count":816,
			"type":"VEC4"
		},
		{
			"bufferView":54,
			"componentType":5121,
			"count":816,
			"type":"VEC4"
		},
		{
			"bufferView":55,
			"componentType":5126,
			"count":816,
			"type":"VEC4"
		},
		{
			"bufferView":56,
			"componentType":5123,
			"count":2460,
			"type":"SCALAR"
		},
		{
			"bufferView":57,
			"componentType":5126,
			"count":248,
			"max":[
				0.14785730838775635,
				0.08020620048046112,
				0.022398989647626877
			],
			"min":[
				0.08285731077194214,
				0.05389093607664108,
				0.01601671241223812
			],
			"type":"VEC3"
		},
		{
			"bufferView":58,
			"componentType":5126,
			"count":248,
			"type":"VEC3"
		},
		{
			"bufferView":59,
			"componentType":5126,
			"count":248,
			"type":"VEC2"
		},
		{
			"bufferView":60,
			"componentType":5126,
			"count":248,
			"type":"VEC4"
		},
		{
			"bufferView":61,
			"componentType":5121,
			"count":248,
			"type":"VEC4"
		},
		{
			"bufferView":62,
			"componentType":5126,
			"count":248,
			"type":"VEC4"
		},
		{
			"bufferView":63,
			"componentType":5123,
			"count":654,
			"type":"SCALAR"
		},
		{
			"bufferView":64,
			"componentType":5126,
			"count":36,
			"max":[
				0.15435729920864105,
				0.0791270062327385,
				0.018879614770412445
			],
			"min":[
				0.07635730504989624,
				0.07731954753398895,
				0.017096269875764847
			],
			"type":"VEC3"
		},
		{
			"bufferView":65,
			"componentType":5126,
			"count":36,
			"type":"VEC3"
		},
		{
			"bufferView":66,
			"componentType":5126,
			"count":36,
			"type":"VEC2"
		},
		{
			"bufferView":67,
			"componentType":5126,
			"count":36,
			"type":"VEC4"
		},
		{
			"bufferView":68,
			"componentType":5121,
			"count":36,
			"type":"VEC4"
		},
		{
			"bufferView":69,
			"componentType":5126,
			"count":36,
			"type":"VEC4"
		},
		{
			"bufferView":70,
			"componentType":5123,
			"count":72,
			"type":"SCALAR"
		},
		{
			"bufferView":71,
			"componentType":5126,
			"count":538,
			"max":[
				0.0018573105335235596,
				0.1072232723236084,
				0.016375234350562096
			],
			"min":[
				-0.0009427070617675781,
				0.07534803450107574,
				-0.027676112949848175
			],
			"type":"VEC3"
		},
		{
			"bufferView":72,
			"componentType":5126,
			"count":538,
			"type":"VEC3"
		},
		{
			"bufferView":73,
			"componentType":5126,
			"count":538,
			"type":"VEC2"
		},
		{
			"bufferView":74,
			"componentType":5126,
			"count":538,
			"type":"VEC4"
		},
		{
			"bufferView":75,
			"componentType":5121,
			"count":538,
			"type":"VEC4"
		},
		{
			"bufferView":76,
			"componentType":5126,
			"count":538,
			"type":"VEC4"
		},
		{
			"bufferView":77,
			"componentType":5123,
			"count":1620,
			"type":"SCALAR"
		},
		{
			"bufferView":78,
			"componentType":5126,
			"count":374,
			"max":[
				0.029859203845262527,
				0.09902326762676239,
				0.016872070729732513
			],
			"min":[
				0.02235729992389679,
				0.08962327241897583,
				0.009698434732854366
			],
			"type":"VEC3"
		},
		{
			"bufferView":79,
			"componentType":5126,
			"count":374,
			"type":"VEC3"
		},
		{
			"bufferView":80,
			"componentType":5126,
			"count":374,
			"type":"VEC2"
		},
		{
			"bufferView":81,
			"componentType":5126,
			"count":374,
			"type":"VEC4"
		},
		{
			"bufferView":82,
			"componentType":5121,
			"count":374,
			"type":"VEC4"
		},
		{
			"bufferView":83,
			"componentType":5126,
			"count":374,
			"type":"VEC4"
		},
		{
			"bufferView":84,
			"componentType":5123,
			"count":888,
			"type":"SCALAR"
		},
		{
			"bufferView":85,
			"componentType":5126,
			"count":973,
			"max":[
				0.510857343673706,
				0.13992327451705933,
				0.012999999336898327
			],
			"min":[
				0.48885729908943176,
				0.11672326922416687,
				-0.012999999336898327
			],
			"type":"VEC3"
		},
		{
			"bufferView":86,
			"componentType":5126,
			"count":973,
			"type":"VEC3"
		},
		{
			"bufferView":87,
			"componentType":5126,
			"count":973,
			"type":"VEC2"
		},
		{
			"bufferView":88,
			"componentType":5126,
			"count":973,
			"type":"VEC4"
		},
		{
			"bufferView":89,
			"componentType":5121,
			"count":973,
			"type":"VEC4"
		},
		{
			"bufferView":90,
			"componentType":5126,
			"count":973,
			"type":"VEC4"
		},
		{
			"bufferView":91,
			"componentType":5123,
			"count":2754,
			"type":"SCALAR"
		},
		{
			"bufferView":92,
			"componentType":5126,
			"count":153,
			"max":[
				0.5088217258453369,
				0.1226876825094223,
				0.013101808726787567
			],
			"min":[
				0.5028928518295288,
				0.11675886809825897,
				-0.013799999840557575
			],
			"type":"VEC3"
		},
		{
			"bufferView":93,
			"componentType":5126,
			"count":153,
			"type":"VEC3"
		},
		{
			"bufferView":94,
			"componentType":5126,
			"count":153,
			"type":"VEC2"
		},
		{
			"bufferView":95,
			"componentType":5126,
			"count":153,
			"type":"VEC4"
		},
		{
			"bufferView":96,
			"componentType":5121,
			"count":153,
			"type":"VEC4"
		},
		{
			"bufferView":97,
			"componentType":5126,
			"count":153,
			"type":"VEC4"
		},
		{
			"bufferView":98,
			"componentType":5123,
			"count":384,
			"type":"SCALAR"
		},
		{
			"bufferView":99,
			"componentType":5126,
			"count":571,
			"max":[
				0.5023593902587891,
				0.1653674840927124,
				0.010491842404007912
			],
			"min":[
				0.49935513734817505,
				0.1356232762336731,
				-0.010491842404007912
			],
			"type":"VEC3"
		},
		{
			"bufferView":100,
			"componentType":5126,
			"count":571,
			"type":"VEC3"
		},
		{
			"bufferView":101,
			"componentType":5126,
			"count":571,
			"type":"VEC2"
		},
		{
			"bufferView":102,
			"componentType":5126,
			"count":571,
			"type":"VEC4"
		},
		{
			"bufferView":103,
			"componentType":5121,
			"count":571,
			"type":"VEC4"
		},
		{
			"bufferView":104,
			"componentType":5126,
			"count":571,
			"type":"VEC4"
		},
		{
			"bufferView":105,
			"componentType":5123,
			"count":1992,
			"type":"SCALAR"
		},
		{
			"bufferView":106,
			"componentType":5126,
			"count":719,
			"max":[
				0.38386082649230957,
				0.10972326993942261,
				0.011479679495096207
			],
			"min":[
				0.3528561294078827,
				0.08022326976060867,
				-0.011479614302515984
			],
			"type":"VEC3"
		},
		{
			"bufferView":107,
			"componentType":5126,
			"count":719,
			"type":"VEC3"
		},
		{
			"bufferView":108,
			"componentType":5126,
			"count":719,
			"type":"VEC2"
		},
		{
			"bufferView":109,
			"componentType":5126,
			"count":719,
			"type":"VEC4"
		},
		{
			"bufferView":110,
			"componentType":5121,
			"count":719,
			"type":"VEC4"
		},
		{
			"bufferView":111,
			"componentType":5126,
			"count":719,
			"type":"VEC4"
		},
		{
			"bufferView":112,
			"componentType":5123,
			"count":2352,
			"type":"SCALAR"
		},
		{
			"bufferView":113,
			"componentType":5126,
			"count":44,
			"max":[
				0.3608573377132416,
				0.10763129591941833,
				0.002373402938246727
			],
			"min":[
				0.19735729694366455,
				0.10282327234745026,
				-0.0024080274160951376
			],
			"type":"VEC3"
		},
		{
			"bufferView":114,
			"componentType":5126,
			"count":44,
			"type":"VEC3"
		},
		{
			"bufferView":115,
			"componentType":5126,
			"count":44,
			"type":"VEC2"
		},
		{
			"bufferView":116,
			"componentType":5126,
			"count":44,
			"type":"VEC4"
		},
		{
			"bufferView":117,
			"componentType":5121,
			"count":44,
			"type":"VEC4"
		},
		{
			"bufferView":118,
			"componentType":5126,
			"count":44,
			"type":"VEC4"
		},
		{
			"bufferView":119,
			"componentType":5123,
			"count":96,
			"type":"SCALAR"
		},
		{
			"bufferView":120,
			"componentType":5126,
			"count":4981,
			"max":[
				0.5288594365119934,
				0.12172327190637589,
				0.02500000037252903
			],
			"min":[
				0.1988552063703537,
				0.06472326070070267,
				-0.02500000037252903
			],
			"type":"VEC3"
		},
		{
			"bufferView":121,
			"componentType":5126,
			"count":4981,
			"type":"VEC3"
		},
		{
			"bufferView":122,
			"componentType":5126,
			"count":4981,
			"type":"VEC2"
		},
		{
			"bufferView":123,
			"componentType":5126,
			"count":4981,
			"type":"VEC4"
		},
		{
			"bufferView":124,
			"componentType":5121,
			"count":4981,
			"type":"VEC4"
		},
		{
			"bufferView":125,
			"componentType":5126,
			"count":4981,
			"type":"VEC4"
		},
		{
			"bufferView":126,
			"componentType":5123,
			"count":11922,
			"type":"SCALAR"
		},
		{
			"bufferView":127,
			"componentType":5126,
			"count":415,
			"max":[
				0.22033993899822235,
				0.06892535835504532,
				0.009980753064155579
			],
			"min":[
				0.2043749988079071,
				0.06492327153682709,
				0.005019249860197306
			],
			"type":"VEC3"
		},
		{
			"bufferView":128,
			"componentType":5126,
			"count":415,
			"type":"VEC3"
		},
		{
			"bufferView":129,
			"componentType":5126,
			"count":415,
			"type":"VEC2"
		},
		{
			"bufferView":130,
			"componentType":5126,
			"count":415,
			"type":"VEC4"
		},
		{
			"bufferView":131,
			"componentType":5121,
			"count":415,
			"type":"VEC4"
		},
		{
			"bufferView":132,
			"componentType":5126,
			"count":415,
			"type":"VEC4"
		},
		{
			"bufferView":133,
			"componentType":5123,
			"count":1140,
			"type":"SCALAR"
		},
		{
			"bufferView":134,
			"componentType":5126,
			"count":3248,
			"max":[
				0.18982988595962524,
				0.1071949452161789,
				0.019789140671491623
			],
			"min":[
				-0.01182668749243021,
				0.0037214879412204027,
				-0.018470337614417076
			],
			"type":"VEC3"
		},
		{
			"bufferView":135,
			"componentType":5126,
			"count":3248,
			"type":"VEC3"
		},
		{
			"bufferView":136,
			"componentType":5126,
			"count":3248,
			"type":"VEC2"
		},
		{
			"bufferView":137,
			"componentType":5126,
			"count":3248,
			"type":"VEC4"
		},
		{
			"bufferView":138,
			"componentType":5121,
			"count":3248,
			"type":"VEC4"
		},
		{
			"bufferView":139,
			"componentType":5126,
			"count":3248,
			"type":"VEC4"
		},
		{
			"bufferView":140,
			"componentType":5123,
			"count":9288,
			"type":"SCALAR"
		},
		{
			"bufferView":141,
			"componentType":5126,
			"count":1240,
			"max":[
				0.18086212873458862,
				0.07840375602245331,
				0.013799999840557575
			],
			"min":[
				0.09050465375185013,
				-0.12079182267189026,
				-0.013799999840557575
			],
			"type":"VEC3"
		},
		{
			"bufferView":142,
			"componentType":5126,
			"count":1240,
			"type":"VEC3"
		},
		{
			"bufferView":143,
			"componentType":5126,
			"count":1240,
			"type":"VEC2"
		},
		{
			"bufferView":144,
			"componentType":5126,
			"count":1240,
			"type":"VEC4"
		},
		{
			"bufferView":145,
			"componentType":5121,
			"count":1240,
			"type":"VEC4"
		},
		{
			"bufferView":146,
			"componentType":5126,
			"count":1240,
			"type":"VEC4"
		},
		{
			"bufferView":147,
			"componentType":5123,
			"count":4494,
			"type":"SCALAR"
		},
		{
			"bufferView":148,
			"componentType":5126,
			"count":78,
			"max":[
				0.10744516551494598,
				0.05272909998893738,
				0.019602380692958832
			],
			"min":[
				0.10025086998939514,
				0.04551684111356735,
				0.01460238080471754
			],
			"type":"VEC3"
		},
		{
			"bufferView":149,
			"componentType":5126,
			"count":78,
			"type":"VEC3"
		},
		{
			"bufferView":150,
			"componentType":5126,
			"count":78,
			"type":"VEC2"
		},
		{
			"bufferView":151,
			"componentType":5126,
			"count":78,
			"type":"VEC4"
		},
		{
			"bufferView":152,
			"componentType":5121,
			"count":78,
			"type":"VEC4"
		},
		{
			"bufferView":153,
			"componentType":5126,
			"count":78,
			"type":"VEC4"
		},
		{
			"bufferView":154,
			"componentType":5123,
			"count":216,
			"type":"SCALAR"
		},
		{
			"bufferView":155,
			"componentType":5126,
			"count":575,
			"max":[
				0.1523572951555252,
				0.07950326800346375,
				0.009690068662166595
			],
			"min":[
				0.09535495936870575,
				0.06153348088264465,
				-0.0047799996100366116
			],
			"type":"VEC3"
		},
		{
			"bufferView":156,
			"componentType":5126,
			"count":575,
			"type":"VEC3"
		},
		{
			"bufferView":157,
			"componentType":5126,
			"count":575,
			"type":"VEC2"
		},
		{
			"bufferView":158,
			"componentType":5126,
			"count":575,
			"type":"VEC4"
		},
		{
			"bufferView":159,
			"componentType":5121,
			"count":575,
			"type":"VEC4"
		},
		{
			"bufferView":160,
			"componentType":5126,
			"count":575,
			"type":"VEC4"
		},
		{
			"bufferView":161,
			"componentType":5123,
			"count":1680,
			"type":"SCALAR"
		},
		{
			"bufferView":162,
			"componentType":5126,
			"count":861,
			"max":[
				0.5758587121963501,
				0.10272327065467834,
				0.010999999940395355
			],
			"min":[
				0.5208567976951599,
				0.08072327077388763,
				-0.010999999940395355
			],
			"type":"VEC3"
		},
		{
			"bufferView":163,
			"componentType":5126,
			"count":861,
			"type":"VEC3"
		},
		{
			"bufferView":164,
			"componentType":5126,
			"count":861,
			"type":"VEC2"
		},
		{
			"bufferView":165,
			"componentType":5126,
			"count":861,
			"type":"VEC4"
		},
		{
			"bufferView":166,
			"componentType":5121,
			"count":861,
			"type":"VEC4"
		},
		{
			"bufferView":167,
			"componentType":5126,
			"count":861,
			"type":"VEC4"
		},
		{
			"bufferView":168,
			"componentType":5123,
			"count":2898,
			"type":"SCALAR"
		},
		{
			"bufferView":169,
			"componentType":5126,
			"count":4407,
			"max":[
				0.1628577709197998,
				0.1883237063884735,
				0.026600440964102745
			],
			"min":[
				0.09385528415441513,
				0.11474447697401047,
				-0.02160130999982357
			],
			"type":"VEC3"
		},
		{
			"bufferView":170,
			"componentType":5126,
			"count":4407,
			"type":"VEC3"
		},
		{
			"bufferView":171,
			"componentType":5126,
			"count":4407,
			"type":"VEC2"
		},
		{
			"bufferView":172,
			"componentType":5126,
			"count":4407,
			"type":"VEC4"
		},
		{
			"bufferView":173,
			"componentType":5121,
			"count":4407,
			"type":"VEC4"
		},
		{
			"bufferView":174,
			"componentType":5126,
			"count":4407,
			"type":"VEC4"
		},
		{
			"bufferView":175,
			"componentType":5123,
			"count":12984,
			"type":"SCALAR"
		},
		{
			"bufferView":176,
			"componentType":5126,
			"count":151,
			"max":[
				0.13382172584533691,
				0.1226876825094223,
				0.012692962773144245
			],
			"min":[
				0.1278928965330124,
				0.11675886064767838,
				-0.013799999840557575
			],
			"type":"VEC3"
		},
		{
			"bufferView":177,
			"componentType":5126,
			"count":151,
			"type":"VEC3"
		},
		{
			"bufferView":178,
			"componentType":5126,
			"count":151,
			"type":"VEC2"
		},
		{
			"bufferView":179,
			"componentType":5126,
			"count":151,
			"type":"VEC4"
		},
		{
			"bufferView":180,
			"componentType":5121,
			"count":151,
			"type":"VEC4"
		},
		{
			"bufferView":181,
			"componentType":5126,
			"count":151,
			"type":"VEC4"
		},
		{
			"bufferView":182,
			"componentType":5123,
			"count":384,
			"type":"SCALAR"
		},
		{
			"bufferView":183,
			"componentType":5126,
			"count":170,
			"max":[
				0.15755775570869446,
				0.1746232658624649,
				0.012891941703855991
			],
			"min":[
				0.15555702149868011,
				0.1488313227891922,
				-0.012903480790555477
			],
			"type":"VEC3"
		},
		{
			"bufferView":184,
			"componentType":5126,
			"count":170,
			"type":"VEC3"
		},
		{
			"bufferView":185,
			"componentType":5126,
			"count":170,
			"type":"VEC2"
		},
		{
			"bufferView":186,
			"componentType":5126,
			"count":170,
			"type":"VEC4"
		},
		{
			"bufferView":187,
			"componentType":5121,
			"count":170,
			"type":"VEC4"
		},
		{
			"bufferView":188,
			"componentType":5126,
			"count":170,
			"type":"VEC4"
		},
		{
			"bufferView":189,
			"componentType":5123,
			"count":570,
			"type":"SCALAR"
		},
		{
			"bufferView":190,
			"componentType":5126,
			"count":166,
			"max":[
				0.10005774348974228,
				0.1746232658624649,
				0.012886577285826206
			],
			"min":[
				0.09785696119070053,
				0.1488313227891922,
				-0.012886576354503632
			],
			"type":"VEC3"
		},
		{
			"bufferView":191,
			"componentType":5126,
			"count":166,
			"type":"VEC3"
		},
		{
			"bufferView":192,
			"componentType":5126,
			"count":166,
			"type":"VEC2"
		},
		{
			"bufferView":193,
			"componentType":5126,
			"count":166,
			"type":"VEC4"
		},
		{
			"bufferView":194,
			"componentType":5121,
			"count":166,
			"type":"VEC4"
		},
		{
			"bufferView":195,
			"componentType":5126,
			"count":166,
			"type":"VEC4"
		},
		{
			"bufferView":196,
			"componentType":5123,
			"count":570,
			"type":"SCALAR"
		},
		{
			"bufferView":197,
			"componentType":5126,
			"count":7,
			"max":[
				0.15550529956817627,
				0.16187389194965363,
				0.00015062326565384865
			],
			"min":[
				0.15550529956817627,
				0.1615726500749588,
				-0.0001466032990720123
			],
			"type":"VEC3"
		},
		{
			"bufferView":198,
			"componentType":5126,
			"count":7,
			"type":"VEC3"
		},
		{
			"bufferView":199,
			"componentType":5126,
			"count":7,
			"type":"VEC2"
		},
		{
			"bufferView":200,
			"componentType":5126,
			"count":7,
			"type":"VEC4"
		},
		{
			"bufferView":201,
			"componentType":5121,
			"count":7,
			"type":"VEC4"
		},
		{
			"bufferView":202,
			"componentType":5126,
			"count":7,
			"type":"VEC4"
		},
		{
			"bufferView":203,
			"componentType":5123,
			"count":15,
			"type":"SCALAR"
		},
		{
			"bufferView":204,
			"componentType":5126,
			"count":39,
			"max":[
				0.15555530786514282,
				0.16187389194965363,
				0.00015062326565384865
			],
			"min":[
				0.15550529956817627,
				0.1615726500749588,
				-0.0001506209810031578
			],
			"type":"VEC3"
		},
		{
			"bufferView":205,
			"componentType":5126,
			"count":39,
			"type":"VEC3"
		},
		{
			"bufferView":206,
			"componentType":5126,
			"count":39,
			"type":"VEC2"
		},
		{
			"bufferView":207,
			"componentType":5126,
			"count":39,
			"type":"VEC4"
		},
		{
			"bufferView":208,
			"componentType":5121,
			"count":39,
			"type":"VEC4"
		},
		{
			"bufferView":209,
			"componentType":5126,
			"count":39,
			"type":"VEC4"
		},
		{
			"bufferView":210,
			"componentType":5123,
			"count":57,
			"type":"SCALAR"
		},
		{
			"bufferView":211,
			"componentType":5126,
			"count":407,
			"max":[
				0.18304157257080078,
				0.0699075385928154,
				0.013104666955769062
			],
			"min":[
				0.007657304406166077,
				0.04327358677983284,
				-0.014800000004470348
			],
			"type":"VEC3"
		},
		{
			"bufferView":212,
			"componentType":5126,
			"count":407,
			"type":"VEC3"
		},
		{
			"bufferView":213,
			"componentType":5126,
			"count":407,
			"type":"VEC2"
		},
		{
			"bufferView":214,
			"componentType":5126,
			"count":407,
			"type":"VEC4"
		},
		{
			"bufferView":215,
			"componentType":5121,
			"count":407,
			"type":"VEC4"
		},
		{
			"bufferView":216,
			"componentType":5126,
			"count":407,
			"type":"VEC4"
		},
		{
			"bufferView":217,
			"componentType":5123,
			"count":1152,
			"type":"SCALAR"
		},
		{
			"bufferView":218,
			"componentType":5126,
			"count":665,
			"max":[
				0.040593985468149185,
				0.0417252816259861,
				0.01618529111146927
			],
			"min":[
				-0.049034714698791504,
				-0.060268327593803406,
				-0.01618529111146927
			],
			"type":"VEC3"
		},
		{
			"bufferView":219,
			"componentType":5126,
			"count":665,
			"type":"VEC3"
		},
		{
			"bufferView":220,
			"componentType":5126,
			"count":665,
			"type":"VEC2"
		},
		{
			"bufferView":221,
			"componentType":5126,
			"count":665,
			"type":"VEC4"
		},
		{
			"bufferView":222,
			"componentType":5121,
			"count":665,
			"type":"VEC4"
		},
		{
			"bufferView":223,
			"componentType":5126,
			"count":665,
			"type":"VEC4"
		},
		{
			"bufferView":224,
			"componentType":5123,
			"count":3126,
			"type":"SCALAR"
		},
		{
			"bufferView":225,
			"componentType":5126,
			"count":1169,
			"max":[
				0.0938573107123375,
				0.13992327451705933,
				0.01760028302669525
			],
			"min":[
				0.07085730135440826,
				0.11672326922416687,
				-0.012999999336898327
			],
			"type":"VEC3"
		},
		{
			"bufferView":226,
			"componentType":5126,
			"count":1169,
			"type":"VEC3"
		},
		{
			"bufferView":227,
			"componentType":5126,
			"count":1169,
			"type":"VEC2"
		},
		{
			"bufferView":228,
			"componentType":5126,
			"count":1169,
			"type":"VEC4"
		},
		{
			"bufferView":229,
			"componentType":5121,
			"count":1169,
			"type":"VEC4"
		},
		{
			"bufferView":230,
			"componentType":5126,
			"count":1169,
			"type":"VEC4"
		},
		{
			"bufferView":231,
			"componentType":5123,
			"count":3510,
			"type":"SCALAR"
		},
		{
			"bufferView":232,
			"componentType":5126,
			"count":150,
			"max":[
				0.08382171392440796,
				0.1226876825094223,
				0.012701805680990219
			],
			"min":[
				0.07789289951324463,
				0.11675886064767838,
				-0.013799999840557575
			],
			"type":"VEC3"
		},
		{
			"bufferView":233,
			"componentType":5126,
			"count":150,
			"type":"VEC3"
		},
		{
			"bufferView":234,
			"componentType":5126,
			"count":150,
			"type":"VEC2"
		},
		{
			"bufferView":235,
			"componentType":5126,
			"count":150,
			"type":"VEC4"
		},
		{
			"bufferView":236,
			"componentType":5121,
			"count":150,
			"type":"VEC4"
		},
		{
			"bufferView":237,
			"componentType":5126,
			"count":150,
			"type":"VEC4"
		},
		{
			"bufferView":238,
			"componentType":5123,
			"count":384,
			"type":"SCALAR"
		},
		{
			"bufferView":239,
			"componentType":5126,
			"count":911,
			"max":[
				0.0853600949048996,
				0.16792327165603638,
				0.011187562718987465
			],
			"min":[
				0.08235493302345276,
				0.1356232762336731,
				-0.011187562718987465
			],
			"type":"VEC3"
		},
		{
			"bufferView":240,
			"componentType":5126,
			"count":911,
			"type":"VEC3"
		},
		{
			"bufferView":241,
			"componentType":5126,
			"count":911,
			"type":"VEC2"
		},
		{
			"bufferView":242,
			"componentType":5126,
			"count":911,
			"type":"VEC4"
		},
		{
			"bufferView":243,
			"componentType":5121,
			"count":911,
			"type":"VEC4"
		},
		{
			"bufferView":244,
			"componentType":5126,
			"count":911,
			"type":"VEC4"
		},
		{
			"bufferView":245,
			"componentType":5123,
			"count":3306,
			"type":"SCALAR"
		},
		{
			"bufferView":246,
			"componentType":5126,
			"count":552,
			"max":[
				0.05389278754591942,
				0.06418780982494354,
				0.013800305314362049
			],
			"min":[
				0.035400234162807465,
				0.0532587394118309,
				-0.017454247921705246
			],
			"type":"VEC3"
		},
		{
			"bufferView":247,
			"componentType":5126,
			"count":552,
			"type":"VEC3"
		},
		{
			"bufferView":248,
			"componentType":5126,
			"count":552,
			"type":"VEC2"
		},
		{
			"bufferView":249,
			"componentType":5126,
			"count":552,
			"type":"VEC4"
		},
		{
			"bufferView":250,
			"componentType":5121,
			"count":552,
			"type":"VEC4"
		},
		{
			"bufferView":251,
			"componentType":5126,
			"count":552,
			"type":"VEC4"
		},
		{
			"bufferView":252,
			"componentType":5123,
			"count":978,
			"type":"SCALAR"
		},
		{
			"bufferView":253,
			"componentType":5126,
			"count":821,
			"max":[
				-0.10764004290103912,
				0.12269972264766693,
				0.021198131144046783
			],
			"min":[
				-0.26614266633987427,
				-0.001211365219205618,
				-0.021198123693466187
			],
			"type":"VEC3"
		},
		{
			"bufferView":254,
			"componentType":5126,
			"count":821,
			"type":"VEC3"
		},
		{
			"bufferView":255,
			"componentType":5126,
			"count":821,
			"type":"VEC2"
		},
		{
			"bufferView":256,
			"componentType":5126,
			"count":821,
			"type":"VEC4"
		},
		{
			"bufferView":257,
			"componentType":5121,
			"count":821,
			"type":"VEC4"
		},
		{
			"bufferView":258,
			"componentType":5126,
			"count":821,
			"type":"VEC4"
		},
		{
			"bufferView":259,
			"componentType":5123,
			"count":2892,
			"type":"SCALAR"
		},
		{
			"bufferView":260,
			"componentType":5126,
			"count":420,
			"max":[
				0.06233825907111168,
				0.054923269897699356,
				0.003501439932733774
			],
			"min":[
				0.05065730959177017,
				0.024474941194057465,
				-0.0035011195577681065
			],
			"type":"VEC3"
		},
		{
			"bufferView":261,
			"componentType":5126,
			"count":420,
			"type":"VEC3"
		},
		{
			"bufferView":262,
			"componentType":5126,
			"count":420,
			"type":"VEC2"
		},
		{
			"bufferView":263,
			"componentType":5126,
			"count":420,
			"type":"VEC4"
		},
		{
			"bufferView":264,
			"componentType":5121,
			"count":420,
			"type":"VEC4"
		},
		{
			"bufferView":265,
			"componentType":5126,
			"count":420,
			"type":"VEC4"
		},
		{
			"bufferView":266,
			"componentType":5123,
			"count":1272,
			"type":"SCALAR"
		},
		{
			"bufferView":267,
			"componentType":5126,
			"count":2756,
			"max":[
				0.19686508178710938,
				0.12172327190637589,
				0.022186271846294403
			],
			"min":[
				0.021857306361198425,
				0.07272326946258545,
				-0.014999999664723873
			],
			"type":"VEC3"
		},
		{
			"bufferView":268,
			"componentType":5126,
			"count":2756,
			"type":"VEC3"
		},
		{
			"bufferView":269,
			"componentType":5126,
			"count":2756,
			"type":"VEC2"
		},
		{
			"bufferView":270,
			"componentType":5126,
			"count":2756,
			"type":"VEC4"
		},
		{
			"bufferView":271,
			"componentType":5121,
			"count":2756,
			"type":"VEC4"
		},
		{
			"bufferView":272,
			"componentType":5126,
			"count":2756,
			"type":"VEC4"
		},
		{
			"bufferView":273,
			"componentType":5123,
			"count":7710,
			"type":"SCALAR"
		}
	],
	"bufferViews":[
		{
			"buffer":0,
			"byteLength":8064,
			"byteOffset":0,
			"target":34962
		},
		{
			"buffer":0,
			"byteLength":8064,
			"byteOffset":8064,
			"target":34962
		},
		{
			"buffer":0,
			"byteLength":5376,
			"byteOffset":16128,
			"target":34962
		},
		{
			"buffer":0,
			"byteLength":10752,
			"byteOffset":21504,
			"target":34962
		},
		{
			"buffer":0,
			"byteLength":2688,
			"byteOffset":32256,
			"target":34962
		},
		{
			"buffer":0,
			"byteLength":10752,
			"byteOffset":34944,
			"target":34962
		},
		{
			"buffer":0,
			"byteLength":4416,
			"byteOffset":45696,
			"target":34963
		},
		{
			"buffer":0,
			"byteLength":1088,
			"byteOffset":50112
		},
		{
			"buffer":0,
			"byteLength":10044,
			"byteOffset":51200,
			"target":34962
		},
		{
			"buffer":0,
			"byteLength":10044,
			"byteOffset":61244,
			"target":34962
		},
		{
			"buffer":0,
			"byteLength":6696,
			"byteOffset":71288,
			"target":34962
		},
		{
			"buffer":0,
			"byteLength":13392,
			"byteOffset":77984,
			"target":34962
		},
		{
			"buffer":0,
			"byteLength":3348,
			"byteOffset":91376,
			"target":34962
		},
		{
			"buffer":0,
			"byteLength":13392,
			"byteOffset":94724,
			"target":34962
		},
		{
			"buffer":0,
			"byteLength":4452,
			"byteOffset":108116,
			"target":34963
		},
		{
			"buffer":0,
			"byteLength":9432,
			"byteOffset":112568,
			"target":34962
		},
		{
			"buffer":0,
			"byteLength":9432,
			"byteOffset":122000,
			"target":34962
		},
		{
			"buffer":0,
			"byteLength":6288,
			"byteOffset":131432,
			"target":34962
		},
		{
			"buffer":0,
			"byteLength":12576,
			"byteOffset":137720,
			"target":34962
		},
		{
			"buffer":0,
			"byteLength":3144,
			"byteOffset":150296,
			"target":34962
		},
		{
			"buffer":0,
			"byteLength":12576,
			"byteOffset":153440,
			"target":34962
		},
		{
			"buffer":0,
			"byteLength":4788,
			"byteOffset":166016,
			"target":34963
		},
		{
			"buffer":0,
			"byteLength":5772,
			"byteOffset":170804,
			"target":34962
		},
		{
			"buffer":0,
			"byteLength":5772,
			"byteOffset":176576,
			"target":34962
		},
		{
			"buffer":0,
			"byteLength":3848,
			"byteOffset":182348,
			"target":34962
		},
		{
			"buffer":0,
			"byteLength":7696,
			"byteOffset":186196,
			"target":34962
		},
		{
			"buffer":0,
			"byteLength":1924,
			"byteOffset":193892,
			"target":34962
		},
		{
			"buffer":0,
			"byteLength":7696,
			"byteOffset":195816,
			"target":34962
		},
		{
			"buffer":0,
			"byteLength":2520,
			"byteOffset":203512,
			"target":34963
		},
		{
			"buffer":0,
			"byteLength":14388,
			"byteOffset":206032,
			"target":34962
		},
		{
			"buffer":0,
			"byteLength":14388,
			"byteOffset":220420,
			"target":34962
		},
		{
			"buffer":0,
			"byteLength":9592,
			"byteOffset":234808,
			"target":34962
		},
		{
			"buffer":0,
			"byteLength":19184,
			"byteOffset":244400,
			"target":34962
		},
		{
			"buffer":0,
			"byteLength":4796,
			"byteOffset":263584,
			"target":34962
		},
		{
			"buffer":0,
			"byteLength":19184,
			"byteOffset":268380,
			"target":34962
		},
		{
			"buffer":0,
			"byteLength":8340,
			"byteOffset":287564,
			"target":34963
		},
		{
			"buffer":0,
			"byteLength":2592,
			"byteOffset":295904,
			"target":34962
		},
		{
			"buffer":0,
			"byteLength":2592,
			"byteOffset":298496,
			"target":34962
		},
		{
			"buffer":0,
			"byteLength":1728,
			"byteOffset":301088,
			"target":34962
		},
		{
			"buffer":0,
			"byteLength":3456,
			"byteOffset":302816,
			"target":34962
		},
		{
			"buffer":0,
			"byteLength":864,
			"byteOffset":306272,
			"target":34962
		},
		{
			"buffer":0,
			"byteLength":3456,
			"byteOffset":307136,
			"target":34962
		},
		{
			"buffer":0,
			"byteLength":1740,
			"byteOffset":310592,
			"target":34963
		},
		{
			"buffer":0,
			"byteLength":7404,
			"byteOffset":312332,
			"target":34962
		},
		{
			"buffer":0,
			"byteLength":7404,
			"byteOffset":319736,
			"target":34962
		},
		{
			"buffer":0,
			"byteLength":4936,
			"byteOffset":327140,
			"target":34962
		},
		{
			"buffer":0,
			"byteLength":9872,
			"byteOffset":332076,
			"target":34962
		},
		{
			"buffer":0,
			"byteLength":2468,
			"byteOffset":341948,
			"target":34962
		},
		{
			"buffer":0,
			"byteLength":9872,
			"byteOffset":344416,
			"target":34962
		},
		{
			"buffer":0,
			"byteLength":3624,
			"byteOffset":354288,
			"target":34963
		},
		{
			"buffer":0,
			"byteLength":9792,
			"byteOffset":357912,
			"target":34962
		},
		{
			"buffer":0,
			"byteLength":9792,
			"byteOffset":367704,
			"target":34962
		},
		{
			"buffer":0,
			"byteLength":6528,
			"byteOffset":377496,
			"target":34962
		},
		{
			"buffer":0,
			"byteLength":13056,
			"byteOffset":384024,
			"target":34962
		},
		{
			"buffer":0,
			"byteLength":3264,
			"byteOffset":397080,
			"target":34962
		},
		{
			"buffer":0,
			"byteLength":13056,
			"byteOffset":400344,
			"target":34962
		},
		{
			"buffer":0,
			"byteLength":4920,
			"byteOffset":413400,
			"target":34963
		},
		{
			"buffer":0,
			"byteLength":2976,
			"byteOffset":418320,
			"target":34962
		},
		{
			"buffer":0,
			"byteLength":2976,
			"byteOffset":421296,
			"target":34962
		},
		{
			"buffer":0,
			"byteLength":1984,
			"byteOffset":424272,
			"target":34962
		},
		{
			"buffer":0,
			"byteLength":3968,
			"byteOffset":426256,
			"target":34962
		},
		{
			"buffer":0,
			"byteLength":992,
			"byteOffset":430224,
			"target":34962
		},
		{
			"buffer":0,
			"byteLength":3968,
			"byteOffset":431216,
			"target":34962
		},
		{
			"buffer":0,
			"byteLength":1308,
			"byteOffset":435184,
			"target":34963
		},
		{
			"buffer":0,
			"byteLength":432,
			"byteOffset":436492,
			"target":34962
		},
		{
			"buffer":0,
			"byteLength":432,
			"byteOffset":436924,
			"target":34962
		},
		{
			"buffer":0,
			"byteLength":288,
			"byteOffset":437356,
			"target":34962
		},
		{
			"buffer":0,
			"byteLength":576,
			"byteOffset":437644,
			"target":34962
		},
		{
			"buffer":0,
			"byteLength":144,
			"byteOffset":438220,
			"target":34962
		},
		{
			"buffer":0,
			"byteLength":576,
			"byteOffset":438364,
			"target":34962
		},
		{
			"buffer":0,
			"byteLength":144,
			"byteOffset":438940,
			"target":34963
		},
		{
			"buffer":0,
			"byteLength":6456,
			"byteOffset":439084,
			"target":34962
		},
		{
			"buffer":0,
			"byteLength":6456,
			"byteOffset":445540,
			"target":34962
		},
		{
			"buffer":0,
			"byteLength":4304,
			"byteOffset":451996,
			"target":34962
		},
		{
			"buffer":0,
			"byteLength":8608,
			"byteOffset":456300,
			"target":34962
		},
		{
			"buffer":0,
			"byteLength":2152,
			"byteOffset":464908,
			"target":34962
		},
		{
			"buffer":0,
			"byteLength":8608,
			"byteOffset":467060,
			"target":34962
		},
		{
			"buffer":0,
			"byteLength":3240,
			"byteOffset":475668,
			"target":34963
		},
		{
			"buffer":0,
			"byteLength":4488,
			"byteOffset":478908,
			"target":34962
		},
		{
			"buffer":0,
			"byteLength":4488,
			"byteOffset":483396,
			"target":34962
		},
		{
			"buffer":0,
			"byteLength":2992,
			"byteOffset":487884,
			"target":34962
		},
		{
			"buffer":0,
			"byteLength":5984,
			"byteOffset":490876,
			"target":34962
		},
		{
			"buffer":0,
			"byteLength":1496,
			"byteOffset":496860,
			"target":34962
		},
		{
			"buffer":0,
			"byteLength":5984,
			"byteOffset":498356,
			"target":34962
		},
		{
			"buffer":0,
			"byteLength":1776,
			"byteOffset":504340,
			"target":34963
		},
		{
			"buffer":0,
			"byteLength":11676,
			"byteOffset":506116,
			"target":34962
		},
		{
			"buffer":0,
			"byteLength":11676,
			"byteOffset":517792,
			"target":34962
		},
		{
			"buffer":0,
			"byteLength":7784,
			"byteOffset":529468,
			"target":34962
		},
		{
			"buffer":0,
			"byteLength":15568,
			"byteOffset":537252,
			"target":34962
		},
		{
			"buffer":0,
			"byteLength":3892,
			"byteOffset":552820,
			"target":34962
		},
		{
			"buffer":0,
			"byteLength":15568,
			"byteOffset":556712,
			"target":34962
		},
		{
			"buffer":0,
			"byteLength":5508,
			"byteOffset":572280,
			"target":34963
		},
		{
			"buffer":0,
			"byteLength":1836,
			"byteOffset":577788,
			"target":34962
		},
		{
			"buffer":0,
			"byteLength":1836,
			"byteOffset":579624,
			"target":34962
		},
		{
			"buffer":0,
			"byteLength":1224,
			"byteOffset":581460,
			"target":34962
		},
		{
			"buffer":0,
			"byteLength":2448,
			"byteOffset":582684,
			"target":34962
		},
		{
			"buffer":0,
			"byteLength":612,
			"byteOffset":585132,
			"target":34962
		},
		{
			"buffer":0,
			"byteLength":2448,
			"byteOffset":585744,
			"target":34962
		},
		{
			"buffer":0,
			"byteLength":768,
			"byteOffset":588192,
			"target":34963
		},
		{
			"buffer":0,
			"byteLength":6852,
			"byteOffset":588960,
			"target":34962
		},
		{
			"buffer":0,
			"byteLength":6852,
			"byteOffset":595812,
			"target":34962
		},
		{
			"buffer":0,
			"byteLength":4568,
			"byteOffset":602664,
			"target":34962
		},
		{
			"buffer":0,
			"byteLength":9136,
			"byteOffset":607232,
			"target":34962
		},
		{
			"buffer":0,
			"byteLength":2284,
			"byteOffset":616368,
			"target":34962
		},
		{
			"buffer":0,
			"byteLength":9136,
			"byteOffset":618652,
			"target":34962
		},
		{
			"buffer":0,
			"byteLength":3984,
			"byteOffset":627788,
			"target":34963
		},
		{
			"buffer":0,
			"byteLength":8628,
			"byteOffset":631772,
			"target":34962
		},
		{
			"buffer":0,
			"byteLength":8628,
			"byteOffset":640400,
			"target":34962
		},
		{
			"buffer":0,
			"byteLength":5752,
			"byteOffset":649028,
			"target":34962
		},
		{
			"buffer":0,
			"byteLength":11504,
			"byteOffset":654780,
			"target":34962
		},
		{
			"buffer":0,
			"byteLength":2876,
			"byteOffset":666284,
			"target":34962
		},
		{
			"buffer":0,
			"byteLength":11504,
			"byteOffset":669160,
			"target":34962
		},
		{
			"buffer":0,
			"byteLength":4704,
			"byteOffset":680664,
			"target":34963
		},
		{
			"buffer":0,
			"byteLength":528,
			"byteOffset":685368,
			"target":34962
		},
		{
			"buffer":0,
			"byteLength":528,
			"byteOffset":685896,
			"target":34962
		},
		{
			"buffer":0,
			"byteLength":352,
			"byteOffset":686424,
			"target":34962
		},
		{
			"buffer":0,
			"byteLength":704,
			"byteOffset":686776,
			"target":34962
		},
		{
			"buffer":0,
			"byteLength":176,
			"byteOffset":687480,
			"target":34962
		},
		{
			"buffer":0,
			"byteLength":704,
			"byteOffset":687656,
			"target":34962
		},
		{
			"buffer":0,
			"byteLength":192,
			"byteOffset":688360,
			"target":34963
		},
		{
			"buffer":0,
			"byteLength":59772,
			"byteOffset":688552,
			"target":34962
		},
		{
			"buffer":0,
			"byteLength":59772,
			"byteOffset":748324,
			"target":34962
		},
		{
			"buffer":0,
			"byteLength":39848,
			"byteOffset":808096,
			"target":34962
		},
		{
			"buffer":0,
			"byteLength":79696,
			"byteOffset":847944,
			"target":34962
		},
		{
			"buffer":0,
			"byteLength":19924,
			"byteOffset":927640,
			"target":34962
		},
		{
			"buffer":0,
			"byteLength":79696,
			"byteOffset":947564,
			"target":34962
		},
		{
			"buffer":0,
			"byteLength":23844,
			"byteOffset":1027260,
			"target":34963
		},
		{
			"buffer":0,
			"byteLength":4980,
			"byteOffset":1051104,
			"target":34962
		},
		{
			"buffer":0,
			"byteLength":4980,
			"byteOffset":1056084,
			"target":34962
		},
		{
			"buffer":0,
			"byteLength":3320,
			"byteOffset":1061064,
			"target":34962
		},
		{
			"buffer":0,
			"byteLength":6640,
			"byteOffset":1064384,
			"target":34962
		},
		{
			"buffer":0,
			"byteLength":1660,
			"byteOffset":1071024,
			"target":34962
		},
		{
			"buffer":0,
			"byteLength":6640,
			"byteOffset":1072684,
			"target":34962
		},
		{
			"buffer":0,
			"byteLength":2280,
			"byteOffset":1079324,
			"target":34963
		},
		{
			"buffer":0,
			"byteLength":38976,
			"byteOffset":1081604,
			"target":34962
		},
		{
			"buffer":0,
			"byteLength":38976,
			"byteOffset":1120580,
			"target":34962
		},
		{
			"buffer":0,
			"byteLength":25984,
			"byteOffset":1159556,
			"target":34962
		},
		{
			"buffer":0,
			"byteLength":51968,
			"byteOffset":1185540,
			"target":34962
		},
		{
			"buffer":0,
			"byteLength":12992,
			"byteOffset":1237508,
			"target":34962
		},
		{
			"buffer":0,
			"byteLength":51968,
			"byteOffset":1250500,
			"target":34962
		},
		{
			"buffer":0,
			"byteLength":18576,
			"byteOffset":1302468,
			"target":34963
		},
		{
			"buffer":0,
			"byteLength":14880,
			"byteOffset":1321044,
			"target":34962
		},
		{
			"buffer":0,
			"byteLength":14880,
			"byteOffset":1335924,
			"target":34962
		},
		{
			"buffer":0,
			"byteLength":9920,
			"byteOffset":1350804,
			"target":34962
		},
		{
			"buffer":0,
			"byteLength":19840,
			"byteOffset":1360724,
			"target":34962
		},
		{
			"buffer":0,
			"byteLength":4960,
			"byteOffset":1380564,
			"target":34962
		},
		{
			"buffer":0,
			"byteLength":19840,
			"byteOffset":1385524,
			"target":34962
		},
		{
			"buffer":0,
			"byteLength":8988,
			"byteOffset":1405364,
			"target":34963
		},
		{
			"buffer":0,
			"byteLength":936,
			"byteOffset":1414352,
			"target":34962
		},
		{
			"buffer":0,
			"byteLength":936,
			"byteOffset":1415288,
			"target":34962
		},
		{
			"buffer":0,
			"byteLength":624,
			"byteOffset":1416224,
			"target":34962
		},
		{
			"buffer":0,
			"byteLength":1248,
			"byteOffset":1416848,
			"target":34962
		},
		{
			"buffer":0,
			"byteLength":312,
			"byteOffset":1418096,
			"target":34962
		},
		{
			"buffer":0,
			"byteLength":1248,
			"byteOffset":1418408,
			"target":34962
		},
		{
			"buffer":0,
			"byteLength":432,
			"byteOffset":1419656,
			"target":34963
		},
		{
			"buffer":0,
			"byteLength":6900,
			"byteOffset":1420088,
			"target":34962
		},
		{
			"buffer":0,
			"byteLength":6900,
			"byteOffset":1426988,
			"target":34962
		},
		{
			"buffer":0,
			"byteLength":4600,
			"byteOffset":1433888,
			"target":34962
		},
		{
			"buffer":0,
			"byteLength":9200,
			"byteOffset":1438488,
			"target":34962
		},
		{
			"buffer":0,
			"byteLength":2300,
			"byteOffset":1447688,
			"target":34962
		},
		{
			"buffer":0,
			"byteLength":9200,
			"byteOffset":1449988,
			"target":34962
		},
		{
			"buffer":0,
			"byteLength":3360,
			"byteOffset":1459188,
			"target":34963
		},
		{
			"buffer":0,
			"byteLength":10332,
			"byteOffset":1462548,
			"target":34962
		},
		{
			"buffer":0,
			"byteLength":10332,
			"byteOffset":1472880,
			"target":34962
		},
		{
			"buffer":0,
			"byteLength":6888,
			"byteOffset":1483212,
			"target":34962
		},
		{
			"buffer":0,
			"byteLength":13776,
			"byteOffset":1490100,
			"target":34962
		},
		{
			"buffer":0,
			"byteLength":3444,
			"byteOffset":1503876,
			"target":34962
		},
		{
			"buffer":0,
			"byteLength":13776,
			"byteOffset":1507320,
			"target":34962
		},
		{
			"buffer":0,
			"byteLength":5796,
			"byteOffset":1521096,
			"target":34963
		},
		{
			"buffer":0,
			"byteLength":52884,
			"byteOffset":1526892,
			"target":34962
		},
		{
			"buffer":0,
			"byteLength":52884,
			"byteOffset":1579776,
			"target":34962
		},
		{
			"buffer":0,
			"byteLength":35256,
			"byteOffset":1632660,
			"target":34962
		},
		{
			"buffer":0,
			"byteLength":70512,
			"byteOffset":1667916,
			"target":34962
		},
		{
			"buffer":0,
			"byteLength":17628,
			"byteOffset":1738428,
			"target":34962
		},
		{
			"buffer":0,
			"byteLength":70512,
			"byteOffset":1756056,
			"target":34962
		},
		{
			"buffer":0,
			"byteLength":25968,
			"byteOffset":1826568,
			"target":34963
		},
		{
			"buffer":0,
			"byteLength":1812,
			"byteOffset":1852536,
			"target":34962
		},
		{
			"buffer":0,
			"byteLength":1812,
			"byteOffset":1854348,
			"target":34962
		},
		{
			"buffer":0,
			"byteLength":1208,
			"byteOffset":1856160,
			"target":34962
		},
		{
			"buffer":0,
			"byteLength":2416,
			"byteOffset":1857368,
			"target":34962
		},
		{
			"buffer":0,
			"byteLength":604,
			"byteOffset":1859784,
			"target":34962
		},
		{
			"buffer":0,
			"byteLength":2416,
			"byteOffset":1860388,
			"target":34962
		},
		{
			"buffer":0,
			"byteLength":768,
			"byteOffset":1862804,
			"target":34963
		},
		{
			"buffer":0,
			"byteLength":2040,
			"byteOffset":1863572,
			"target":34962
		},
		{
			"buffer":0,
			"byteLength":2040,
			"byteOffset":1865612,
			"target":34962
		},
		{
			"buffer":0,
			"byteLength":1360,
			"byteOffset":1867652,
			"target":34962
		},
		{
			"buffer":0,
			"byteLength":2720,
			"byteOffset":1869012,
			"target":34962
		},
		{
			"buffer":0,
			"byteLength":680,
			"byteOffset":1871732,
			"target":34962
		},
		{
			"buffer":0,
			"byteLength":2720,
			"byteOffset":1872412,
			"target":34962
		},
		{
			"buffer":0,
			"byteLength":1140,
			"byteOffset":1875132,
			"target":34963
		},
		{
			"buffer":0,
			"byteLength":1992,
			"byteOffset":1876272,
			"target":34962
		},
		{
			"buffer":0,
			"byteLength":1992,
			"byteOffset":1878264,
			"target":34962
		},
		{
			"buffer":0,
			"byteLength":1328,
			"byteOffset":1880256,
			"target":34962
		},
		{
			"buffer":0,
			"byteLength":2656,
			"byteOffset":1881584,
			"target":34962
		},
		{
			"buffer":0,
			"byteLength":664,
			"byteOffset":1884240,
			"target":34962
		},
		{
			"buffer":0,
			"byteLength":2656,
			"byteOffset":1884904,
			"target":34962
		},
		{
			"buffer":0,
			"byteLength":1140,
			"byteOffset":1887560,
			"target":34963
		},
		{
			"buffer":0,
			"byteLength":84,
			"byteOffset":1888700,
			"target":34962
		},
		{
			"buffer":0,
			"byteLength":84,
			"byteOffset":1888784,
			"target":34962
		},
		{
			"buffer":0,
			"byteLength":56,
			"byteOffset":1888868,
			"target":34962
		},
		{
			"buffer":0,
			"byteLength":112,
			"byteOffset":1888924,
			"target":34962
		},
		{
			"buffer":0,
			"byteLength":28,
			"byteOffset":1889036,
			"target":34962
		},
		{
			"buffer":0,
			"byteLength":112,
			"byteOffset":1889064,
			"target":34962
		},
		{
			"buffer":0,
			"byteLength":30,
			"byteOffset":1889176,
			"target":34963
		},
		{
			"buffer":0,
			"byteLength":468,
			"byteOffset":1889208,
			"target":34962
		},
		{
			"buffer":0,
			"byteLength":468,
			"byteOffset":1889676,
			"target":34962
		},
		{
			"buffer":0,
			"byteLength":312,
			"byteOffset":1890144,
			"target":34962
		},
		{
			"buffer":0,
			"byteLength":624,
			"byteOffset":1890456,
			"target":34962
		},
		{
			"buffer":0,
			"byteLength":156,
			"byteOffset":1891080,
			"target":34962
		},
		{
			"buffer":0,
			"byteLength":624,
			"byteOffset":1891236,
			"target":34962
		},
		{
			"buffer":0,
			"byteLength":114,
			"byteOffset":1891860,
			"target":34963
		},
		{
			"buffer":0,
			"byteLength":4884,
			"byteOffset":1891976,
			"target":34962
		},
		{
			"buffer":0,
			"byteLength":4884,
			"byteOffset":1896860,
			"target":34962
		},
		{
			"buffer":0,
			"byteLength":3256,
			"byteOffset":1901744,
			"target":34962
		},
		{
			"buffer":0,
			"byteLength":6512,
			"byteOffset":1905000,
			"target":34962
		},
		{
			"buffer":0,
			"byteLength":1628,
			"byteOffset":1911512,
			"target":34962
		},
		{
			"buffer":0,
			"byteLength":6512,
			"byteOffset":1913140,
			"target":34962
		},
		{
			"buffer":0,
			"byteLength":2304,
			"byteOffset":1919652,
			"target":34963
		},
		{
			"buffer":0,
			"byteLength":7980,
			"byteOffset":1921956,
			"target":34962
		},
		{
			"buffer":0,
			"byteLength":7980,
			"byteOffset":1929936,
			"target":34962
		},
		{
			"buffer":0,
			"byteLength":5320,
			"byteOffset":1937916,
			"target":34962
		},
		{
			"buffer":0,
			"byteLength":10640,
			"byteOffset":1943236,
			"target":34962
		},
		{
			"buffer":0,
			"byteLength":2660,
			"byteOffset":1953876,
			"target":34962
		},
		{
			"buffer":0,
			"byteLength":10640,
			"byteOffset":1956536,
			"target":34962
		},
		{
			"buffer":0,
			"byteLength":6252,
			"byteOffset":1967176,
			"target":34963
		},
		{
			"buffer":0,
			"byteLength":14028,
			"byteOffset":1973428,
			"target":34962
		},
		{
			"buffer":0,
			"byteLength":14028,
			"byteOffset":1987456,
			"target":34962
		},
		{
			"buffer":0,
			"byteLength":9352,
			"byteOffset":2001484,
			"target":34962
		},
		{
			"buffer":0,
			"byteLength":18704,
			"byteOffset":2010836,
			"target":34962
		},
		{
			"buffer":0,
			"byteLength":4676,
			"byteOffset":2029540,
			"target":34962
		},
		{
			"buffer":0,
			"byteLength":18704,
			"byteOffset":2034216,
			"target":34962
		},
		{
			"buffer":0,
			"byteLength":7020,
			"byteOffset":2052920,
			"target":34963
		},
		{
			"buffer":0,
			"byteLength":1800,
			"byteOffset":2059940,
			"target":34962
		},
		{
			"buffer":0,
			"byteLength":1800,
			"byteOffset":2061740,
			"target":34962
		},
		{
			"buffer":0,
			"byteLength":1200,
			"byteOffset":2063540,
			"target":34962
		},
		{
			"buffer":0,
			"byteLength":2400,
			"byteOffset":2064740,
			"target":34962
		},
		{
			"buffer":0,
			"byteLength":600,
			"byteOffset":2067140,
			"target":34962
		},
		{
			"buffer":0,
			"byteLength":2400,
			"byteOffset":2067740,
			"target":34962
		},
		{
			"buffer":0,
			"byteLength":768,
			"byteOffset":2070140,
			"target":34963
		},
		{
			"buffer":0,
			"byteLength":10932,
			"byteOffset":2070908,
			"target":34962
		},
		{
			"buffer":0,
			"byteLength":10932,
			"byteOffset":2081840,
			"target":34962
		},
		{
			"buffer":0,
			"byteLength":7288,
			"byteOffset":2092772,
			"target":34962
		},
		{
			"buffer":0,
			"byteLength":14576,
			"byteOffset":2100060,
			"target":34962
		},
		{
			"buffer":0,
			"byteLength":3644,
			"byteOffset":2114636,
			"target":34962
		},
		{
			"buffer":0,
			"byteLength":14576,
			"byteOffset":2118280,
			"target":34962
		},
		{
			"buffer":0,
			"byteLength":6612,
			"byteOffset":2132856,
			"target":34963
		},
		{
			"buffer":0,
			"byteLength":6624,
			"byteOffset":2139468,
			"target":34962
		},
		{
			"buffer":0,
			"byteLength":6624,
			"byteOffset":2146092,
			"target":34962
		},
		{
			"buffer":0,
			"byteLength":4416,
			"byteOffset":2152716,
			"target":34962
		},
		{
			"buffer":0,
			"byteLength":8832,
			"byteOffset":2157132,
			"target":34962
		},
		{
			"buffer":0,
			"byteLength":2208,
			"byteOffset":2165964,
			"target":34962
		},
		{
			"buffer":0,
			"byteLength":8832,
			"byteOffset":2168172,
			"target":34962
		},
		{
			"buffer":0,
			"byteLength":1956,
			"byteOffset":2177004,
			"target":34963
		},
		{
			"buffer":0,
			"byteLength":9852,
			"byteOffset":2178960,
			"target":34962
		},
		{
			"buffer":0,
			"byteLength":9852,
			"byteOffset":2188812,
			"target":34962
		},
		{
			"buffer":0,
			"byteLength":6568,
			"byteOffset":2198664,
			"target":34962
		},
		{
			"buffer":0,
			"byteLength":13136,
			"byteOffset":2205232,
			"target":34962
		},
		{
			"buffer":0,
			"byteLength":3284,
			"byteOffset":2218368,
			"target":34962
		},
		{
			"buffer":0,
			"byteLength":13136,
			"byteOffset":2221652,
			"target":34962
		},
		{
			"buffer":0,
			"byteLength":5784,
			"byteOffset":2234788,
			"target":34963
		},
		{
			"buffer":0,
			"byteLength":5040,
			"byteOffset":2240572,
			"target":34962
		},
		{
			"buffer":0,
			"byteLength":5040,
			"byteOffset":2245612,
			"target":34962
		},
		{
			"buffer":0,
			"byteLength":3360,
			"byteOffset":2250652,
			"target":34962
		},
		{
			"buffer":0,
			"byteLength":6720,
			"byteOffset":2254012,
			"target":34962
		},
		{
			"buffer":0,
			"byteLength":1680,
			"byteOffset":2260732,
			"target":34962
		},
		{
			"buffer":0,
			"byteLength":6720,
			"byteOffset":2262412,
			"target":34962
		},
		{
			"buffer":0,
			"byteLength":2544,
			"byteOffset":2269132,
			"target":34963
		},
		{
			"buffer":0,
			"byteLength":33072,
			"byteOffset":2271676,
			"target":34962
		},
		{
			"buffer":0,
			"byteLength":33072,
			"byteOffset":2304748,
			"target":34962
		},
		{
			"buffer":0,
			"byteLength":22048,
			"byteOffset":2337820,
			"target":34962
		},
		{
			"buffer":0,
			"byteLength":44096,
			"byteOffset":2359868,
			"target":34962
		},
		{
			"buffer":0,
			"byteLength":11024,
			"byteOffset":2403964,
			"target":34962
		},
		{
			"buffer":0,
			"byteLength":44096,
			"byteOffset":2414988,
			"target":34962
		},
		{
			"buffer":0,
			"byteLength":15420,
			"byteOffset":2459084,
			"target":34963
		}
	],
	"samplers":[
		{
			"magFilter":9729,
			"minFilter":9987
		}
	],
	"buffers":[
		{
			"byteLength":2474504,
			"uri":"IV7_Carbine_LOD1.bin"
		}
	]
}
