{
	"asset":{
		"generator":"Khronos glTF Blender I/O v4.5.51",
		"version":"2.0"
	},
	"scene":0,
	"scenes":[
		{
			"name":"Scene",
			"nodes":[
				0
			]
		}
	],
	"nodes":[
		{
			"mesh":0,
			"name":"SM_IV7_Magazine"
		}
	],
	"materials":[
		{
			"doubleSided":true,
			"name":"M_IV7_Furniture",
			"normalTexture":{
				"index":0
			},
			"occlusionTexture":{
				"index":1
			},
			"pbrMetallicRoughness":{
				"baseColorTexture":{
					"index":2
				},
				"metallicRoughnessTexture":{
					"index":1
				}
			}
		}
	],
	"meshes":[
		{
			"name":"SM_IV7_Magazine",
			"primitives":[
				{
					"attributes":{
						"POSITION":0,
						"NORMAL":1,
						"TEXCOORD_0":2,
						"TANGENT":3
					},
					"indices":4,
					"material":0
				}
			]
		}
	],
	"textures":[
		{
			"sampler":0,
			"source":0
		},
		{
			"sampler":0,
			"source":1
		},
		{
			"sampler":0,
			"source":2
		}
	],
	"images":[
		{
			"mimeType":"image/png",
			"name":"T_IV7_Furniture_Normal",
			"uri":"textures/T_IV7_Furniture_Normal.png"
		},
		{
			"mimeType":"image/png",
			"name":"T_IV7_Furniture_ORM",
			"uri":"textures/T_IV7_Furniture_ORM.png"
		},
		{
			"mimeType":"image/png",
			"name":"T_IV7_Furniture_BaseColor",
			"uri":"textures/T_IV7_Furniture_BaseColor.png"
		}
	],
	"accessors":[
		{
			"bufferView":0,
			"componentType":5126,
			"count":3295,
			"max":[
				0.07701856642961502,
				0.030379999428987503,
				0.013799999840557575
			],
			"min":[
				-0.013363279402256012,
				-0.1699150949716568,
				-0.013799999840557575
			],
			"type":"VEC3"
		},
		{
			"bufferView":1,
			"componentType":5126,
			"count":3295,
			"type":"VEC3"
		},
		{
			"bufferView":2,
			"componentType":5126,
			"count":3295,
			"type":"VEC2"
		},
		{
			"bufferView":3,
			"componentType":5126,
			"count":3295,
			"type":"VEC4"
		},
		{
			"bufferView":4,
			"componentType":5123,
			"count":12348,
			"type":"SCALAR"
		}
	],
	"bufferViews":[
		{
			"buffer":0,
			"byteLength":39540,
			"byteOffset":0,
			"target":34962
		},
		{
			"buffer":0,
			"byteLength":39540,
			"byteOffset":39540,
			"target":34962
		},
		{
			"buffer":0,
			"byteLength":26360,
			"byteOffset":79080,
			"target":34962
		},
		{
			"buffer":0,
			"byteLength":52720,
			"byteOffset":105440,
			"target":34962
		},
		{
			"buffer":0,
			"byteLength":24696,
			"byteOffset":158160,
			"target":34963
		}
	],
	"samplers":[
		{
			"magFilter":9729,
			"minFilter":9987
		}
	],
	"buffers":[
		{
			"byteLength":182856,
			"uri":"IV7_Magazine.bin"
		}
	]
}
