{
	"asset":{
		"generator":"Khronos glTF Blender I/O v4.5.51",
		"version":"2.0"
	},
	"extensionsUsed":[
		"KHR_materials_emissive_strength",
		"KHR_materials_specular",
		"KHR_materials_ior"
	],
	"scene":0,
	"scenes":[
		{
			"name":"Scene",
			"nodes":[
				55
			]
		}
	],
	"nodes":[
		{
			"name":"magazine",
			"translation":[
				0.10385730117559433,
				0,
				0.04912326857447624
			]
		},
		{
			"name":"charging_handle",
			"translation":[
				0.012357300147414207,
				0,
				0.11122327297925949
			]
		},
		{
			"name":"bolt_carrier",
			"translation":[
				0.08685729652643204,
				0,
				0.09172327071428299
			]
		},
		{
			"name":"dust_cover",
			"translation":[
				0.11535730212926865,
				-0.017999999225139618,
				0.07822327315807343
			]
		},
		{
			"name":"trigger",
			"translation":[
				0.054857298731803894,
				0,
				0.05072326958179474
			]
		},
		{
			"name":"selector",
			"translation":[
				0.04085730016231537,
				0,
				0.058723270893096924
			]
		},
		{
			"name":"bolt_catch",
			"translation":[
				0.07185730338096619,
				0.013000000268220901,
				0.06722327321767807
			]
		},
		{
			"name":"mag_release",
			"translation":[
				0.10385730117559433,
				-0.016499999910593033,
				0.04912326857447624
			]
		},
		{
			"name":"rear_sight",
			"translation":[
				0.08385729789733887,
				0,
				0.13692326843738556
			]
		},
		{
			"name":"front_sight",
			"translation":[
				0.5008572936058044,
				0,
				0.13692326843738556
			]
		},
		{
			"name":"socket_muzzle",
			"translation":[
				0.5758572816848755,
				0,
				0.09172327071428299
			]
		},
		{
			"name":"socket_ads",
			"translation":[
				0.017857300117611885,
				0,
				0.1617232710123062
			]
		},
		{
			"name":"socket_support_hand",
			"translation":[
				0.33685728907585144,
				0,
				0.06472326815128326
			]
		},
		{
			"name":"socket_firing_hand"
		},
		{
			"name":"socket_eject",
			"translation":[
				0.11535730212926865,
				-0.015000000596046448,
				0.09172327071428299
			]
		},
		{
			"name":"socket_mag",
			"translation":[
				0.12535730004310608,
				0,
				0.0037232704926282167
			]
		},
		{
			"children":[
				0,
				1,
				2,
				3,
				4,
				5,
				6,
				7,
				8,
				9,
				10,
				11,
				12,
				13,
				14,
				15
			],
			"name":"root",
			"rotation":[
				-0.7071067690849304,
				0,
				0,
				0.7071067690849304
			]
		},
		{
			"mesh":0,
			"name":"Barrel",
			"skin":0
		},
		{
			"mesh":1,
			"name":"BarrelNut",
			"skin":0
		},
		{
			"mesh":2,
			"name":"BoltCarrier",
			"skin":0
		},
		{
			"mesh":3,
			"name":"BoltCatch",
			"skin":0
		},
		{
			"mesh":4,
			"name":"BufferTube",
			"skin":0
		},
		{
			"mesh":5,
			"name":"ButtPad",
			"skin":0
		},
		{
			"mesh":6,
			"name":"CastleNut",
			"skin":0
		},
		{
			"mesh":7,
			"name":"ChargingHandle",
			"skin":0
		},
		{
			"mesh":8,
			"name":"DustCover",
			"skin":0
		},
		{
			"mesh":9,
			"name":"DustCoverRod",
			"skin":0
		},
		{
			"mesh":10,
			"name":"EndPlate",
			"skin":0
		},
		{
			"mesh":11,
			"name":"ForwardAssist",
			"skin":0
		},
		{
			"mesh":12,
			"name":"FrontSightBase",
			"skin":0
		},
		{
			"mesh":13,
			"name":"FrontSightBolt",
			"skin":0
		},
		{
			"mesh":14,
			"name":"FrontSightLeaf",
			"skin":0
		},
		{
			"mesh":15,
			"name":"GasBlock",
			"skin":0
		},
		{
			"mesh":16,
			"name":"GasTube",
			"skin":0
		},
		{
			"mesh":17,
			"name":"Handguard",
			"skin":0
		},
		{
			"mesh":18,
			"name":"HandguardScrews",
			"skin":0
		},
		{
			"mesh":19,
			"name":"LowerReceiver",
			"skin":0
		},
		{
			"mesh":20,
			"name":"Magazine",
			"skin":0
		},
		{
			"mesh":21,
			"name":"MagRelease",
			"skin":0
		},
		{
			"mesh":22,
			"name":"MagRounds",
			"skin":0
		},
		{
			"mesh":23,
			"name":"MuzzleDevice",
			"skin":0
		},
		{
			"mesh":24,
			"name":"Optic",
			"skin":0
		},
		{
			"mesh":25,
			"name":"OpticBolt",
			"skin":0
		},
		{
			"mesh":26,
			"name":"OpticLensFront",
			"skin":0
		},
		{
			"mesh":27,
			"name":"OpticLensRear",
			"skin":0
		},
		{
			"mesh":28,
			"name":"OpticReticle",
			"skin":0
		},
		{
			"mesh":29,
			"name":"Pins",
			"skin":0
		},
		{
			"mesh":30,
			"name":"PistolGrip",
			"skin":0
		},
		{
			"mesh":31,
			"name":"RearSightBase",
			"skin":0
		},
		{
			"mesh":32,
			"name":"RearSightBolt",
			"skin":0
		},
		{
			"mesh":33,
			"name":"RearSightLeaf",
			"skin":0
		},
		{
			"mesh":34,
			"name":"Selector",
			"skin":0
		},
		{
			"mesh":35,
			"name":"Stock",
			"skin":0
		},
		{
			"mesh":36,
			"name":"Trigger",
			"skin":0
		},
		{
			"mesh":37,
			"name":"UpperReceiver",
			"skin":0
		},
		{
			"children":[
				17,
				18,
				19,
				20,
				21,
				22,
				23,
				24,
				25,
				26,
				27,
				28,
				29,
				30,
				31,
				32,
				33,
				34,
				35,
				36,
				37,
				38,
				39,
				40,
				41,
				42,
				43,
				44,
				45,
				46,
				47,
				48,
				49,
				50,
				51,
				52,
				53,
				54,
				16
			],
			"name":"SK_IV7"
		}
	],
	"materials":[
		{
			"doubleSided":true,
			"name":"M_IV7_Body",
			"normalTexture":{
				"index":0
			},
			"occlusionTexture":{
				"index":1
			},
			"pbrMetallicRoughness":{
				"baseColorTexture":{
					"index":2
				},
				"metallicRoughnessTexture":{
					"index":1
				}
			}
		},
		{
			"doubleSided":true,
			"name":"M_IV7_Furniture",
			"normalTexture":{
				"index":3
			},
			"occlusionTexture":{
				"index":4
			},
			"pbrMetallicRoughness":{
				"baseColorTexture":{
					"index":5
				},
				"metallicRoughnessTexture":{
					"index":4
				}
			}
		},
		{
			"alphaMode":"BLEND",
			"doubleSided":true,
			"extensions":{
				"KHR_materials_specular":{
					"specularColorFactor":[
						0.7700000035762784,
						1.0919999413490302,
						1.399999976158142
					]
				},
				"KHR_materials_ior":{
					"ior":1.5199999809265137
				}
			},
			"name":"M_IV7_Glass",
			"pbrMetallicRoughness":{
				"baseColorFactor":[
					0.024000000208616257,
					0.029999999329447746,
					0.035999998450279236,
					0.05000000074505806
				],
				"metallicFactor":0,
				"roughnessFactor":0.029999999329447746
			}
		},
		{
			"doubleSided":true,
			"emissiveFactor":[
				1,
				0.019999999552965164,
				0.009999999776482582
			],
			"extensions":{
				"KHR_materials_emissive_strength":{
					"emissiveStrength":8
				}
			},
			"name":"M_IV7_Reticle",
			"pbrMetallicRoughness":{
				"baseColorFactor":[
					1,
					0.019999999552965164,
					0.009999999776482582,
					1
				],
				"metallicFactor":0,
				"roughnessFactor":0.4000000059604645
			}
		},
		{
			"doubleSided":true,
			"name":"M_IV7_ReticleMask",
			"pbrMetallicRoughness":{
				"baseColorFactor":[
					0.009999999776482582,
					0.009999999776482582,
					0.009999999776482582,
					1
				],
				"metallicFactor":0,
				"roughnessFactor":0.5
			}
		}
	],
	"meshes":[
		{
			"name":"Barrel.002",
			"primitives":[
				{
					"attributes":{
						"POSITION":0,
						"NORMAL":1,
						"TEXCOORD_0":2,
						"TANGENT":3,
						"JOINTS_0":4,
						"WEIGHTS_0":5
					},
					"indices":6,
					"material":0
				}
			]
		},
		{
			"name":"BarrelNut.001",
			"primitives":[
				{
					"attributes":{
						"POSITION":8,
						"NORMAL":9,
						"TEXCOORD_0":10,
						"TANGENT":11,
						"JOINTS_0":12,
						"WEIGHTS_0":13
					},
					"indices":14,
					"material":0
				}
			]
		},
		{
			"name":"BoltCarrier.003",
			"primitives":[
				{
					"attributes":{
						"POSITION":15,
						"NORMAL":16,
						"TEXCOORD_0":17,
						"TANGENT":18,
						"JOINTS_0":19,
						"WEIGHTS_0":20
					},
					"indices":21,
					"material":0
				}
			]
		},
		{
			"name":"BoltCatch.003",
			"primitives":[
				{
					"attributes":{
						"POSITION":22,
						"NORMAL":23,
						"TEXCOORD_0":24,
						"TANGENT":25,
						"JOINTS_0":26,
						"WEIGHTS_0":27
					},
					"indices":28,
					"material":0
				}
			]
		},
		{
			"name":"BufferTube.002",
			"primitives":[
				{
					"attributes":{
						"POSITION":29,
						"NORMAL":30,
						"TEXCOORD_0":31,
						"TANGENT":32,
						"JOINTS_0":33,
						"WEIGHTS_0":34
					},
					"indices":35,
					"material":0
				}
			]
		},
		{
			"name":"ButtPad.002",
			"primitives":[
				{
					"attributes":{
						"POSITION":36,
						"NORMAL":37,
						"TEXCOORD_0":38,
						"TANGENT":39,
						"JOINTS_0":40,
						"WEIGHTS_0":41
					},
					"indices":42,
					"material":1
				}
			]
		},
		{
			"name":"CastleNut.001",
			"primitives":[
				{
					"attributes":{
						"POSITION":43,
						"NORMAL":44,
						"TEXCOORD_0":45,
						"TANGENT":46,
						"JOINTS_0":47,
						"WEIGHTS_0":48
					},
					"indices":49,
					"material":0
				}
			]
		},
		{
			"name":"ChargingHandle.004",
			"primitives":[
				{
					"attributes":{
						"POSITION":50,
						"NORMAL":51,
						"TEXCOORD_0":52,
						"TANGENT":53,
						"JOINTS_0":54,
						"WEIGHTS_0":55
					},
					"indices":56,
					"material":0
				}
			]
		},
		{
			"name":"DustCover.002",
			"primitives":[
				{
					"attributes":{
						"POSITION":57,
						"NORMAL":58,
						"TEXCOORD_0":59,
						"TANGENT":60,
						"JOINTS_0":61,
						"WEIGHTS_0":62
					},
					"indices":63,
					"material":0
				}
			]
		},
		{
			"name":"DustCoverRod.002",
			"primitives":[
				{
					"attributes":{
						"POSITION":64,
						"NORMAL":65,
						"TEXCOORD_0":66,
						"TANGENT":67,
						"JOINTS_0":68,
						"WEIGHTS_0":69
					},
					"indices":70,
					"material":0
				}
			]
		},
		{
			"name":"EndPlate.002",
			"primitives":[
				{
					"attributes":{
						"POSITION":71,
						"NORMAL":72,
						"TEXCOORD_0":73,
						"TANGENT":74,
						"JOINTS_0":75,
						"WEIGHTS_0":76
					},
					"indices":77,
					"material":0
				}
			]
		},
		{
			"name":"ForwardAssist.003",
			"primitives":[
				{
					"attributes":{
						"POSITION":78,
						"NORMAL":79,
						"TEXCOORD_0":80,
						"TANGENT":81,
						"JOINTS_0":82,
						"WEIGHTS_0":83
					},
					"indices":84,
					"material":0
				}
			]
		},
		{
			"name":"FrontSightBase.002",
			"primitives":[
				{
					"attributes":{
						"POSITION":85,
						"NORMAL":86,
						"TEXCOORD_0":87,
						"TANGENT":88,
						"JOINTS_0":89,
						"WEIGHTS_0":90
					},
					"indices":91,
					"material":0
				}
			]
		},
		{
			"name":"FrontSightBolt.002",
			"primitives":[
				{
					"attributes":{
						"POSITION":92,
						"NORMAL":93,
						"TEXCOORD_0":94,
						"TANGENT":95,
						"JOINTS_0":96,
						"WEIGHTS_0":97
					},
					"indices":98,
					"material":0
				}
			]
		},
		{
			"name":"FrontSightLeaf.002",
			"primitives":[
				{
					"attributes":{
						"POSITION":99,
						"NORMAL":100,
						"TEXCOORD_0":101,
						"TANGENT":102,
						"JOINTS_0":103,
						"WEIGHTS_0":104
					},
					"indices":105,
					"material":0
				}
			]
		},
		{
			"name":"GasBlock.002",
			"primitives":[
				{
					"attributes":{
						"POSITION":106,
						"NORMAL":107,
						"TEXCOORD_0":108,
						"TANGENT":109,
						"JOINTS_0":110,
						"WEIGHTS_0":111
					},
					"indices":112,
					"material":0
				}
			]
		},
		{
			"name":"GasTube.002",
			"primitives":[
				{
					"attributes":{
						"POSITION":113,
						"NORMAL":114,
						"TEXCOORD_0":115,
						"TANGENT":116,
						"JOINTS_0":117,
						"WEIGHTS_0":118
					},
					"indices":119,
					"material":0
				}
			]
		},
		{
			"name":"Handguard.003",
			"primitives":[
				{
					"attributes":{
						"POSITION":120,
						"NORMAL":121,
						"TEXCOORD_0":122,
						"TANGENT":123,
						"JOINTS_0":124,
						"WEIGHTS_0":125
					},
					"indices":126,
					"material":0
				}
			]
		},
		{
			"name":"HandguardScrews.002",
			"primitives":[
				{
					"attributes":{
						"POSITION":127,
						"NORMAL":128,
						"TEXCOORD_0":129,
						"TANGENT":130,
						"JOINTS_0":131,
						"WEIGHTS_0":132
					},
					"indices":133,
					"material":0
				}
			]
		},
		{
			"name":"LowerReceiver.001",
			"primitives":[
				{
					"attributes":{
						"POSITION":134,
						"NORMAL":135,
						"TEXCOORD_0":136,
						"TANGENT":137,
						"JOINTS_0":138,
						"WEIGHTS_0":139
					},
					"indices":140,
					"material":0
				}
			]
		},
		{
			"name":"Magazine.003",
			"primitives":[
				{
					"attributes":{
						"POSITION":141,
						"NORMAL":142,
						"TEXCOORD_0":143,
						"TANGENT":144,
						"JOINTS_0":145,
						"WEIGHTS_0":146
					},
					"indices":147,
					"material":1
				}
			]
		},
		{
			"name":"MagRelease.002",
			"primitives":[
				{
					"attributes":{
						"POSITION":148,
						"NORMAL":149,
						"TEXCOORD_0":150,
						"TANGENT":151,
						"JOINTS_0":152,
						"WEIGHTS_0":153
					},
					"indices":154,
					"material":0
				}
			]
		},
		{
			"name":"MagRounds.002",
			"primitives":[
				{
					"attributes":{
						"POSITION":155,
						"NORMAL":156,
						"TEXCOORD_0":157,
						"TANGENT":158,
						"JOINTS_0":159,
						"WEIGHTS_0":160
					},
					"indices":161,
					"material":1
				}
			]
		},
		{
			"name":"MuzzleDevice.001",
			"primitives":[
				{
					"attributes":{
						"POSITION":162,
						"NORMAL":163,
						"TEXCOORD_0":164,
						"TANGENT":165,
						"JOINTS_0":166,
						"WEIGHTS_0":167
					},
					"indices":168,
					"material":0
				}
			]
		},
		{
			"name":"Optic.001",
			"primitives":[
				{
					"attributes":{
						"POSITION":169,
						"NORMAL":170,
						"TEXCOORD_0":171,
						"TANGENT":172,
						"JOINTS_0":173,
						"WEIGHTS_0":174
					},
					"indices":175,
					"material":0
				}
			]
		},
		{
			"name":"OpticBolt.002",
			"primitives":[
				{
					"attributes":{
						"POSITION":176,
						"NORMAL":177,
						"TEXCOORD_0":178,
						"TANGENT":179,
						"JOINTS_0":180,
						"WEIGHTS_0":181
					},
					"indices":182,
					"material":0
				}
			]
		},
		{
			"name":"OpticLensFront.002",
			"primitives":[
				{
					"attributes":{
						"POSITION":183,
						"NORMAL":184,
						"TEXCOORD_0":185,
						"TANGENT":186,
						"JOINTS_0":187,
						"WEIGHTS_0":188
					},
					"indices":189,
					"material":2
				}
			]
		},
		{
			"name":"OpticLensRear.002",
			"primitives":[
				{
					"attributes":{
						"POSITION":190,
						"NORMAL":191,
						"TEXCOORD_0":192,
						"TANGENT":193,
						"JOINTS_0":194,
						"WEIGHTS_0":195
					},
					"indices":196,
					"material":2
				}
			]
		},
		{
			"name":"OpticReticle.002",
			"primitives":[
				{
					"attributes":{
						"POSITION":197,
						"NORMAL":198,
						"TEXCOORD_0":199,
						"TANGENT":200,
						"JOINTS_0":201,
						"WEIGHTS_0":202
					},
					"indices":203,
					"material":3
				},
				{
					"attributes":{
						"POSITION":204,
						"NORMAL":205,
						"TEXCOORD_0":206,
						"TANGENT":207,
						"JOINTS_0":208,
						"WEIGHTS_0":209
					},
					"indices":210,
					"material":4
				}
			]
		},
		{
			"name":"Pins.002",
			"primitives":[
				{
					"attributes":{
						"POSITION":211,
						"NORMAL":212,
						"TEXCOORD_0":213,
						"TANGENT":214,
						"JOINTS_0":215,
						"WEIGHTS_0":216
					},
					"indices":217,
					"material":0
				}
			]
		},
		{
			"name":"PistolGrip.002",
			"primitives":[
				{
					"attributes":{
						"POSITION":218,
						"NORMAL":219,
						"TEXCOORD_0":220,
						"TANGENT":221,
						"JOINTS_0":222,
						"WEIGHTS_0":223
					},
					"indices":224,
					"material":1
				}
			]
		},
		{
			"name":"RearSightBase.001",
			"primitives":[
				{
					"attributes":{
						"POSITION":225,
						"NORMAL":226,
						"TEXCOORD_0":227,
						"TANGENT":228,
						"JOINTS_0":229,
						"WEIGHTS_0":230
					},
					"indices":231,
					"material":0
				}
			]
		},
		{
			"name":"RearSightBolt.002",
			"primitives":[
				{
					"attributes":{
						"POSITION":232,
						"NORMAL":233,
						"TEXCOORD_0":234,
						"TANGENT":235,
						"JOINTS_0":236,
						"WEIGHTS_0":237
					},
					"indices":238,
					"material":0
				}
			]
		},
		{
			"name":"RearSightLeaf.001",
			"primitives":[
				{
					"attributes":{
						"POSITION":239,
						"NORMAL":240,
						"TEXCOORD_0":241,
						"TANGENT":242,
						"JOINTS_0":243,
						"WEIGHTS_0":244
					},
					"indices":245,
					"material":0
				}
			]
		},
		{
			"name":"Selector.001",
			"primitives":[
				{
					"attributes":{
						"POSITION":246,
						"NORMAL":247,
						"TEXCOORD_0":248,
						"TANGENT":249,
						"JOINTS_0":250,
						"WEIGHTS_0":251
					},
					"indices":252,
					"material":0
				}
			]
		},
		{
			"name":"Stock.002",
			"primitives":[
				{
					"attributes":{
						"POSITION":253,
						"NORMAL":254,
						"TEXCOORD_0":255,
						"TANGENT":256,
						"JOINTS_0":257,
						"WEIGHTS_0":258
					},
					"indices":259,
					"material":1
				}
			]
		},
		{
			"name":"Trigger.002",
			"primitives":[
				{
					"attributes":{
						"POSITION":260,
						"NORMAL":261,
						"TEXCOORD_0":262,
						"TANGENT":263,
						"JOINTS_0":264,
						"WEIGHTS_0":265
					},
					"indices":266,
					"material":0
				}
			]
		},
		{
			"name":"UpperReceiver.003",
			"primitives":[
				{
					"attributes":{
						"POSITION":267,
						"NORMAL":268,
						"TEXCOORD_0":269,
						"TANGENT":270,
						"JOINTS_0":271,
						"WEIGHTS_0":272
					},
					"indices":273,
					"material":0
				}
			]
		}
	],
	"textures":[
		{
			"sampler":0,
			"source":0
		},
		{
			"sampler":0,
			"source":1
		},
		{
			"sampler":0,
			"source":2
		},
		{
			"sampler":0,
			"source":3
		},
		{
			"sampler":0,
			"source":4
		},
		{
			"sampler":0,
			"source":5
		}
	],
	"images":[
		{
			"mimeType":"image/png",
			"name":"T_IV7_Body_Normal",
			"uri":"textures/T_IV7_Body_Normal.png"
		},
		{
			"mimeType":"image/png",
			"name":"T_IV7_Body_ORM",
			"uri":"textures/T_IV7_Body_ORM.png"
		},
		{
			"mimeType":"image/png",
			"name":"T_IV7_Body_BaseColor",
			"uri":"textures/T_IV7_Body_BaseColor.png"
		},
		{
			"mimeType":"image/png",
			"name":"T_IV7_Furniture_Normal",
			"uri":"textures/T_IV7_Furniture_Normal.png"
		},
		{
			"mimeType":"image/png",
			"name":"T_IV7_Furniture_ORM",
			"uri":"textures/T_IV7_Furniture_ORM.png"
		},
		{
			"mimeType":"image/png",
			"name":"T_IV7_Furniture_BaseColor",
			"uri":"textures/T_IV7_Furniture_BaseColor.png"
		}
	],
	"skins":[
		{
			"inverseBindMatrices":7,
			"joints":[
				16,
				0,
				1,
				2,
				3,
				4,
				5,
				6,
				7,
				8,
				9,
				10,
				11,
				12,
				13,
				14,
				15
			],
			"name":"SK_IV7"
		}
	],
	"accessors":[
		{
			"bufferView":0,
			"componentType":5126,
			"count":1111,
			"max":[
				0.5348572731018066,
				0.10422326624393463,
				0.01249999925494194
			],
			"min":[
				0.14885729551315308,
				0.07922327518463135,
				-0.01249999925494194
			],
			"type":"VEC3"
		},
		{
			"bufferView":1,
			"componentType":5126,
			"count":1111,
			"type":"VEC3"
		},
		{
			"bufferView":2,
			"componentType":5126,
			"count":1111,
			"type":"VEC2"
		},
		{
			"bufferView":3,
			"componentType":5126,
			"count":1111,
			"type":"VEC4"
		},
		{
			"bufferView":4,
			"componentType":5121,
			"count":1111,
			"type":"VEC4"
		},
		{
			"bufferView":5,
			"componentType":5126,
			"count":1111,
			"type":"VEC4"
		},
		{
			"bufferView":6,
			"componentType":5123,
			"count":4416,
			"type":"SCALAR"
		},
		{
			"bufferView":7,
			"componentType":5126,
			"count":17,
			"type":"MAT4"
		},
		{
			"bufferView":8,
			"componentType":5126,
			"count":1263,
			"max":[
				0.2228572964668274,
				0.10863864421844482,
				0.01720000058412552
			],
			"min":[
				0.1968573033809662,
				0.07452327013015747,
				-0.01720000058412552
			],
			"type":"VEC3"
		},
		{
			"bufferView":9,
			"componentType":5126,
			"count":1263,
			"type":"VEC3"
		},
		{
			"bufferView":10,
			"componentType":5126,
			"count":1263,
			"type":"VEC2"
		},
		{
			"bufferView":11,
			"componentType":5126,
			"count":1263,
			"type":"VEC4"
		},
		{
			"bufferView":12,
			"componentType":5121,
			"count":1263,
			"type":"VEC4"
		},
		{
			"bufferView":13,
			"componentType":5126,
			"count":1263,
			"type":"VEC4"
		},
		{
			"bufferView":14,
			"componentType":5123,
			"count":4452,
			"type":"SCALAR"
		},
		{
			"bufferView":15,
			"componentType":5126,
			"count":1345,
			"max":[
				0.1483573019504547,
				0.1032232716679573,
				0.011499999091029167
			],
			"min":[
				0.02385731041431427,
				0.08022326976060867,
				-0.011499999091029167
			],
			"type":"VEC3"
		},
		{
			"bufferView":16,
			"componentType":5126,
			"count":1345,
			"type":"VEC3"
		},
		{
			"bufferView":17,
			"componentType":5126,
			"count":1345,
			"type":"VEC2"
		},
		{
			"bufferView":18,
			"componentType":5126,
			"count":1345,
			"type":"VEC4"
		},
		{
			"bufferView":19,
			"componentType":5121,
			"count":1345,
			"type":"VEC4"
		},
		{
			"bufferView":20,
			"componentType":5126,
			"count":1345,
			"type":"VEC4"
		},
		{
			"bufferView":21,
			"componentType":5123,
			"count":4788,
			"type":"SCALAR"
		},
		{
			"bufferView":22,
			"componentType":5126,
			"count":817,
			"max":[
				0.08685730397701263,
				0.06921058893203735,
				-0.012000488117337227
			],
			"min":[
				0.06785731017589569,
				0.05472327023744583,
				-0.016200488433241844
			],
			"type":"VEC3"
		},
		{
			"bufferView":23,
			"componentType":5126,
			"count":817,
			"type":"VEC3"
		},
		{
			"bufferView":24,
			"componentType":5126,
			"count":817,
			"type":"VEC2"
		},
		{
			"bufferView":25,
			"componentType":5126,
			"count":817,
			"type":"VEC4"
		},
		{
			"bufferView":26,
			"componentType":5121,
			"count":817,
			"type":"VEC4"
		},
		{
			"bufferView":27,
			"componentType":5126,
			"count":817,
			"type":"VEC4"
		},
		{
			"bufferView":28,
			"componentType":5123,
			"count":2526,
			"type":"SCALAR"
		},
		{
			"bufferView":29,
			"componentType":5126,
			"count":2063,
			"max":[
				0.0043573081493377686,
				0.10622327029705048,
				0.014500000514090061
			],
			"min":[
				-0.19314268231391907,
				0.07422327250242233,
				-0.014500000514090061
			],
			"type":"VEC3"
		},
		{
			"bufferView":30,
			"componentType":5126,
			"count":2063,
			"type":"VEC3"
		},
		{
			"bufferView":31,
			"componentType":5126,
			"count":2063,
			"type":"VEC2"
		},
		{
			"bufferView":32,
			"componentType":5126,
			"count":2063,
			"type":"VEC4"
		},
		{
			"bufferView":33,
			"componentType":5121,
			"count":2063,
			"type":"VEC4"
		},
		{
			"bufferView":34,
			"componentType":5126,
			"count":2063,
			"type":"VEC4"
		},
		{
			"bufferView":35,
			"componentType":5123,
			"count":8346,
			"type":"SCALAR"
		},
		{
			"bufferView":36,
			"componentType":5126,
			"count":384,
			"max":[
				-0.26614266633987427,
				0.12392327189445496,
				0.02199999988079071
			],
			"min":[
				-0.2841426730155945,
				-0.002476729452610016,
				-0.02199999988079071
			],
			"type":"VEC3"
		},
		{
			"bufferView":37,
			"componentType":5126,
			"count":384,
			"type":"VEC3"
		},
		{
			"bufferView":38,
			"componentType":5126,
			"count":384,
			"type":"VEC2"
		},
		{
			"bufferView":39,
			"componentType":5126,
			"count":384,
			"type":"VEC4"
		},
		{
			"bufferView":40,
			"componentType":5121,
			"count":384,
			"type":"VEC4"
		},
		{
			"bufferView":41,
			"componentType":5126,
			"count":384,
			"type":"VEC4"
		},
		{
			"bufferView":42,
			"componentType":5123,
			"count":1740,
			"type":"SCALAR"
		},
		{
			"bufferView":43,
			"componentType":5126,
			"count":929,
			"max":[
				-0.0009427070617675781,
				0.10792326927185059,
				0.016200000420212746
			],
			"min":[
				-0.008642688393592834,
				0.0755232721567154,
				-0.016200000420212746
			],
			"type":"VEC3"
		},
		{
			"bufferView":44,
			"componentType":5126,
			"count":929,
			"type":"VEC3"
		},
		{
			"bufferView":45,
			"componentType":5126,
			"count":929,
			"type":"VEC2"
		},
		{
			"bufferView":46,
			"componentType":5126,
			"count":929,
			"type":"VEC4"
		},
		{
			"bufferView":47,
			"componentType":5121,
			"count":929,
			"type":"VEC4"
		},
		{
			"bufferView":48,
			"componentType":5126,
			"count":929,
			"type":"VEC4"
		},
		{
			"bufferView":49,
			"componentType":5123,
			"count":3624,
			"type":"SCALAR"
		},
		{
			"bufferView":50,
			"componentType":5126,
			"count":1380,
			"max":[
				0.14385730028152466,
				0.11502327024936676,
				0.024075239896774292
			],
			"min":[
				0.003057315945625305,
				0.1080232709646225,
				-0.024075239896774292
			],
			"type":"VEC3"
		},
		{
			"bufferView":51,
			"componentType":5126,
			"count":1380,
			"type":"VEC3"
		},
		{
			"bufferView":52,
			"componentType":5126,
			"count":1380,
			"type":"VEC2"
		},
		{
			"bufferView":53,
			"componentType":5126,
			"count":1380,
			"type":"VEC4"
		},
		{
			"bufferView":54,
			"componentType":5121,
			"count":1380,
			"type":"VEC4"
		},
		{
			"bufferView":55,
			"componentType":5126,
			"count":1380,
			"type":"VEC4"
		},
		{
			"bufferView":56,
			"componentType":5123,
			"count":4926,
			"type":"SCALAR"
		},
		{
			"bufferView":57,
			"componentType":5126,
			"count":378,
			"max":[
				0.14785730838775635,
				0.08021839708089828,
				0.022398989647626877
			],
			"min":[
				0.08285731077194214,
				0.05387675017118454,
				0.016004519537091255
			],
			"type":"VEC3"
		},
		{
			"bufferView":58,
			"componentType":5126,
			"count":378,
			"type":"VEC3"
		},
		{
			"bufferView":59,
			"componentType":5126,
			"count":378,
			"type":"VEC2"
		},
		{
			"bufferView":60,
			"componentType":5126,
			"count":378,
			"type":"VEC4"
		},
		{
			"bufferView":61,
			"componentType":5121,
			"count":378,
			"type":"VEC4"
		},
		{
			"bufferView":62,
			"componentType":5126,
			"count":378,
			"type":"VEC4"
		},
		{
			"bufferView":63,
			"componentType":5123,
			"count":1308,
			"type":"SCALAR"
		},
		{
			"bufferView":64,
			"componentType":5126,
			"count":58,
			"max":[
				0.15435729920864105,
				0.07912327349185944,
				0.01889999955892563
			],
			"min":[
				0.07635730504989624,
				0.07732327282428741,
				0.017100000753998756
			],
			"type":"VEC3"
		},
		{
			"bufferView":65,
			"componentType":5126,
			"count":58,
			"type":"VEC3"
		},
		{
			"bufferView":66,
			"componentType":5126,
			"count":58,
			"type":"VEC2"
		},
		{
			"bufferView":67,
			"componentType":5126,
			"count":58,
			"type":"VEC4"
		},
		{
			"bufferView":68,
			"componentType":5121,
			"count":58,
			"type":"VEC4"
		},
		{
			"bufferView":69,
			"componentType":5126,
			"count":58,
			"type":"VEC4"
		},
		{
			"bufferView":70,
			"componentType":5123,
			"count":144,
			"type":"SCALAR"
		},
		{
			"bufferView":71,
			"componentType":5126,
			"count":846,
			"max":[
				0.0018573105335235596,
				0.1072232723236084,
				0.01640000008046627
			],
			"min":[
				-0.0009427070617675781,
				0.07532326877117157,
				-0.027699999511241913
			],
			"type":"VEC3"
		},
		{
			"bufferView":72,
			"componentType":5126,
			"count":846,
			"type":"VEC3"
		},
		{
			"bufferView":73,
			"componentType":5126,
			"count":846,
			"type":"VEC2"
		},
		{
			"bufferView":74,
			"componentType":5126,
			"count":846,
			"type":"VEC4"
		},
		{
			"bufferView":75,
			"componentType":5121,
			"count":846,
			"type":"VEC4"
		},
		{
			"bufferView":76,
			"componentType":5126,
			"count":846,
			"type":"VEC4"
		},
		{
			"bufferView":77,
			"componentType":5123,
			"count":3246,
			"type":"SCALAR"
		},
		{
			"bufferView":78,
			"componentType":5126,
			"count":589,
			"max":[
				0.02985730767250061,
				0.09902326762676239,
				0.01690000109374523
			],
			"min":[
				0.02235729992389679,
				0.08962327241897583,
				0.009691949002444744
			],
			"type":"VEC3"
		},
		{
			"bufferView":79,
			"componentType":5126,
			"count":589,
			"type":"VEC3"
		},
		{
			"bufferView":80,
			"componentType":5126,
			"count":589,
			"type":"VEC2"
		},
		{
			"bufferView":81,
			"componentType":5126,
			"count":589,
			"type":"VEC4"
		},
		{
			"bufferView":82,
			"componentType":5121,
			"count":589,
			"type":"VEC4"
		},
		{
			"bufferView":83,
			"componentType":5126,
			"count":589,
			"type":"VEC4"
		},
		{
			"bufferView":84,
			"componentType":5123,
			"count":1782,
			"type":"SCALAR"
		},
		{
			"bufferView":85,
			"componentType":5126,
			"count":1484,
			"max":[
				0.510857343673706,
				0.13992327451705933,
				0.012999999336898327
			],
			"min":[
				0.48885729908943176,
				0.11672326922416687,
				-0.012999999336898327
			],
			"type":"VEC3"
		},
		{
			"bufferView":86,
			"componentType":5126,
			"count":1484,
			"type":"VEC3"
		},
		{
			"bufferView":87,
			"componentType":5126,
			"count":1484,
			"type":"VEC2"
		},
		{
			"bufferView":88,
			"componentType":5126,
			"count":1484,
			"type":"VEC4"
		},
		{
			"bufferView":89,
			"componentType":5121,
			"count":1484,
			"type":"VEC4"
		},
		{
			"bufferView":90,
			"componentType":5126,
			"count":1484,
			"type":"VEC4"
		},
		{
			"bufferView":91,
			"componentType":5123,
			"count":5508,
			"type":"SCALAR"
		},
		{
			"bufferView":92,
			"componentType":5126,
			"count":219,
			"max":[
				0.5088573098182678,
				0.12272326648235321,
				0.01309999916702509
			],
			"min":[
				0.5028572678565979,
				0.11672326922416687,
				-0.013799999840557575
			],
			"type":"VEC3"
		},
		{
			"bufferView":93,
			"componentType":5126,
			"count":219,
			"type":"VEC3"
		},
		{
			"bufferView":94,
			"componentType":5126,
			"count":219,
			"type":"VEC2"
		},
		{
			"bufferView":95,
			"componentType":5126,
			"count":219,
			"type":"VEC4"
		},
		{
			"bufferView":96,
			"componentType":5121,
			"count":219,
			"type":"VEC4"
		},
		{
			"bufferView":97,
			"componentType":5126,
			"count":219,
			"type":"VEC4"
		},
		{
			"bufferView":98,
			"componentType":5123,
			"count":768,
			"type":"SCALAR"
		},
		{
			"bufferView":99,
			"componentType":5126,
			"count":1011,
			"max":[
				0.5023572444915771,
				0.1653674840927124,
				0.010499998927116394
			],
			"min":[
				0.49935728311538696,
				0.1356232762336731,
				-0.010499998927116394
			],
			"type":"VEC3"
		},
		{
			"bufferView":100,
			"componentType":5126,
			"count":1011,
			"type":"VEC3"
		},
		{
			"bufferView":101,
			"componentType":5126,
			"count":1011,
			"type":"VEC2"
		},
		{
			"bufferView":102,
			"componentType":5126,
			"count":1011,
			"type":"VEC4"
		},
		{
			"bufferView":103,
			"componentType":5121,
			"count":1011,
			"type":"VEC4"
		},
		{
			"bufferView":104,
			"componentType":5126,
			"count":1011,
			"type":"VEC4"
		},
		{
			"bufferView":105,
			"componentType":5123,
			"count":3984,
			"type":"SCALAR"
		},
		{
			"bufferView":106,
			"componentType":5126,
			"count":1167,
			"max":[
				0.3838573098182678,
				0.10972326993942261,
				0.011499999091029167
			],
			"min":[
				0.3528572916984558,
				0.08022326976060867,
				-0.011499999091029167
			],
			"type":"VEC3"
		},
		{
			"bufferView":107,
			"componentType":5126,
			"count":1167,
			"type":"VEC3"
		},
		{
			"bufferView":108,
			"componentType":5126,
			"count":1167,
			"type":"VEC2"
		},
		{
			"bufferView":109,
			"componentType":5126,
			"count":1167,
			"type":"VEC4"
		},
		{
			"bufferView":110,
			"componentType":5121,
			"count":1167,
			"type":"VEC4"
		},
		{
			"bufferView":111,
			"componentType":5126,
			"count":1167,
			"type":"VEC4"
		},
		{
			"bufferView":112,
			"componentType":5123,
			"count":4710,
			"type":"SCALAR"
		},
		{
			"bufferView":113,
			"componentType":5126,
			"count":74,
			"max":[
				0.3608573079109192,
				0.10762327164411545,
				0.0023999998811632395
			],
			"min":[
				0.19735729694366455,
				0.10282327234745026,
				-0.0023999998811632395
			],
			"type":"VEC3"
		},
		{
			"bufferView":114,
			"componentType":5126,
			"count":74,
			"type":"VEC3"
		},
		{
			"bufferView":115,
			"componentType":5126,
			"count":74,
			"type":"VEC2"
		},
		{
			"bufferView":116,
			"componentType":5126,
			"count":74,
			"type":"VEC4"
		},
		{
			"bufferView":117,
			"componentType":5121,
			"count":74,
			"type":"VEC4"
		},
		{
			"bufferView":118,
			"componentType":5126,
			"count":74,
			"type":"VEC4"
		},
		{
			"bufferView":119,
			"componentType":5123,
			"count":192,
			"type":"SCALAR"
		},
		{
			"bufferView":120,
			"componentType":5126,
			"count":7618,
			"max":[
				0.5288572907447815,
				0.12172327190637589,
				0.02499999850988388
			],
			"min":[
				0.19885730743408203,
				0.06472326815128326,
				-0.02499999850988388
			],
			"type":"VEC3"
		},
		{
			"bufferView":121,
			"componentType":5126,
			"count":7618,
			"type":"VEC3"
		},
		{
			"bufferView":122,
			"componentType":5126,
			"count":7618,
			"type":"VEC2"
		},
		{
			"bufferView":123,
			"componentType":5126,
			"count":7618,
			"type":"VEC4"
		},
		{
			"bufferView":124,
			"componentType":5121,
			"count":7618,
			"type":"VEC4"
		},
		{
			"bufferView":125,
			"componentType":5126,
			"count":7618,
			"type":"VEC4"
		},
		{
			"bufferView":126,
			"componentType":5123,
			"count":23850,
			"type":"SCALAR"
		},
		{
			"bufferView":127,
			"componentType":5126,
			"count":680,
			"max":[
				0.22035729885101318,
				0.06892327219247818,
				0.009999999776482582
			],
			"min":[
				0.20438836514949799,
				0.06492327153682709,
				0.004999999888241291
			],
			"type":"VEC3"
		},
		{
			"bufferView":128,
			"componentType":5126,
			"count":680,
			"type":"VEC3"
		},
		{
			"bufferView":129,
			"componentType":5126,
			"count":680,
			"type":"VEC2"
		},
		{
			"bufferView":130,
			"componentType":5126,
			"count":680,
			"type":"VEC4"
		},
		{
			"bufferView":131,
			"componentType":5121,
			"count":680,
			"type":"VEC4"
		},
		{
			"bufferView":132,
			"componentType":5126,
			"count":680,
			"type":"VEC4"
		},
		{
			"bufferView":133,
			"componentType":5123,
			"count":2280,
			"type":"SCALAR"
		},
		{
			"bufferView":134,
			"componentType":5126,
			"count":5225,
			"max":[
				0.18985730409622192,
				0.1072232723236084,
				0.01979999989271164
			],
			"min":[
				-0.01183125376701355,
				0.0037232711911201477,
				-0.018468068912625313
			],
			"type":"VEC3"
		},
		{
			"bufferView":135,
			"componentType":5126,
			"count":5225,
			"type":"VEC3"
		},
		{
			"bufferView":136,
			"componentType":5126,
			"count":5225,
			"type":"VEC2"
		},
		{
			"bufferView":137,
			"componentType":5126,
			"count":5225,
			"type":"VEC4"
		},
		{
			"bufferView":138,
			"componentType":5121,
			"count":5225,
			"type":"VEC4"
		},
		{
			"bufferView":139,
			"componentType":5126,
			"count":5225,
			"type":"VEC4"
		},
		{
			"bufferView":140,
			"componentType":5123,
			"count":18582,
			"type":"SCALAR"
		},
		{
			"bufferView":141,
			"componentType":5126,
			"count":2267,
			"max":[
				0.18087586760520935,
				0.07841841876506805,
				0.013799999840557575
			],
			"min":[
				0.09049402177333832,
				-0.12079182267189026,
				-0.013799999840557575
			],
			"type":"VEC3"
		},
		{
			"bufferView":142,
			"componentType":5126,
			"count":2267,
			"type":"VEC3"
		},
		{
			"bufferView":143,
			"componentType":5126,
			"count":2267,
			"type":"VEC2"
		},
		{
			"bufferView":144,
			"componentType":5126,
			"count":2267,
			"type":"VEC4"
		},
		{
			"bufferView":145,
			"componentType":5121,
			"count":2267,
			"type":"VEC4"
		},
		{
			"bufferView":146,
			"componentType":5126,
			"count":2267,
			"type":"VEC4"
		},
		{
			"bufferView":147,
			"componentType":5123,
			"count":8988,
			"type":"SCALAR"
		},
		{
			"bufferView":148,
			"componentType":5126,
			"count":138,
			"max":[
				0.10745730251073837,
				0.052723269909620285,
				0.019602380692958832
			],
			"min":[
				0.10025730729103088,
				0.045523274689912796,
				0.01460238080471754
			],
			"type":"VEC3"
		},
		{
			"bufferView":149,
			"componentType":5126,
			"count":138,
			"type":"VEC3"
		},
		{
			"bufferView":150,
			"componentType":5126,
			"count":138,
			"type":"VEC2"
		},
		{
			"bufferView":151,
			"componentType":5126,
			"count":138,
			"type":"VEC4"
		},
		{
			"bufferView":152,
			"componentType":5121,
			"count":138,
			"type":"VEC4"
		},
		{
			"bufferView":153,
			"componentType":5126,
			"count":138,
			"type":"VEC4"
		},
		{
			"bufferView":154,
			"componentType":5123,
			"count":432,
			"type":"SCALAR"
		},
		{
			"bufferView":155,
			"componentType":5126,
			"count":1028,
			"max":[
				0.1523572951555252,
				0.07950326800346375,
				0.009680000133812428
			],
			"min":[
				0.09535730630159378,
				0.06154327094554901,
				-0.0047799996100366116
			],
			"type":"VEC3"
		},
		{
			"bufferView":156,
			"componentType":5126,
			"count":1028,
			"type":"VEC3"
		},
		{
			"bufferView":157,
			"componentType":5126,
			"count":1028,
			"type":"VEC2"
		},
		{
			"bufferView":158,
			"componentType":5126,
			"count":1028,
			"type":"VEC4"
		},
		{
			"bufferView":159,
			"componentType":5121,
			"count":1028,
			"type":"VEC4"
		},
		{
			"bufferView":160,
			"componentType":5126,
			"count":1028,
			"type":"VEC4"
		},
		{
			"bufferView":161,
			"componentType":5123,
			"count":3360,
			"type":"SCALAR"
		},
		{
			"bufferView":162,
			"componentType":5126,
			"count":1556,
			"max":[
				0.5758572816848755,
				0.10272327065467834,
				0.010999999940395355
			],
			"min":[
				0.5208573341369629,
				0.08072327077388763,
				-0.010999999940395355
			],
			"type":"VEC3"
		},
		{
			"bufferView":163,
			"componentType":5126,
			"count":1556,
			"type":"VEC3"
		},
		{
			"bufferView":164,
			"componentType":5126,
			"count":1556,
			"type":"VEC2"
		},
		{
			"bufferView":165,
			"componentType":5126,
			"count":1556,
			"type":"VEC4"
		},
		{
			"bufferView":166,
			"componentType":5121,
			"count":1556,
			"type":"VEC4"
		},
		{
			"bufferView":167,
			"componentType":5126,
			"count":1556,
			"type":"VEC4"
		},
		{
			"bufferView":168,
			"componentType":5123,
			"count":5796,
			"type":"SCALAR"
		},
		{
			"bufferView":169,
			"componentType":5126,
			"count":7349,
			"max":[
				0.1628573089838028,
				0.1883232593536377,
				0.026599999517202377
			],
			"min":[
				0.0938573032617569,
				0.11472326517105103,
				-0.02160000056028366
			],
			"type":"VEC3"
		},
		{
			"bufferView":170,
			"componentType":5126,
			"count":7349,
			"type":"VEC3"
		},
		{
			"bufferView":171,
			"componentType":5126,
			"count":7349,
			"type":"VEC2"
		},
		{
			"bufferView":172,
			"componentType":5126,
			"count":7349,
			"type":"VEC4"
		},
		{
			"bufferView":173,
			"componentType":5121,
			"count":7349,
			"type":"VEC4"
		},
		{
			"bufferView":174,
			"componentType":5126,
			"count":7349,
			"type":"VEC4"
		},
		{
			"bufferView":175,
			"componentType":5123,
			"count":25968,
			"type":"SCALAR"
		},
		{
			"bufferView":176,
			"componentType":5126,
			"count":236,
			"max":[
				0.13385730981826782,
				0.12272326648235321,
				0.01269999984651804
			],
			"min":[
				0.1278572976589203,
				0.11672326922416687,
				-0.013799999840557575
			],
			"type":"VEC3"
		},
		{
			"bufferView":177,
			"componentType":5126,
			"count":236,
			"type":"VEC3"
		},
		{
			"bufferView":178,
			"componentType":5126,
			"count":236,
			"type":"VEC2"
		},
		{
			"bufferView":179,
			"componentType":5126,
			"count":236,
			"type":"VEC4"
		},
		{
			"bufferView":180,
			"componentType":5121,
			"count":236,
			"type":"VEC4"
		},
		{
			"bufferView":181,
			"componentType":5126,
			"count":236,
			"type":"VEC4"
		},
		{
			"bufferView":182,
			"componentType":5123,
			"count":768,
			"type":"SCALAR"
		},
		{
			"bufferView":183,
			"componentType":5126,
			"count":304,
			"max":[
				0.15755730867385864,
				0.1746232658624649,
				0.012899999506771564
			],
			"min":[
				0.1555573046207428,
				0.14882326126098633,
				-0.012899999506771564
			],
			"type":"VEC3"
		},
		{
			"bufferView":184,
			"componentType":5126,
			"count":304,
			"type":"VEC3"
		},
		{
			"bufferView":185,
			"componentType":5126,
			"count":304,
			"type":"VEC2"
		},
		{
			"bufferView":186,
			"componentType":5126,
			"count":304,
			"type":"VEC4"
		},
		{
			"bufferView":187,
			"componentType":5121,
			"count":304,
			"type":"VEC4"
		},
		{
			"bufferView":188,
			"componentType":5126,
			"count":304,
			"type":"VEC4"
		},
		{
			"bufferView":189,
			"componentType":5123,
			"count":1140,
			"type":"SCALAR"
		},
		{
			"bufferView":190,
			"componentType":5126,
			"count":302,
			"max":[
				0.10005730390548706,
				0.1746232658624649,
				0.012899999506771564
			],
			"min":[
				0.09785730391740799,
				0.14882326126098633,
				-0.012899999506771564
			],
			"type":"VEC3"
		},
		{
			"bufferView":191,
			"componentType":5126,
			"count":302,
			"type":"VEC3"
		},
		{
			"bufferView":192,
			"componentType":5126,
			"count":302,
			"type":"VEC2"
		},
		{
			"bufferView":193,
			"componentType":5126,
			"count":302,
			"type":"VEC4"
		},
		{
			"bufferView":194,
			"componentType":5121,
			"count":302,
			"type":"VEC4"
		},
		{
			"bufferView":195,
			"componentType":5126,
			"count":302,
			"type":"VEC4"
		},
		{
			"bufferView":196,
			"componentType":5123,
			"count":1140,
			"type":"SCALAR"
		},
		{
			"bufferView":197,
			"componentType":5126,
			"count":12,
			"max":[
				0.15550529956817627,
				0.16187326610088348,
				0.00014999999257270247
			],
			"min":[
				0.15550529956817627,
				0.16157326102256775,
				-0.00014999999257270247
			],
			"type":"VEC3"
		},
		{
			"bufferView":198,
			"componentType":5126,
			"count":12,
			"type":"VEC3"
		},
		{
			"bufferView":199,
			"componentType":5126,
			"count":12,
			"type":"VEC2"
		},
		{
			"bufferView":200,
			"componentType":5126,
			"count":12,
			"type":"VEC4"
		},
		{
			"bufferView":201,
			"componentType":5121,
			"count":12,
			"type":"VEC4"
		},
		{
			"bufferView":202,
			"componentType":5126,
			"count":12,
			"type":"VEC4"
		},
		{
			"bufferView":203,
			"componentType":5123,
			"count":30,
			"type":"SCALAR"
		},
		{
			"bufferView":204,
			"componentType":5126,
			"count":60,
			"max":[
				0.15555530786514282,
				0.16187326610088348,
				0.00014999999257270247
			],
			"min":[
				0.15550529956817627,
				0.16157326102256775,
				-0.00014999999257270247
			],
			"type":"VEC3"
		},
		{
			"bufferView":205,
			"componentType":5126,
			"count":60,
			"type":"VEC3"
		},
		{
			"bufferView":206,
			"componentType":5126,
			"count":60,
			"type":"VEC2"
		},
		{
			"bufferView":207,
			"componentType":5126,
			"count":60,
			"type":"VEC4"
		},
		{
			"bufferView":208,
			"componentType":5121,
			"count":60,
			"type":"VEC4"
		},
		{
			"bufferView":209,
			"componentType":5126,
			"count":60,
			"type":"VEC4"
		},
		{
			"bufferView":210,
			"componentType":5123,
			"count":102,
			"type":"SCALAR"
		},
		{
			"bufferView":211,
			"componentType":5126,
			"count":696,
			"max":[
				0.18305730819702148,
				0.0699232667684555,
				0.01309999916702509
			],
			"min":[
				0.007657304406166077,
				0.04327327385544777,
				-0.014800000004470348
			],
			"type":"VEC3"
		},
		{
			"bufferView":212,
			"componentType":5126,
			"count":696,
			"type":"VEC3"
		},
		{
			"bufferView":213,
			"componentType":5126,
			"count":696,
			"type":"VEC2"
		},
		{
			"bufferView":214,
			"componentType":5126,
			"count":696,
			"type":"VEC4"
		},
		{
			"bufferView":215,
			"componentType":5121,
			"count":696,
			"type":"VEC4"
		},
		{
			"bufferView":216,
			"componentType":5126,
			"count":696,
			"type":"VEC4"
		},
		{
			"bufferView":217,
			"componentType":5123,
			"count":2304,
			"type":"SCALAR"
		},
		{
			"bufferView":218,
			"componentType":5126,
			"count":1235,
			"max":[
				0.040593430399894714,
				0.04172327369451523,
				0.016200000420212746
			],
			"min":[
				-0.049034714698791504,
				-0.060266949236392975,
				-0.016200000420212746
			],
			"type":"VEC3"
		},
		{
			"bufferView":219,
			"componentType":5126,
			"count":1235,
			"type":"VEC3"
		},
		{
			"bufferView":220,
			"componentType":5126,
			"count":1235,
			"type":"VEC2"
		},
		{
			"bufferView":221,
			"componentType":5126,
			"count":1235,
			"type":"VEC4"
		},
		{
			"bufferView":222,
			"componentType":5121,
			"count":1235,
			"type":"VEC4"
		},
		{
			"bufferView":223,
			"componentType":5126,
			"count":1235,
			"type":"VEC4"
		},
		{
			"bufferView":224,
			"componentType":5123,
			"count":6252,
			"type":"SCALAR"
		},
		{
			"bufferView":225,
			"componentType":5126,
			"count":1874,
			"max":[
				0.0938573032617569,
				0.13992327451705933,
				0.01759999990463257
			],
			"min":[
				0.07085730135440826,
				0.11672326922416687,
				-0.012999999336898327
			],
			"type":"VEC3"
		},
		{
			"bufferView":226,
			"componentType":5126,
			"count":1874,
			"type":"VEC3"
		},
		{
			"bufferView":227,
			"componentType":5126,
			"count":1874,
			"type":"VEC2"
		},
		{
			"bufferView":228,
			"componentType":5126,
			"count":1874,
			"type":"VEC4"
		},
		{
			"bufferView":229,
			"componentType":5121,
			"count":1874,
			"type":"VEC4"
		},
		{
			"bufferView":230,
			"componentType":5126,
			"count":1874,
			"type":"VEC4"
		},
		{
			"bufferView":231,
			"componentType":5123,
			"count":7020,
			"type":"SCALAR"
		},
		{
			"bufferView":232,
			"componentType":5126,
			"count":216,
			"max":[
				0.08385730534791946,
				0.12272326648235321,
				0.01269999984651804
			],
			"min":[
				0.07785730808973312,
				0.11672326922416687,
				-0.013799999840557575
			],
			"type":"VEC3"
		},
		{
			"bufferView":233,
			"componentType":5126,
			"count":216,
			"type":"VEC3"
		},
		{
			"bufferView":234,
			"componentType":5126,
			"count":216,
			"type":"VEC2"
		},
		{
			"bufferView":235,
			"componentType":5126,
			"count":216,
			"type":"VEC4"
		},
		{
			"bufferView":236,
			"componentType":5121,
			"count":216,
			"type":"VEC4"
		},
		{
			"bufferView":237,
			"componentType":5126,
			"count":216,
			"type":"VEC4"
		},
		{
			"bufferView":238,
			"componentType":5123,
			"count":768,
			"type":"SCALAR"
		},
		{
			"bufferView":239,
			"componentType":5126,
			"count":1601,
			"max":[
				0.08535730838775635,
				0.16792327165603638,
				0.01119999960064888
			],
			"min":[
				0.08235730230808258,
				0.1356232762336731,
				-0.01119999960064888
			],
			"type":"VEC3"
		},
		{
			"bufferView":240,
			"componentType":5126,
			"count":1601,
			"type":"VEC3"
		},
		{
			"bufferView":241,
			"componentType":5126,
			"count":1601,
			"type":"VEC2"
		},
		{
			"bufferView":242,
			"componentType":5126,
			"count":1601,
			"type":"VEC4"
		},
		{
			"bufferView":243,
			"componentType":5121,
			"count":1601,
			"type":"VEC4"
		},
		{
			"bufferView":244,
			"componentType":5126,
			"count":1601,
			"type":"VEC4"
		},
		{
			"bufferView":245,
			"componentType":5123,
			"count":6612,
			"type":"SCALAR"
		},
		{
			"bufferView":246,
			"componentType":5126,
			"count":943,
			"max":[
				0.05385730415582657,
				0.06421173363924026,
				0.013799999840557575
			],
			"min":[
				0.035368844866752625,
				0.05323481187224388,
				-0.017500000074505806
			],
			"type":"VEC3"
		},
		{
			"bufferView":247,
			"componentType":5126,
			"count":943,
			"type":"VEC3"
		},
		{
			"bufferView":248,
			"componentType":5126,
			"count":943,
			"type":"VEC2"
		},
		{
			"bufferView":249,
			"componentType":5126,
			"count":943,
			"type":"VEC4"
		},
		{
			"bufferView":250,
			"componentType":5121,
			"count":943,
			"type":"VEC4"
		},
		{
			"bufferView":251,
			"componentType":5126,
			"count":943,
			"type":"VEC4"
		},
		{
			"bufferView":252,
			"componentType":5123,
			"count":1956,
			"type":"SCALAR"
		},
		{
			"bufferView":253,
			"componentType":5126,
			"count":1426,
			"max":[
				-0.10764271020889282,
				0.12269972264766693,
				0.021198131144046783
			],
			"min":[
				-0.26614266633987427,
				-0.0011947005987167358,
				-0.021198131144046783
			],
			"type":"VEC3"
		},
		{
			"bufferView":254,
			"componentType":5126,
			"count":1426,
			"type":"VEC3"
		},
		{
			"bufferView":255,
			"componentType":5126,
			"count":1426,
			"type":"VEC2"
		},
		{
			"bufferView":256,
			"componentType":5126,
			"count":1426,
			"type":"VEC4"
		},
		{
			"bufferView":257,
			"componentType":5121,
			"count":1426,
			"type":"VEC4"
		},
		{
			"bufferView":258,
			"componentType":5126,
			"count":1426,
			"type":"VEC4"
		},
		{
			"bufferView":259,
			"componentType":5123,
			"count":5790,
			"type":"SCALAR"
		},
		{
			"bufferView":260,
			"componentType":5126,
			"count":652,
			"max":[
				0.0623551607131958,
				0.054923269897699356,
				0.003499999875202775
			],
			"min":[
				0.05065730959177017,
				0.024474941194057465,
				-0.003499999875202775
			],
			"type":"VEC3"
		},
		{
			"bufferView":261,
			"componentType":5126,
			"count":652,
			"type":"VEC3"
		},
		{
			"bufferView":262,
			"componentType":5126,
			"count":652,
			"type":"VEC2"
		},
		{
			"bufferView":263,
			"componentType":5126,
			"count":652,
			"type":"VEC4"
		},
		{
			"bufferView":264,
			"componentType":5121,
			"count":652,
			"type":"VEC4"
		},
		{
			"bufferView":265,
			"componentType":5126,
			"count":652,
			"type":"VEC4"
		},
		{
			"bufferView":266,
			"componentType":5123,
			"count":2544,
			"type":"SCALAR"
		},
		{
			"bufferView":267,
			"componentType":5126,
			"count":4596,
			"max":[
				0.1968573033809662,
				0.12172327190637589,
				0.022201113402843475
			],
			"min":[
				0.021857306361198425,
				0.07272326946258545,
				-0.014999999664723873
			],
			"type":"VEC3"
		},
		{
			"bufferView":268,
			"componentType":5126,
			"count":4596,
			"type":"VEC3"
		},
		{
			"bufferView":269,
			"componentType":5126,
			"count":4596,
			"type":"VEC2"
		},
		{
			"bufferView":270,
			"componentType":5126,
			"count":4596,
			"type":"VEC4"
		},
		{
			"bufferView":271,
			"componentType":5121,
			"count":4596,
			"type":"VEC4"
		},
		{
			"bufferView":272,
			"componentType":5126,
			"count":4596,
			"type":"VEC4"
		},
		{
			"bufferView":273,
			"componentType":5123,
			"count":15420,
			"type":"SCALAR"
		}
	],
	"bufferViews":[
		{
			"buffer":0,
			"byteLength":13332,
			"byteOffset":0,
			"target":34962
		},
		{
			"buffer":0,
			"byteLength":13332,
			"byteOffset":13332,
			"target":34962
		},
		{
			"buffer":0,
			"byteLength":8888,
			"byteOffset":26664,
			"target":34962
		},
		{
			"buffer":0,
			"byteLength":17776,
			"byteOffset":35552,
			"target":34962
		},
		{
			"buffer":0,
			"byteLength":4444,
			"byteOffset":53328,
			"target":34962
		},
		{
			"buffer":0,
			"byteLength":17776,
			"byteOffset":57772,
			"target":34962
		},
		{
			"buffer":0,
			"byteLength":8832,
			"byteOffset":75548,
			"target":34963
		},
		{
			"buffer":0,
			"byteLength":1088,
			"byteOffset":84380
		},
		{
			"buffer":0,
			"byteLength":15156,
			"byteOffset":85468,
			"target":34962
		},
		{
			"buffer":0,
			"byteLength":15156,
			"byteOffset":100624,
			"target":34962
		},
		{
			"buffer":0,
			"byteLength":10104,
			"byteOffset":115780,
			"target":34962
		},
		{
			"buffer":0,
			"byteLength":20208,
			"byteOffset":125884,
			"target":34962
		},
		{
			"buffer":0,
			"byteLength":5052,
			"byteOffset":146092,
			"target":34962
		},
		{
			"buffer":0,
			"byteLength":20208,
			"byteOffset":151144,
			"target":34962
		},
		{
			"buffer":0,
			"byteLength":8904,
			"byteOffset":171352,
			"target":34963
		},
		{
			"buffer":0,
			"byteLength":16140,
			"byteOffset":180256,
			"target":34962
		},
		{
			"buffer":0,
			"byteLength":16140,
			"byteOffset":196396,
			"target":34962
		},
		{
			"buffer":0,
			"byteLength":10760,
			"byteOffset":212536,
			"target":34962
		},
		{
			"buffer":0,
			"byteLength":21520,
			"byteOffset":223296,
			"target":34962
		},
		{
			"buffer":0,
			"byteLength":5380,
			"byteOffset":244816,
			"target":34962
		},
		{
			"buffer":0,
			"byteLength":21520,
			"byteOffset":250196,
			"target":34962
		},
		{
			"buffer":0,
			"byteLength":9576,
			"byteOffset":271716,
			"target":34963
		},
		{
			"buffer":0,
			"byteLength":9804,
			"byteOffset":281292,
			"target":34962
		},
		{
			"buffer":0,
			"byteLength":9804,
			"byteOffset":291096,
			"target":34962
		},
		{
			"buffer":0,
			"byteLength":6536,
			"byteOffset":300900,
			"target":34962
		},
		{
			"buffer":0,
			"byteLength":13072,
			"byteOffset":307436,
			"target":34962
		},
		{
			"buffer":0,
			"byteLength":3268,
			"byteOffset":320508,
			"target":34962
		},
		{
			"buffer":0,
			"byteLength":13072,
			"byteOffset":323776,
			"target":34962
		},
		{
			"buffer":0,
			"byteLength":5052,
			"byteOffset":336848,
			"target":34963
		},
		{
			"buffer":0,
			"byteLength":24756,
			"byteOffset":341900,
			"target":34962
		},
		{
			"buffer":0,
			"byteLength":24756,
			"byteOffset":366656,
			"target":34962
		},
		{
			"buffer":0,
			"byteLength":16504,
			"byteOffset":391412,
			"target":34962
		},
		{
			"buffer":0,
			"byteLength":33008,
			"byteOffset":407916,
			"target":34962
		},
		{
			"buffer":0,
			"byteLength":8252,
			"byteOffset":440924,
			"target":34962
		},
		{
			"buffer":0,
			"byteLength":33008,
			"byteOffset":449176,
			"target":34962
		},
		{
			"buffer":0,
			"byteLength":16692,
			"byteOffset":482184,
			"target":34963
		},
		{
			"buffer":0,
			"byteLength":4608,
			"byteOffset":498876,
			"target":34962
		},
		{
			"buffer":0,
			"byteLength":4608,
			"byteOffset":503484,
			"target":34962
		},
		{
			"buffer":0,
			"byteLength":3072,
			"byteOffset":508092,
			"target":34962
		},
		{
			"buffer":0,
			"byteLength":6144,
			"byteOffset":511164,
			"target":34962
		},
		{
			"buffer":0,
			"byteLength":1536,
			"byteOffset":517308,
			"target":34962
		},
		{
			"buffer":0,
			"byteLength":6144,
			"byteOffset":518844,
			"target":34962
		},
		{
			"buffer":0,
			"byteLength":3480,
			"byteOffset":524988,
			"target":34963
		},
		{
			"buffer":0,
			"byteLength":11148,
			"byteOffset":528468,
			"target":34962
		},
		{
			"buffer":0,
			"byteLength":11148,
			"byteOffset":539616,
			"target":34962
		},
		{
			"buffer":0,
			"byteLength":7432,
			"byteOffset":550764,
			"target":34962
		},
		{
			"buffer":0,
			"byteLength":14864,
			"byteOffset":558196,
			"target":34962
		},
		{
			"buffer":0,
			"byteLength":3716,
			"byteOffset":573060,
			"target":34962
		},
		{
			"buffer":0,
			"byteLength":14864,
			"byteOffset":576776,
			"target":34962
		},
		{
			"buffer":0,
			"byteLength":7248,
			"byteOffset":591640,
			"target":34963
		},
		{
			"buffer":0,
			"byteLength":16560,
			"byteOffset":598888,
			"target":34962
		},
		{
			"buffer":0,
			"byteLength":16560,
			"byteOffset":615448,
			"target":34962
		},
		{
			"buffer":0,
			"byteLength":11040,
			"byteOffset":632008,
			"target":34962
		},
		{
			"buffer":0,
			"byteLength":22080,
			"byteOffset":643048,
			"target":34962
		},
		{
			"buffer":0,
			"byteLength":5520,
			"byteOffset":665128,
			"target":34962
		},
		{
			"buffer":0,
			"byteLength":22080,
			"byteOffset":670648,
			"target":34962
		},
		{
			"buffer":0,
			"byteLength":9852,
			"byteOffset":692728,
			"target":34963
		},
		{
			"buffer":0,
			"byteLength":4536,
			"byteOffset":702580,
			"target":34962
		},
		{
			"buffer":0,
			"byteLength":4536,
			"byteOffset":707116,
			"target":34962
		},
		{
			"buffer":0,
			"byteLength":3024,
			"byteOffset":711652,
			"target":34962
		},
		{
			"buffer":0,
			"byteLength":6048,
			"byteOffset":714676,
			"target":34962
		},
		{
			"buffer":0,
			"byteLength":1512,
			"byteOffset":720724,
			"target":34962
		},
		{
			"buffer":0,
			"byteLength":6048,
			"byteOffset":722236,
			"target":34962
		},
		{
			"buffer":0,
			"byteLength":2616,
			"byteOffset":728284,
			"target":34963
		},
		{
			"buffer":0,
			"byteLength":696,
			"byteOffset":730900,
			"target":34962
		},
		{
			"buffer":0,
			"byteLength":696,
			"byteOffset":731596,
			"target":34962
		},
		{
			"buffer":0,
			"byteLength":464,
			"byteOffset":732292,
			"target":34962
		},
		{
			"buffer":0,
			"byteLength":928,
			"byteOffset":732756,
			"target":34962
		},
		{
			"buffer":0,
			"byteLength":232,
			"byteOffset":733684,
			"target":34962
		},
		{
			"buffer":0,
			"byteLength":928,
			"byteOffset":733916,
			"target":34962
		},
		{
			"buffer":0,
			"byteLength":288,
			"byteOffset":734844,
			"target":34963
		},
		{
			"buffer":0,
			"byteLength":10152,
			"byteOffset":735132,
			"target":34962
		},
		{
			"buffer":0,
			"byteLength":10152,
			"byteOffset":745284,
			"target":34962
		},
		{
			"buffer":0,
			"byteLength":6768,
			"byteOffset":755436,
			"target":34962
		},
		{
			"buffer":0,
			"byteLength":13536,
			"byteOffset":762204,
			"target":34962
		},
		{
			"buffer":0,
			"byteLength":3384,
			"byteOffset":775740,
			"target":34962
		},
		{
			"buffer":0,
			"byteLength":13536,
			"byteOffset":779124,
			"target":34962
		},
		{
			"buffer":0,
			"byteLength":6492,
			"byteOffset":792660,
			"target":34963
		},
		{
			"buffer":0,
			"byteLength":7068,
			"byteOffset":799152,
			"target":34962
		},
		{
			"buffer":0,
			"byteLength":7068,
			"byteOffset":806220,
			"target":34962
		},
		{
			"buffer":0,
			"byteLength":4712,
			"byteOffset":813288,
			"target":34962
		},
		{
			"buffer":0,
			"byteLength":9424,
			"byteOffset":818000,
			"target":34962
		},
		{
			"buffer":0,
			"byteLength":2356,
			"byteOffset":827424,
			"target":34962
		},
		{
			"buffer":0,
			"byteLength":9424,
			"byteOffset":829780,
			"target":34962
		},
		{
			"buffer":0,
			"byteLength":3564,
			"byteOffset":839204,
			"target":34963
		},
		{
			"buffer":0,
			"byteLength":17808,
			"byteOffset":842768,
			"target":34962
		},
		{
			"buffer":0,
			"byteLength":17808,
			"byteOffset":860576,
			"target":34962
		},
		{
			"buffer":0,
			"byteLength":11872,
			"byteOffset":878384,
			"target":34962
		},
		{
			"buffer":0,
			"byteLength":23744,
			"byteOffset":890256,
			"target":34962
		},
		{
			"buffer":0,
			"byteLength":5936,
			"byteOffset":914000,
			"target":34962
		},
		{
			"buffer":0,
			"byteLength":23744,
			"byteOffset":919936,
			"target":34962
		},
		{
			"buffer":0,
			"byteLength":11016,
			"byteOffset":943680,
			"target":34963
		},
		{
			"buffer":0,
			"byteLength":2628,
			"byteOffset":954696,
			"target":34962
		},
		{
			"buffer":0,
			"byteLength":2628,
			"byteOffset":957324,
			"target":34962
		},
		{
			"buffer":0,
			"byteLength":1752,
			"byteOffset":959952,
			"target":34962
		},
		{
			"buffer":0,
			"byteLength":3504,
			"byteOffset":961704,
			"target":34962
		},
		{
			"buffer":0,
			"byteLength":876,
			"byteOffset":965208,
			"target":34962
		},
		{
			"buffer":0,
			"byteLength":3504,
			"byteOffset":966084,
			"target":34962
		},
		{
			"buffer":0,
			"byteLength":1536,
			"byteOffset":969588,
			"target":34963
		},
		{
			"buffer":0,
			"byteLength":12132,
			"byteOffset":971124,
			"target":34962
		},
		{
			"buffer":0,
			"byteLength":12132,
			"byteOffset":983256,
			"target":34962
		},
		{
			"buffer":0,
			"byteLength":8088,
			"byteOffset":995388,
			"target":34962
		},
		{
			"buffer":0,
			"byteLength":16176,
			"byteOffset":1003476,
			"target":34962
		},
		{
			"buffer":0,
			"byteLength":4044,
			"byteOffset":1019652,
			"target":34962
		},
		{
			"buffer":0,
			"byteLength":16176,
			"byteOffset":1023696,
			"target":34962
		},
		{
			"buffer":0,
			"byteLength":7968,
			"byteOffset":1039872,
			"target":34963
		},
		{
			"buffer":0,
			"byteLength":14004,
			"byteOffset":1047840,
			"target":34962
		},
		{
			"buffer":0,
			"byteLength":14004,
			"byteOffset":1061844,
			"target":34962
		},
		{
			"buffer":0,
			"byteLength":9336,
			"byteOffset":1075848,
			"target":34962
		},
		{
			"buffer":0,
			"byteLength":18672,
			"byteOffset":1085184,
			"target":34962
		},
		{
			"buffer":0,
			"byteLength":4668,
			"byteOffset":1103856,
			"target":34962
		},
		{
			"buffer":0,
			"byteLength":18672,
			"byteOffset":1108524,
			"target":34962
		},
		{
			"buffer":0,
			"byteLength":9420,
			"byteOffset":1127196,
			"target":34963
		},
		{
			"buffer":0,
			"byteLength":888,
			"byteOffset":1136616,
			"target":34962
		},
		{
			"buffer":0,
			"byteLength":888,
			"byteOffset":1137504,
			"target":34962
		},
		{
			"buffer":0,
			"byteLength":592,
			"byteOffset":1138392,
			"target":34962
		},
		{
			"buffer":0,
			"byteLength":1184,
			"byteOffset":1138984,
			"target":34962
		},
		{
			"buffer":0,
			"byteLength":296,
			"byteOffset":1140168,
			"target":34962
		},
		{
			"buffer":0,
			"byteLength":1184,
			"byteOffset":1140464,
			"target":34962
		},
		{
			"buffer":0,
			"byteLength":384,
			"byteOffset":1141648,
			"target":34963
		},
		{
			"buffer":0,
			"byteLength":91416,
			"byteOffset":1142032,
			"target":34962
		},
		{
			"buffer":0,
			"byteLength":91416,
			"byteOffset":1233448,
			"target":34962
		},
		{
			"buffer":0,
			"byteLength":60944,
			"byteOffset":1324864,
			"target":34962
		},
		{
			"buffer":0,
			"byteLength":121888,
			"byteOffset":1385808,
			"target":34962
		},
		{
			"buffer":0,
			"byteLength":30472,
			"byteOffset":1507696,
			"target":34962
		},
		{
			"buffer":0,
			"byteLength":121888,
			"byteOffset":1538168,
			"target":34962
		},
		{
			"buffer":0,
			"byteLength":47700,
			"byteOffset":1660056,
			"target":34963
		},
		{
			"buffer":0,
			"byteLength":8160,
			"byteOffset":1707756,
			"target":34962
		},
		{
			"buffer":0,
			"byteLength":8160,
			"byteOffset":1715916,
			"target":34962
		},
		{
			"buffer":0,
			"byteLength":5440,
			"byteOffset":1724076,
			"target":34962
		},
		{
			"buffer":0,
			"byteLength":10880,
			"byteOffset":1729516,
			"target":34962
		},
		{
			"buffer":0,
			"byteLength":2720,
			"byteOffset":1740396,
			"target":34962
		},
		{
			"buffer":0,
			"byteLength":10880,
			"byteOffset":1743116,
			"target":34962
		},
		{
			"buffer":0,
			"byteLength":4560,
			"byteOffset":1753996,
			"target":34963
		},
		{
			"buffer":0,
			"byteLength":62700,
			"byteOffset":1758556,
			"target":34962
		},
		{
			"buffer":0,
			"byteLength":62700,
			"byteOffset":1821256,
			"target":34962
		},
		{
			"buffer":0,
			"byteLength":41800,
			"byteOffset":1883956,
			"target":34962
		},
		{
			"buffer":0,
			"byteLength":83600,
			"byteOffset":1925756,
			"target":34962
		},
		{
			"buffer":0,
			"byteLength":20900,
			"byteOffset":2009356,
			"target":34962
		},
		{
			"buffer":0,
			"byteLength":83600,
			"byteOffset":2030256,
			"target":34962
		},
		{
			"buffer":0,
			"byteLength":37164,
			"byteOffset":2113856,
			"target":34963
		},
		{
			"buffer":0,
			"byteLength":27204,
			"byteOffset":2151020,
			"target":34962
		},
		{
			"buffer":0,
			"byteLength":27204,
			"byteOffset":2178224,
			"target":34962
		},
		{
			"buffer":0,
			"byteLength":18136,
			"byteOffset":2205428,
			"target":34962
		},
		{
			"buffer":0,
			"byteLength":36272,
			"byteOffset":2223564,
			"target":34962
		},
		{
			"buffer":0,
			"byteLength":9068,
			"byteOffset":2259836,
			"target":34962
		},
		{
			"buffer":0,
			"byteLength":36272,
			"byteOffset":2268904,
			"target":34962
		},
		{
			"buffer":0,
			"byteLength":17976,
			"byteOffset":2305176,
			"target":34963
		},
		{
			"buffer":0,
			"byteLength":1656,
			"byteOffset":2323152,
			"target":34962
		},
		{
			"buffer":0,
			"byteLength":1656,
			"byteOffset":2324808,
			"target":34962
		},
		{
			"buffer":0,
			"byteLength":1104,
			"byteOffset":2326464,
			"target":34962
		},
		{
			"buffer":0,
			"byteLength":2208,
			"byteOffset":2327568,
			"target":34962
		},
		{
			"buffer":0,
			"byteLength":552,
			"byteOffset":2329776,
			"target":34962
		},
		{
			"buffer":0,
			"byteLength":2208,
			"byteOffset":2330328,
			"target":34962
		},
		{
			"buffer":0,
			"byteLength":864,
			"byteOffset":2332536,
			"target":34963
		},
		{
			"buffer":0,
			"byteLength":12336,
			"byteOffset":2333400,
			"target":34962
		},
		{
			"buffer":0,
			"byteLength":12336,
			"byteOffset":2345736,
			"target":34962
		},
		{
			"buffer":0,
			"byteLength":8224,
			"byteOffset":2358072,
			"target":34962
		},
		{
			"buffer":0,
			"byteLength":16448,
			"byteOffset":2366296,
			"target":34962
		},
		{
			"buffer":0,
			"byteLength":4112,
			"byteOffset":2382744,
			"target":34962
		},
		{
			"buffer":0,
			"byteLength":16448,
			"byteOffset":2386856,
			"target":34962
		},
		{
			"buffer":0,
			"byteLength":6720,
			"byteOffset":2403304,
			"target":34963
		},
		{
			"buffer":0,
			"byteLength":18672,
			"byteOffset":2410024,
			"target":34962
		},
		{
			"buffer":0,
			"byteLength":18672,
			"byteOffset":2428696,
			"target":34962
		},
		{
			"buffer":0,
			"byteLength":12448,
			"byteOffset":2447368,
			"target":34962
		},
		{
			"buffer":0,
			"byteLength":24896,
			"byteOffset":2459816,
			"target":34962
		},
		{
			"buffer":0,
			"byteLength":6224,
			"byteOffset":2484712,
			"target":34962
		},
		{
			"buffer":0,
			"byteLength":24896,
			"byteOffset":2490936,
			"target":34962
		},
		{
			"buffer":0,
			"byteLength":11592,
			"byteOffset":2515832,
			"target":34963
		},
		{
			"buffer":0,
			"byteLength":88188,
			"byteOffset":2527424,
			"target":34962
		},
		{
			"buffer":0,
			"byteLength":88188,
			"byteOffset":2615612,
			"target":34962
		},
		{
			"buffer":0,
			"byteLength":58792,
			"byteOffset":2703800,
			"target":34962
		},
		{
			"buffer":0,
			"byteLength":117584,
			"byteOffset":2762592,
			"target":34962
		},
		{
			"buffer":0,
			"byteLength":29396,
			"byteOffset":2880176,
			"target":34962
		},
		{
			"buffer":0,
			"byteLength":117584,
			"byteOffset":2909572,
			"target":34962
		},
		{
			"buffer":0,
			"byteLength":51936,
			"byteOffset":3027156,
			"target":34963
		},
		{
			"buffer":0,
			"byteLength":2832,
			"byteOffset":3079092,
			"target":34962
		},
		{
			"buffer":0,
			"byteLength":2832,
			"byteOffset":3081924,
			"target":34962
		},
		{
			"buffer":0,
			"byteLength":1888,
			"byteOffset":3084756,
			"target":34962
		},
		{
			"buffer":0,
			"byteLength":3776,
			"byteOffset":3086644,
			"target":34962
		},
		{
			"buffer":0,
			"byteLength":944,
			"byteOffset":3090420,
			"target":34962
		},
		{
			"buffer":0,
			"byteLength":3776,
			"byteOffset":3091364,
			"target":34962
		},
		{
			"buffer":0,
			"byteLength":1536,
			"byteOffset":3095140,
			"target":34963
		},
		{
			"buffer":0,
			"byteLength":3648,
			"byteOffset":3096676,
			"target":34962
		},
		{
			"buffer":0,
			"byteLength":3648,
			"byteOffset":3100324,
			"target":34962
		},
		{
			"buffer":0,
			"byteLength":2432,
			"byteOffset":3103972,
			"target":34962
		},
		{
			"buffer":0,
			"byteLength":4864,
			"byteOffset":3106404,
			"target":34962
		},
		{
			"buffer":0,
			"byteLength":1216,
			"byteOffset":3111268,
			"target":34962
		},
		{
			"buffer":0,
			"byteLength":4864,
			"byteOffset":3112484,
			"target":34962
		},
		{
			"buffer":0,
			"byteLength":2280,
			"byteOffset":3117348,
			"target":34963
		},
		{
			"buffer":0,
			"byteLength":3624,
			"byteOffset":3119628,
			"target":34962
		},
		{
			"buffer":0,
			"byteLength":3624,
			"byteOffset":3123252,
			"target":34962
		},
		{
			"buffer":0,
			"byteLength":2416,
			"byteOffset":3126876,
			"target":34962
		},
		{
			"buffer":0,
			"byteLength":4832,
			"byteOffset":3129292,
			"target":34962
		},
		{
			"buffer":0,
			"byteLength":1208,
			"byteOffset":3134124,
			"target":34962
		},
		{
			"buffer":0,
			"byteLength":4832,
			"byteOffset":3135332,
			"target":34962
		},
		{
			"buffer":0,
			"byteLength":2280,
			"byteOffset":3140164,
			"target":34963
		},
		{
			"buffer":0,
			"byteLength":144,
			"byteOffset":3142444,
			"target":34962
		},
		{
			"buffer":0,
			"byteLength":144,
			"byteOffset":3142588,
			"target":34962
		},
		{
			"buffer":0,
			"byteLength":96,
			"byteOffset":3142732,
			"target":34962
		},
		{
			"buffer":0,
			"byteLength":192,
			"byteOffset":3142828,
			"target":34962
		},
		{
			"buffer":0,
			"byteLength":48,
			"byteOffset":3143020,
			"target":34962
		},
		{
			"buffer":0,
			"byteLength":192,
			"byteOffset":3143068,
			"target":34962
		},
		{
			"buffer":0,
			"byteLength":60,
			"byteOffset":3143260,
			"target":34963
		},
		{
			"buffer":0,
			"byteLength":720,
			"byteOffset":3143320,
			"target":34962
		},
		{
			"buffer":0,
			"byteLength":720,
			"byteOffset":3144040,
			"target":34962
		},
		{
			"buffer":0,
			"byteLength":480,
			"byteOffset":3144760,
			"target":34962
		},
		{
			"buffer":0,
			"byteLength":960,
			"byteOffset":3145240,
			"target":34962
		},
		{
			"buffer":0,
			"byteLength":240,
			"byteOffset":3146200,
			"target":34962
		},
		{
			"buffer":0,
			"byteLength":960,
			"byteOffset":3146440,
			"target":34962
		},
		{
			"buffer":0,
			"byteLength":204,
			"byteOffset":3147400,
			"target":34963
		},
		{
			"buffer":0,
			"byteLength":8352,
			"byteOffset":3147604,
			"target":34962
		},
		{
			"buffer":0,
			"byteLength":8352,
			"byteOffset":3155956,
			"target":34962
		},
		{
			"buffer":0,
			"byteLength":5568,
			"byteOffset":3164308,
			"target":34962
		},
		{
			"buffer":0,
			"byteLength":11136,
			"byteOffset":3169876,
			"target":34962
		},
		{
			"buffer":0,
			"byteLength":2784,
			"byteOffset":3181012,
			"target":34962
		},
		{
			"buffer":0,
			"byteLength":11136,
			"byteOffset":3183796,
			"target":34962
		},
		{
			"buffer":0,
			"byteLength":4608,
			"byteOffset":3194932,
			"target":34963
		},
		{
			"buffer":0,
			"byteLength":14820,
			"byteOffset":3199540,
			"target":34962
		},
		{
			"buffer":0,
			"byteLength":14820,
			"byteOffset":3214360,
			"target":34962
		},
		{
			"buffer":0,
			"byteLength":9880,
			"byteOffset":3229180,
			"target":34962
		},
		{
			"buffer":0,
			"byteLength":19760,
			"byteOffset":3239060,
			"target":34962
		},
		{
			"buffer":0,
			"byteLength":4940,
			"byteOffset":3258820,
			"target":34962
		},
		{
			"buffer":0,
			"byteLength":19760,
			"byteOffset":3263760,
			"target":34962
		},
		{
			"buffer":0,
			"byteLength":12504,
			"byteOffset":3283520,
			"target":34963
		},
		{
			"buffer":0,
			"byteLength":22488,
			"byteOffset":3296024,
			"target":34962
		},
		{
			"buffer":0,
			"byteLength":22488,
			"byteOffset":3318512,
			"target":34962
		},
		{
			"buffer":0,
			"byteLength":14992,
			"byteOffset":3341000,
			"target":34962
		},
		{
			"buffer":0,
			"byteLength":29984,
			"byteOffset":3355992,
			"target":34962
		},
		{
			"buffer":0,
			"byteLength":7496,
			"byteOffset":3385976,
			"target":34962
		},
		{
			"buffer":0,
			"byteLength":29984,
			"byteOffset":3393472,
			"target":34962
		},
		{
			"buffer":0,
			"byteLength":14040,
			"byteOffset":3423456,
			"target":34963
		},
		{
			"buffer":0,
			"byteLength":2592,
			"byteOffset":3437496,
			"target":34962
		},
		{
			"buffer":0,
			"byteLength":2592,
			"byteOffset":3440088,
			"target":34962
		},
		{
			"buffer":0,
			"byteLength":1728,
			"byteOffset":3442680,
			"target":34962
		},
		{
			"buffer":0,
			"byteLength":3456,
			"byteOffset":3444408,
			"target":34962
		},
		{
			"buffer":0,
			"byteLength":864,
			"byteOffset":3447864,
			"target":34962
		},
		{
			"buffer":0,
			"byteLength":3456,
			"byteOffset":3448728,
			"target":34962
		},
		{
			"buffer":0,
			"byteLength":1536,
			"byteOffset":3452184,
			"target":34963
		},
		{
			"buffer":0,
			"byteLength":19212,
			"byteOffset":3453720,
			"target":34962
		},
		{
			"buffer":0,
			"byteLength":19212,
			"byteOffset":3472932,
			"target":34962
		},
		{
			"buffer":0,
			"byteLength":12808,
			"byteOffset":3492144,
			"target":34962
		},
		{
			"buffer":0,
			"byteLength":25616,
			"byteOffset":3504952,
			"target":34962
		},
		{
			"buffer":0,
			"byteLength":6404,
			"byteOffset":3530568,
			"target":34962
		},
		{
			"buffer":0,
			"byteLength":25616,
			"byteOffset":3536972,
			"target":34962
		},
		{
			"buffer":0,
			"byteLength":13224,
			"byteOffset":3562588,
			"target":34963
		},
		{
			"buffer":0,
			"byteLength":11316,
			"byteOffset":3575812,
			"target":34962
		},
		{
			"buffer":0,
			"byteLength":11316,
			"byteOffset":3587128,
			"target":34962
		},
		{
			"buffer":0,
			"byteLength":7544,
			"byteOffset":3598444,
			"target":34962
		},
		{
			"buffer":0,
			"byteLength":15088,
			"byteOffset":3605988,
			"target":34962
		},
		{
			"buffer":0,
			"byteLength":3772,
			"byteOffset":3621076,
			"target":34962
		},
		{
			"buffer":0,
			"byteLength":15088,
			"byteOffset":3624848,
			"target":34962
		},
		{
			"buffer":0,
			"byteLength":3912,
			"byteOffset":3639936,
			"target":34963
		},
		{
			"buffer":0,
			"byteLength":17112,
			"byteOffset":3643848,
			"target":34962
		},
		{
			"buffer":0,
			"byteLength":17112,
			"byteOffset":3660960,
			"target":34962
		},
		{
			"buffer":0,
			"byteLength":11408,
			"byteOffset":3678072,
			"target":34962
		},
		{
			"buffer":0,
			"byteLength":22816,
			"byteOffset":3689480,
			"target":34962
		},
		{
			"buffer":0,
			"byteLength":5704,
			"byteOffset":3712296,
			"target":34962
		},
		{
			"buffer":0,
			"byteLength":22816,
			"byteOffset":3718000,
			"target":34962
		},
		{
			"buffer":0,
			"byteLength":11580,
			"byteOffset":3740816,
			"target":34963
		},
		{
			"buffer":0,
			"byteLength":7824,
			"byteOffset":3752396,
			"target":34962
		},
		{
			"buffer":0,
			"byteLength":7824,
			"byteOffset":3760220,
			"target":34962
		},
		{
			"buffer":0,
			"byteLength":5216,
			"byteOffset":3768044,
			"target":34962
		},
		{
			"buffer":0,
			"byteLength":10432,
			"byteOffset":3773260,
			"target":34962
		},
		{
			"buffer":0,
			"byteLength":2608,
			"byteOffset":3783692,
			"target":34962
		},
		{
			"buffer":0,
			"byteLength":10432,
			"byteOffset":3786300,
			"target":34962
		},
		{
			"buffer":0,
			"byteLength":5088,
			"byteOffset":3796732,
			"target":34963
		},
		{
			"buffer":0,
			"byteLength":55152,
			"byteOffset":3801820,
			"target":34962
		},
		{
			"buffer":0,
			"byteLength":55152,
			"byteOffset":3856972,
			"target":34962
		},
		{
			"buffer":0,
			"byteLength":36768,
			"byteOffset":3912124,
			"target":34962
		},
		{
			"buffer":0,
			"byteLength":73536,
			"byteOffset":3948892,
			"target":34962
		},
		{
			"buffer":0,
			"byteLength":18384,
			"byteOffset":4022428,
			"target":34962
		},
		{
			"buffer":0,
			"byteLength":73536,
			"byteOffset":4040812,
			"target":34962
		},
		{
			"buffer":0,
			"byteLength":30840,
			"byteOffset":4114348,
			"target":34963
		}
	],
	"samplers":[
		{
			"magFilter":9729,
			"minFilter":9987
		}
	],
	"buffers":[
		{
			"byteLength":4145188,
			"uri":"IV7_Carbine.bin"
		}
	]
}
